<?xml version="1.0" encoding="utf-8"?>
<!-- Generator: Adobe Illustrator 22.0.0, SVG Export Plug-In . SVG Version: 6.00 Build 0)  -->
<svg version="1.1" id="Layer_1" xmlns:serif="http://www.serif.com/"
	 xmlns="http://www.w3.org/2000/svg" xmlns:xlink="http://www.w3.org/1999/xlink" x="0px" y="0px" viewBox="0 0 612 792"
	 style="enable-background:new 0 0 612 792;" xml:space="preserve">
<style type="text/css">
	.st0{fill:#413757;}
	.st1{fill:#B3AFBC;}
	.st2{fill:#FFFEFC;}
	.st3{fill:#371A45;}
	.st4{fill:#3E2E52;}
	.st5{fill:#8E8298;}
	.st6{fill:#C3B9C5;}
	.st7{fill:#FBFFFE;}
	.st8{fill:#C0BAC6;}
	.st9{fill:#8E2FF2;}
	.st10{fill:#D2ACFA;}
	.st11{fill:#7D2BCF;}
	.st12{fill:#EDDEFD;}
	.st13{fill:#7429BE;}
	.st14{fill:#A380C3;}
	.st15{fill:#FFDC2B;}
	.st16{fill:#FEDCFA;}
	.st17{fill:#C17DBE;}
	.st18{fill:#C3A133;}
	.st19{fill:#FFF1AA;}
	.st20{fill:#3D2B50;}
	.st21{fill:#FFFFFF;}
	.st22{fill:#D7D1DA;}
	.st23{fill:#ED2E7A;}
	.st24{fill:#978A9F;}
	.st25{fill:#3C284E;}
	.st26{fill:#B1A6B7;}
	.st27{fill:#FDFFFF;}
	.st28{fill:#E6E3E8;}
</style>
<g transform="matrix(1,0,0,1,-943.38,-704.681)">
	<path class="st0" d="M1080.5,1354.8c0,5.5-0.8,10.9-2.3,16c-6.9,23.8-28.9,41.2-54.9,41.2c-26.8,0-49.3-18.4-55.5-43.3
		c-1.1-4.4-1.7-9.1-1.7-13.8c0-31.6,25.6-57.2,57.2-57.2S1080.5,1323.3,1080.5,1354.8z"/>
	<path class="st1" d="M1023.3,1408.2c-7.8,0-15.2-1.7-21.9-4.7c5.6,1.9,11.7,2.9,17.9,2.9c24.9,0,46-15.9,53.9-38.1
		c0.5,0.2,1,0.5,1.5,0.7C1068.5,1391.6,1047.8,1408.2,1023.3,1408.2z"/>
	<path class="st2" d="M1047.8,1354.8c0,13.5-11,24.5-24.5,24.5c-13.5,0-24.5-11-24.5-24.5c0-13.5,11-24.5,24.5-24.5
		C1036.8,1330.3,1047.8,1341.3,1047.8,1354.8z"/>
	<path class="st3" d="M1023.3,1301.4c-29.4,0-53.4,24-53.4,53.4c0,29.4,24,53.4,53.4,53.4c29.4,0,53.4-24,53.4-53.4
		C1076.7,1325.4,1052.7,1301.4,1023.3,1301.4z M1023.3,1415.8c-16.3,0-31.6-6.3-43.1-17.9c-11.5-11.5-17.9-26.8-17.9-43.1
		c0-16.3,6.3-31.6,17.9-43.1c11.5-11.5,26.8-17.9,43.1-17.9c16.3,0,31.6,6.3,43.1,17.9c11.5,11.5,17.9,26.8,17.9,43.1
		c0,16.3-6.3,31.6-17.9,43.1C1054.9,1409.4,1039.6,1415.8,1023.3,1415.8z"/>
	<path class="st3" d="M1023.3,1334.1c-11.4,0-20.7,9.3-20.7,20.7c0,11.4,9.3,20.7,20.7,20.7c11.4,0,20.7-9.3,20.7-20.7
		C1044,1343.4,1034.7,1334.1,1023.3,1334.1z M1023.3,1383.1c-15.6,0-28.3-12.7-28.3-28.3c0-15.6,12.7-28.3,28.3-28.3
		c15.6,0,28.3,12.7,28.3,28.3C1051.6,1370.4,1038.9,1383.1,1023.3,1383.1z"/>
	<path class="st4" d="M1073.3,1368.3c-7.8-3.8-15.1-6.9-22-9.5c0.2-1.3,0.3-2.7,0.3-4c0-2.2-0.2-4.3-0.7-6.4
		c4.1,1.2,7.6,1.7,10.6,1.7c2.9,0,5.4-0.5,7.5-1.6c0.9-0.5,2-1.2,2.9-2.2c1.2,1,2.7,1.8,4.5,2.4c0.1,0.5,0.1,1.1,0.2,1.6
		c-0.1,5.1-0.9,10-2.3,14.7C1074,1366.2,1073.6,1367.3,1073.3,1368.3z M969.9,1354.3c0.1-6.8,1.4-13.2,3.8-19.1c0.4,0,0.9,0,1.4,0
		c4.9,0,10.5-0.8,16.2-1.7c5.3-0.8,10.7-1.6,15.1-1.6c0.1,0,0.2,0,0.4,0c-5.5,4-9.5,9.9-11,16.7c-8.2,0.4-14.5,1.9-19.1,3.3
		C973.8,1352.8,971.6,1353.7,969.9,1354.3z"/>
	<path class="st5" d="M1074.8,1369.1c-0.5-0.2-1-0.5-1.5-0.7c0.4-1,0.7-2.1,1-3.1c1.4-4.7,2.1-9.6,2.3-14.7c0.1,1.4,0.2,2.9,0.2,4.4
		C1076.7,1359.8,1076,1364.5,1074.8,1369.1z"/>
	<path class="st3" d="M1078.2,1370.8c-1.2-0.6-2.3-1.2-3.4-1.7c1.3-4.5,1.9-9.3,1.9-14.2c0-1.5-0.1-2.9-0.2-4.4
		c0-0.5-0.1-1.1-0.2-1.6c1.2,0.4,2.5,0.7,3.9,1c0.1,1.6,0.2,3.3,0.2,5C1080.5,1360.4,1079.7,1365.7,1078.2,1370.8z M966.7,1355.4
		c-0.4,0-0.5-0.2-0.5-0.5c0-7.1,1.3-13.8,3.6-20c1.2,0.2,2.6,0.3,3.9,0.4c-2.4,5.9-3.7,12.4-3.8,19.1
		C968.3,1354.9,967.3,1355.4,966.7,1355.4z"/>
	<path class="st6" d="M1044,1356.3c-16.3-5.4-29.6-7.5-40.4-7.8c2.1-6.6,7.5-11.8,14.3-13.7c2.8,1.2,6,2.6,9.3,4.1
		c4.6,2.1,9.6,4.4,14.5,6.3c1.5,2.9,2.3,6.1,2.3,9.5C1044,1355.3,1044,1355.8,1044,1356.3z"/>
	<path class="st3" d="M1051.3,1358.9c-2.5-0.9-4.9-1.8-7.3-2.6c0-0.5,0-1,0-1.4c0-3.4-0.8-6.7-2.3-9.5c2.5,1,4.9,1.9,7.3,2.6
		c0.6,0.2,1.3,0.4,1.9,0.6c0.5,2,0.7,4.2,0.7,6.4C1051.6,1356.2,1051.5,1357.5,1051.3,1358.9z M995.7,1348.6
		c1.5-6.8,5.5-12.7,11-16.7c1,0,2,0.1,2.9,0.2c1.9,0.2,4.8,1.3,8.3,2.7c-6.8,1.8-12.2,7-14.3,13.7c-1,0-1.9,0-2.9,0
		C999,1348.5,997.3,1348.5,995.7,1348.6z"/>
	<path class="st7" d="M1283.4,1251.5c-121.7,0-107.3-76.8-107.3-93.3c0-5.3,2.5-18.5,9-34c0.1-0.3,0.2-0.5,0.3-0.8
		c13.9-32.6,45.2-74.8,107.3-74.8c39.7,0,55.2,11.4,65.9,28.1c8.3,13,5,33.5,3.1,48.8c-0.6,4.4-1,8.4-1,11.7
		c0,3.6,5.5,16.5,7.1,27.9C1372.6,1199.3,1374.7,1251.5,1283.4,1251.5z"/>
	<path class="st8" d="M1344.7,1232.5h-85c0.4-2.3,0.5-4.7,0.3-7.2c0-0.6-0.1-1.2-0.2-1.9c0,0,0,0,0,0c-0.1-0.6-0.1-1.1-0.2-1.7
		c4.5,0.2,9.2,0.4,14.1,0.4c74.6,0,86.8-34.8,86.2-66.2c0.4,0.3,0.7,0.7,1.1,1c4.2,18.9,8.3,47.1-7.2,66.8
		C1351.2,1227,1348.2,1229.9,1344.7,1232.5z M1189.1,1207.2c0,0-1.5-1.1-3.9-2.5c-1.9-4.4-3.3-8.9-4.2-13.2c3.4,4,7.4,7.9,12.4,11.4
		C1192,1204.2,1190.5,1205.6,1189.1,1207.2z"/>
	<path class="st0" d="M1367.8,1165.1c-13.7-20.1-36.7-27.9-82.3-27.9c-50.6,0-84.5-8.7-100.1-13.9c13.9-32.6,45.2-74.8,107.3-74.8
		c39.7,0,55.2,11.4,65.9,28.1c10.7,16.7,2.2,46.1,2.2,60.5C1360.7,1140.9,1366.2,1153.8,1367.8,1165.1z"/>
	<path class="st3" d="M1292.7,1052.4c-47.1,0-74.8,25.5-89.7,47c-17.6,25.3-23.1,52-23.1,58.8c0,1.4-0.1,3.1-0.2,5.1
		c-0.7,12.5-2,38.4,16.4,57.8c16.7,17.6,46.1,26.6,87.3,26.6c34.2,0,57.8-8.1,70.4-23.9c17.8-22.6,9.8-56.4,5.4-74.6
		c-1.3-5.4-2.2-9.4-2.2-11.9c0-4.2,0.6-9.3,1.4-15.2c1.8-14.4,4.1-32.3-2.9-43.3C1345.2,1062.9,1330.7,1052.4,1292.7,1052.4z
		 M1283.4,1255.3c-23,0-42.8-2.8-58.8-8.2c-14.1-4.8-25.5-11.8-34-20.7c-20.7-21.8-19.2-49.9-18.5-63.4c0.1-1.9,0.2-3.5,0.2-4.7
		c0-8.8,6.2-36.9,24.4-63.1c10.3-14.8,22.7-26.5,36.9-34.9c17.3-10.2,37.1-15.3,59-15.3c19.3,0,34.2,2.7,45.5,8.2
		c9.7,4.7,17,11.4,23.6,21.7c8.5,13.3,6.1,32.7,4.1,48.4c-0.7,5.4-1.3,10.5-1.3,14.2c0,1.6,1,5.8,2,10.2c2.2,9.2,5.5,23.2,5.8,37.7
		c0.3,17.7-3.9,32.2-12.7,43.3c-6.7,8.4-16,15-27.8,19.4C1318.9,1252.8,1302.6,1255.3,1283.4,1255.3z"/>
	<path class="st8" d="M1284.4,1144.6c0.7-2.3,1.1-4.7,1.1-7.2v-0.1c13.8,0,25.6,0.7,35.6,2.3
		C1310.1,1142.1,1297.7,1144,1284.4,1144.6z"/>
	<path class="st4" d="M1321.2,1139.6c-10-1.6-21.8-2.3-35.6-2.3c0-2.7-0.5-5.2-1.4-7.4c-0.3,0.8-0.6,1.5-1,2.3
		c-1.1-4.2-3.6-7.7-7.2-10.4c23.1-0.9,45.1-4.7,64.2-11c7.1-2.3,13.7-5,20-8c-0.2,6.6-1,13.3-1.8,19.4c-0.2,1.8-0.5,3.6-0.7,5.3
		C1347.8,1131.8,1335.5,1136.2,1321.2,1139.6z M1191.2,1119.6c1.1-2.4,2.4-4.8,3.7-7.3c5.1,1.5,10.5,2.9,16,4.1
		c-2.8,0.5-5.7,1-8.6,1.6C1198.5,1118.8,1194.8,1119.3,1191.2,1119.6z"/>
	<path class="st3" d="M1357.7,1127.4c0.2-1.7,0.4-3.5,0.7-5.3c0.8-6.1,1.6-12.8,1.8-19.4c1.3-0.6,2.6-1.3,3.8-1.9
		c-0.1,8.5-1.3,17.3-2.3,24.8C1360.4,1126.2,1359.1,1126.8,1357.7,1127.4z M1186.9,1119.9c1.3-2.9,2.7-5.8,4.3-8.7
		c1.2,0.4,2.4,0.8,3.7,1.1c-1.3,2.4-2.5,4.9-3.7,7.3C1189.8,1119.8,1188.3,1119.9,1186.9,1119.9z"/>
	<path class="st0" d="M1342.7,1354.8c0,5.5-0.8,10.9-2.3,16c-6.9,23.8-28.9,41.2-54.9,41.2c-26.8,0-49.3-18.4-55.5-43.3
		c-1.1-4.4-1.7-9.1-1.7-13.8c0-31.6,25.6-57.2,57.2-57.2C1317.1,1297.7,1342.7,1323.3,1342.7,1354.8z"/>
	<path class="st1" d="M1285.5,1408.2c-7.8,0-15.2-1.7-21.9-4.7c5.6,1.9,11.7,2.9,17.9,2.9c24.4,0,45.2-15.2,53.4-36.7
		c0.6,0.1,1.2,0.2,1.7,0.3C1330.2,1392.1,1309.7,1408.2,1285.5,1408.2z"/>
	<path class="st2" d="M1310,1354.8c0,13.5-11,24.5-24.5,24.5c-13.5,0-24.5-11-24.5-24.5c0-13.5,11-24.5,24.5-24.5
		C1299.1,1330.3,1310,1341.3,1310,1354.8z"/>
	<path class="st3" d="M1285.5,1301.4c-29.4,0-53.4,24-53.4,53.4c0,29.4,24,53.4,53.4,53.4c29.4,0,53.4-24,53.4-53.4
		C1338.9,1325.4,1315,1301.4,1285.5,1301.4z M1285.5,1415.8c-16.3,0-31.6-6.3-43.1-17.9c-11.5-11.5-17.9-26.8-17.9-43.1
		c0-16.3,6.3-31.6,17.9-43.1c11.5-11.5,26.8-17.9,43.1-17.9c16.3,0,31.6,6.3,43.1,17.9c11.5,11.5,17.9,26.8,17.9,43.1
		c0,16.3-6.3,31.6-17.9,43.1C1317.1,1409.4,1301.8,1415.8,1285.5,1415.8z"/>
	<path class="st3" d="M1285.5,1334.1c-11.4,0-20.7,9.3-20.7,20.7c0,11.4,9.3,20.7,20.7,20.7c11.4,0,20.7-9.3,20.7-20.7
		C1306.2,1343.4,1297,1334.1,1285.5,1334.1z M1285.5,1383.1c-15.6,0-28.3-12.7-28.3-28.3c0-15.6,12.7-28.3,28.3-28.3
		c15.6,0,28.3,12.7,28.3,28.3C1313.8,1370.4,1301.1,1383.1,1285.5,1383.1z"/>
	<path class="st4" d="M1335,1369.7c-6.4-1.1-14.7-2.1-23.9-2.8c1.3-2.7,2.2-5.7,2.5-8.8c9.4-0.1,17.9-0.3,24.5-0.4
		c-0.4,2.5-0.9,5-1.6,7.4C1336,1366.7,1335.5,1368.2,1335,1369.7z"/>
	<path class="st5" d="M1336.7,1370c-0.6-0.1-1.1-0.2-1.7-0.3c0.6-1.5,1.1-3,1.5-4.5c0.7-2.4,1.3-4.9,1.6-7.4c0.2,0,0.5,0,0.7,0
		C1338.6,1362,1337.9,1366.1,1336.7,1370z"/>
	<path class="st4" d="M1233.8,1368.1c-0.8-3.2-1.3-6.4-1.5-9.8c5.2,0.2,13.1,0.3,25.2,0.3c0.3,2.5,1,5,2,7.3
		C1250.1,1366.2,1241.2,1367,1233.8,1368.1z"/>
	<path class="st3" d="M1340.4,1370.8c-1.1-0.3-2.4-0.5-3.7-0.8c1.2-3.9,1.9-8,2.1-12.3c1.4,0,2.6,0,3.8-0.1
		C1342.4,1362.2,1341.7,1366.6,1340.4,1370.8z M1230,1368.7c-0.9-3.4-1.4-6.9-1.6-10.6c1.1,0.1,2.3,0.1,3.8,0.2
		c0.2,3.4,0.7,6.6,1.5,9.8C1232.5,1368.3,1231.3,1368.5,1230,1368.7z"/>
	<path class="st6" d="M1302.7,1366.4c-8.8-0.5-18.1-0.8-27.4-0.8c-2.5,0-5,0-7.5,0.1c-1.3-2.1-2.2-4.5-2.7-7.1
		c7.1,0,15.3-0.1,25-0.2c5.4-0.1,10.7-0.1,15.9-0.2C1305.5,1361.2,1304.3,1364,1302.7,1366.4z"/>
	<path class="st3" d="M1311.1,1366.9c-2.7-0.2-5.5-0.4-8.4-0.6c1.6-2.4,2.7-5.2,3.2-8.1c2.6,0,5.2-0.1,7.7-0.1
		C1313.3,1361.2,1312.4,1364.2,1311.1,1366.9z M1259.5,1365.9c-1-2.3-1.7-4.7-2-7.3h2c1.8,0,3.7,0,5.6,0c0.5,2.5,1.4,4.9,2.7,7.1
		C1265,1365.7,1262.2,1365.8,1259.5,1365.9z"/>
	<path class="st3" d="M1107.2,1350.4c-0.1,0-0.3,0-0.4,0c-2.1-0.2-3.6-2.1-3.3-4.2l3-27.6c0.2-2.1,2.1-3.6,4.2-3.3
		c2.1,0.2,3.6,2.1,3.3,4.2l-3,27.6C1110.7,1349,1109.1,1350.4,1107.2,1350.4z"/>
	<path class="st9" d="M1067.5,1167.1l-38,110.5c0,0-28.3-6.8-50.7,8.4c-17.3,11.7-22,34.6-14.4,42.2c4.6,4.6,15.4,3,26.2,1.4
		c7-1,14.1-2.1,19.4-1.4c13.5,1.7,57.5,32.1,61.7,10.1c0,0-0.8,7.4,12.7,7.9c13.5,0.5,125.9,0,125.9,0s5.1,4.7,12.7,7.3
		s128.4,0,128.4,0s6.8-1.7,9.3-11c0,0,9.3-1.7,9.3-16.1c0-14.4-2.5-56.6-22-56.6c0,0,15.2-5.9,15.2-18.6s-5.9-15.2-14.4-15.2h-155.5
		c0,0-11-1.3-11,11.8c0,8.4,4.8,22,24.4,22c0,0-21,5.9-21,49h-75.6c0,0,14.8-129.3-10.6-146.2
		C1074.3,1156,1067.5,1167.1,1067.5,1167.1z"/>
	<path class="st10" d="M1359.2,1247.2c-2.5-2.4-6.2-3-10.5-3h-93.5c0.9-1.3,1.7-2.7,2.4-4.1h91.5c3.9,0,6.4,0.6,7.9,1.9
		C1357.9,1243,1358.8,1244.8,1359.2,1247.2z"/>
	<path class="st10" d="M1355.9,1339.5c-7.8-16.8-26.5-43.5-67-43.5c-42.6,0-62.2,19.3-71.1,36.1c0,0-1.6,0-4.6,0
		c5.9-17.9,23.5-46.9,75.7-46.9c50.7,0,67.2,41.7,70.9,53.7c-0.4,0.1-0.8,0.2-1.1,0.4C1358.4,1339.5,1357.4,1339.5,1355.9,1339.5z"
		/>
	<path class="st11" d="M1344.3,1269.6h-133.7c-0.2-1.9-1.9-3.3-3.8-3.3c-5.6,0-9.7-1.2-12.7-3c3.8,0.7,7.9,1,12.2,1
		c6.9,0,14.2-0.9,21.1-2.8H1348c0,0,6.8-2.6,11.3-8.1c-1.5,8.6-12.5,13.1-12.6,13.2C1345.4,1267,1344.5,1268.2,1344.3,1269.6z"/>
	<path class="st10" d="M1068.9,1322.5c-3.8-10.7-8.8-18.4-13.9-23.8c-11.2-11.9-22.9-13.1-22.9-13.1s-6.3-1.5-15.2-1.5
		c-10.1,0-23.6,1.9-35.5,9.9c-5.4,3.7-9.6,8.5-12.6,13.6c-0.2-1.2-0.4-2.6-0.4-3.9c2.6-5.2,6.6-10.4,12.5-14.4
		c10.7-7.3,23-9.1,31.5-9.3c0.6,0,1.2,0,1.8,0c8.4,0,14.3,1.4,14.4,1.4c0.3,0.1,0.6,0.1,0.9,0.1c1.6,0,3-1,3.6-2.6l0.3-0.9
		c0.5,0.1,1,0.3,1.6,0.5c3.8,1.3,9,3.9,14.5,8.8l-0.7,2.4c-0.6,2,0.6,4.1,2.6,4.7c0.3,0.1,0.7,0.1,1,0.1c1,0,2-0.4,2.7-1.2
		C1060.5,1300.1,1065.6,1309.4,1068.9,1322.5z"/>
	<path class="st10" d="M1035,1278.6c-0.6-0.2-1.1-0.4-1.6-0.5l37.5-109c0.5-0.5,2.1-1.7,5.5-1.7c1.6,0,3.7,0.3,6.3,1.1l-1.1,3.9
		c-0.9-0.1-1.7-0.2-2.5-0.2c-6.5,0-8.7,3.6-8.7,3.6L1035,1278.6"/>
	<path class="st12" d="M1035,1278.6c-0.6-0.2-1.1-0.4-1.6-0.5v0C1033.9,1278.2,1034.4,1278.4,1035,1278.6L1035,1278.6z"/>
	<path class="st10" d="M1361.1,1288.5c-3.3-6.5-8-11-14.4-11h-144.4c2.9-2.8,5.3-3.6,5.6-3.7c1.8-0.5,3-2.2,2.8-4.1c0,0,0,0,0,0
		h133.7c-0.1,0.4,0,0.8,0,1.2c0.3,1.8,1.9,3.1,3.7,3.1C1354.5,1273.8,1358.6,1280.9,1361.1,1288.5z"/>
	<path class="st10" d="M1188.8,1326.4h-85.4c0,0,15.1-129.3-10.8-146.2c-1.6-1-3.1-2-4.6-2.8l1.7-6.1c2.4,1.2,5,2.8,7.9,4.7
		c3.3,2.2,7.9,8.8,10.7,27.4c1.9,12.6,2.7,29,2.4,48.8c-0.5,33.9-4.2,66.1-4.2,66.4c-0.1,1.1,0.2,2.1,0.9,2.9
		c0.7,0.8,1.7,1.3,2.8,1.3h75.6c1.3,0,2.4-0.6,3.1-1.6C1188.8,1322.9,1188.8,1324.7,1188.8,1326.4z"/>
	<path class="st13" d="M1259.6,1351.1c-28.2,0-34.2-0.6-35.4-0.9c-6.2-2.1-10.6-5.9-11.2-6.4c1.1-3.5,2.7-7.5,4.8-11.6
		c0,0,5.1,4.7,12.7,7.3c2.5,0.8,17.7,1.1,36.7,1.1c32.7,0,76.9-0.8,88.7-1.1c0.4,0.9,0.8,1.7,1.1,2.5c-1.6,5.7-5.1,7.5-6.2,7.9
		c-4.3,0.1-31.9,0.6-60.2,0.9C1278.1,1351,1267.9,1351.1,1259.6,1351.1z M1122.9,1342.9c-18.5,0-33.9-0.1-38.3-0.2
		c-7.2-0.3-9-2.7-9-3.9c0,0.1,0,0.2,0,0.2l-3.8-0.4v0v0h0l-3.7-0.7c-0.5,2.7-1.7,3.7-2.6,4.1c-0.8,0.4-2.1,0.8-4,0.8
		c-2.3,0-5.6-0.5-10.2-1.9c-6.7-2.1-14.2-5.6-21-8.6c-8.1-3.7-15.1-6.9-19.8-7.5c-1.3-0.2-2.7-0.2-4.2-0.2c-5,0-10.7,0.8-16.2,1.7
		c-5,0.7-10.6,1.6-15.2,1.6c-3.5,0-6.4-0.5-7.8-1.9c-1.6-1.6-2.5-4.8-2.4-8.6c0.9-3.1,2.2-6.4,4-9.5c0.5,2.7,1.6,4.9,3.2,6.5
		c2.3,2.3,6,3,10.6,3c4.7,0,10.2-0.8,15.7-1.6c5.5-0.8,11-1.6,15.7-1.6c1.3,0,2.6,0.1,3.7,0.2c10,1.2,36.4,18.1,51.4,18.1
		c5.3,0,9.2-2.1,10.3-7.9c0,0-0.8,7.4,12.7,7.9c4.5,0.2,20,0.2,38.6,0.2c30.5,0,69.5-0.2,82.7-0.2c-1.4,4.3-2.2,8-2.5,10.5
		c-0.1,0-0.2,0-0.4,0h0C1209.6,1342.7,1159.9,1342.9,1122.9,1342.9z M1360.1,1339c0.8-0.3,1.8-0.9,2.9-1.9
		C1361.8,1338.4,1360.6,1338.8,1360.1,1339z"/>
	<path class="st14" d="M1213,1343.7C1212.9,1343.7,1212.9,1343.7,1213,1343.7c-0.7-0.6-1.4-1-2.3-1.1c0.4-2.5,1.1-6.1,2.5-10.5
		c2.9,0,4.6,0,4.6,0C1215.6,1336.3,1214.1,1340.2,1213,1343.7z M1357,1342c-0.3-0.8-0.7-1.7-1.1-2.5c1.5,0,2.5,0,2.9-0.1
		c-0.8,0.5-1.4,1.3-1.7,2.3C1357,1341.8,1357,1341.9,1357,1342z"/>
	<path class="st14" d="M964.7,1317.1c0-0.5,0-1,0.1-1.6c0.3-3.4,1.5-7.6,3.6-11.9c0,1.4,0.1,2.7,0.4,3.9
		C967,1310.7,965.6,1313.9,964.7,1317.1z"/>
	<path class="st3" d="M1224.2,1350.1c1.6,0.4,11.2,1.3,66.4,0.8c28.2-0.3,55.9-0.8,60.2-0.9c1.1-0.4,4.7-2.3,6.3-8.2
		c0.4-1.5,1.5-2.5,2.9-2.7c0.3-0.1,1.6-0.5,3-1.9c2.1-2.2,3.2-5.8,3.2-10.4c0-4.3-0.3-19.4-3.6-32.8c-2.3-9.1-6.6-20-14.6-20
		c-1.8,0-3.4-1.3-3.7-3.1c-0.3-1.8,0.7-3.6,2.3-4.2c0.1,0,12.8-5.2,12.8-15.1c0-4.7-0.9-7.9-2.7-9.5c-1.5-1.3-4-1.9-7.9-1.9h-155.5
		c-0.2,0-0.3,0-0.4,0c-0.3,0-2.9-0.2-4.7,1.5c-1.4,1.3-2.1,3.5-2.1,6.6c0,4.3,1.5,18.2,20.6,18.2c1.9,0,3.6,1.4,3.8,3.3
		c0.2,1.9-0.9,3.6-2.8,4.1c-0.4,0.1-4.6,1.6-8.9,7.6c-4.2,5.8-9.3,17.1-9.3,37.8c0,2.1-1.7,3.8-3.8,3.8h-75.6
		c-1.1,0-2.1-0.5-2.8-1.3c-0.7-0.8-1.1-1.9-0.9-2.9c0-0.3,3.7-32.6,4.2-66.4c0.3-19.8-0.5-36.2-2.4-48.8
		c-2.8-18.6-7.4-25.1-10.7-27.4c-19-12.6-25.5-8.2-26.7-7l-37.8,109.9c-0.6,1.8-2.6,2.9-4.5,2.4c-0.1,0-6.9-1.6-16.2-1.4
		c-8.4,0.2-20.8,2-31.5,9.3c-10.8,7.3-15.4,18.7-16.1,26.2c-0.4,4.5,0.4,8.3,2.3,10.2c3.3,3.3,14.2,1.6,23,0.3
		c7.2-1.1,14.6-2.2,20.4-1.4c4.7,0.6,11.7,3.8,19.8,7.5c6.7,3.1,14.3,6.5,21,8.6c8.5,2.7,12.4,2.1,14.2,1.2c0.9-0.4,2.1-1.4,2.6-4.1
		l3.7,0.7l3.8,0.4c0,0,0-0.1,0-0.2c0,1.2,1.9,3.6,9,3.9c13.3,0.5,124.6,0,125.7,0h0c1,0,1.9,0.4,2.6,1
		C1213,1343.7,1217.5,1347.9,1224.2,1350.1z M1259.5,1358.6c-33.8,0-36.4-0.9-37.7-1.3c-6.1-2-10.8-5.4-12.9-7.1
		c-13.6,0.1-111.9,0.5-124.6,0c-5.4-0.2-9.6-1.5-12.4-3.8c-1,1-2,1.7-2.9,2.2c-4.6,2.4-10.9,2.1-19.9-0.7c-7.1-2.2-14.9-5.8-21.8-9
		c-7.2-3.3-14-6.4-17.6-6.9c-4.8-0.6-11.7,0.4-18.4,1.4c-12.1,1.8-23.5,3.5-29.5-2.5c-3.5-3.5-5.1-9.3-4.5-16.3
		c0.5-5.6,2.5-11.5,5.6-16.9c3.4-6,8.2-11.1,13.8-14.9c9.8-6.6,22.1-10.3,35.8-10.6c6.2-0.1,11.4,0.4,14.5,0.9l37-107.4
		c0.1-0.3,0.2-0.5,0.3-0.7c0.2-0.4,2.4-3.8,7.9-5c7.6-1.7,17.5,1.5,29.6,9.6c6.8,4.5,11.4,15.2,14,32.6c2,13,2.8,29.9,2.5,50.1
		c-0.4,27-2.8,53-3.8,62.9h67.7c0.7-24.1,8.1-36.5,14.4-42.8c-6-1.8-9.8-5-12.2-7.8c-3.6-4.4-5.7-10.4-5.7-16.6
		c0-5.4,1.6-9.5,4.7-12.3c4-3.6,8.9-3.4,10.2-3.3h155.3c7.8,0,18.1,2,18.1,19c0,8.3-5.1,14.1-9.8,17.6c2,1.4,3.9,3.2,5.5,5.6
		c3,4.2,5.4,10,7.2,17.4c3.5,14.3,3.8,30.1,3.8,34.6c0,8.8-3.2,13.6-5.8,16.1c-1.5,1.4-3,2.3-4.2,2.8c-3.5,9.6-11.1,11.6-11.4,11.7
		c-0.3,0.1-0.6,0.1-0.8,0.1c-0.3,0-30.6,0.6-61.4,1C1277.8,1358.6,1267.7,1358.6,1259.5,1358.6z"/>
	<path class="st3" d="M1052.4,1294.6c-0.3,0-0.7,0-1-0.1c-2-0.6-3.2-2.6-2.6-4.7l34.8-124.7c0.6-2,2.6-3.2,4.7-2.6
		c2,0.6,3.2,2.6,2.6,4.7l-34.8,124.7C1055.6,1293.5,1054.1,1294.6,1052.4,1294.6z"/>
	<path class="st3" d="M1071.8,1342.3c-1.9,0-3.5-1.4-3.7-3.3c-2.8-22.4-10.5-39.5-22.4-49.4c-8.6-7.1-16.4-8.1-16.5-8.1
		c-2.1-0.2-3.6-2.1-3.4-4.2c0.2-2.1,2.1-3.6,4.2-3.4c0.4,0,10.1,1.1,20.5,9.8c6,5,11.1,11.5,15.1,19.4c4.9,9.7,8.3,21.4,10,34.9
		c0.3,2.1-1.2,4-3.3,4.2C1072.1,1342.3,1071.9,1342.3,1071.8,1342.3z"/>
	<path class="st3" d="M1348.1,1273.8h-141.2c-2.1,0-3.8-1.7-3.8-3.8c0-2.1,1.7-3.8,3.8-3.8h141.2c2.1,0,3.8,1.7,3.8,3.8
		C1351.8,1272.1,1350.1,1273.8,1348.1,1273.8z"/>
	<path class="st3" d="M1210.3,1350.2c-0.1,0-0.1,0-0.2,0c-2.1-0.1-3.7-1.9-3.6-4c0-0.7,1-16.4,11.6-32.2
		c6.3-9.3,14.6-16.7,24.9-22.1c12.6-6.6,28-9.9,45.9-9.9c14.1,0,26.9,3.2,38,9.4c8.9,5,16.6,11.9,23.1,20.6
		c10.9,14.7,14.2,29.3,14.4,29.9c0.5,2-0.8,4.1-2.9,4.5c-2,0.5-4.1-0.8-4.5-2.9c0-0.1-3.2-13.8-13.2-27.2
		c-13.3-17.7-31.7-26.7-54.9-26.7c-29.8,0-51.4,9.5-64.3,28.4c-9.6,14.1-10.5,28.5-10.5,28.7
		C1214,1348.6,1212.3,1350.2,1210.3,1350.2z"/>
	<path class="st9" d="M1112.9,1142.3c-2.1,14.2-19,23.5-37.7,20.7c-5.4-0.8-10.3-2.5-14.5-4.9c-10.6-5.9-17-15.8-15.5-25.9
		c1.4-9.7,9.7-17.1,20.7-19.9c5.2-1.4,11-1.7,17-0.8C1101.6,1114.3,1115.1,1128.1,1112.9,1142.3z"/>
	<path class="st15" d="M1080.5,1134.6c0,12.4-8.7,22.5-19.8,23.5c-10.6-5.9-17-15.8-15.5-25.9c1.4-9.7,9.7-17.1,20.7-19.9
		C1074.4,1115.5,1080.5,1124.3,1080.5,1134.6z"/>
	<path class="st0" d="M1129,1090.9c-1.9,9.5-9.7,15.9-17.5,14.3c-7.8-1.5-12.6-10.5-10.7-19.9c1.9-9.5,9.7-15.9,17.5-14.3
		C1126,1072.5,1130.8,1081.5,1129,1090.9z"/>
	<path class="st16" d="M1100.4,1088.6c0-1.5,0.1-3,0.4-4.5c1.7-8.5,8.2-14.6,15.2-14.6c0.8,0,1.5,0.1,2.3,0.2
		c6.8,1.3,11.3,8.3,11.1,16.3c-0.3-7.5-4.7-13.8-11.1-15c-0.8-0.2-1.6-0.2-2.3-0.2c-7,0-13.5,6.1-15.2,14.6
		C1100.6,1086.4,1100.4,1087.5,1100.4,1088.6z"/>
	<path class="st1" d="M1100.4,1088.8c0-0.1,0-0.1,0-0.2c0-1.1,0.2-2.2,0.4-3.3c1.7-8.5,8.2-14.6,15.2-14.6c0.8,0,1.5,0.1,2.3,0.2
		c6.4,1.3,10.8,7.6,11.1,15c0,0.1,0,0.1,0,0.2c0-1-0.1-2-0.3-3c0,0.1,0,0.3-0.1,0.4c-0.2,0.9-0.4,1.9-0.7,2.7
		c-1.7-4.8-5.3-8.3-10-9.3c-0.8-0.2-1.6-0.2-2.3-0.2c-6.2,0-12,4.8-14.4,11.8c-0.3-0.9-0.6-1.9-0.8-2.9
		C1100.5,1086.8,1100.4,1087.8,1100.4,1088.8z"/>
	<path class="st17" d="M1113.8,1105.5c-0.8,0-1.5-0.1-2.3-0.2c-1.7-0.3-3.2-1-4.6-2c1.4,1,2.9,1.6,4.6,2
		C1112.2,1105.4,1113,1105.5,1113.8,1105.5L1113.8,1105.5z M1106.9,1103.3C1106.9,1103.3,1106.9,1103.3,1106.9,1103.3
		C1106.9,1103.3,1106.9,1103.3,1106.9,1103.3z M1106.8,1103.3C1106.8,1103.2,1106.8,1103.2,1106.8,1103.3
		C1106.8,1103.2,1106.8,1103.3,1106.8,1103.3z"/>
	<path class="st4" d="M1113.8,1105.5c-0.8,0-1.5-0.1-2.3-0.2c-1.7-0.3-3.2-1-4.6-2c0,0,0,0,0,0c0,0,0,0,0,0c0,0,0,0,0,0c0,0,0,0,0,0
		c-4.1-2.9-6.6-8.4-6.4-14.5c0,1,0.1,2,0.3,3c0-0.1,0-0.3,0.1-0.4c0.2-0.9,0.4-1.8,0.7-2.7c1.7,4.8,5.3,8.3,10,9.3
		c0.8,0.2,1.6,0.2,2.3,0.2c6.2,0,12-4.8,14.4-11.8c0.3,0.9,0.6,1.9,0.8,2.9c0.2-1,0.3-2,0.3-3.1c0,1.5-0.1,3.1-0.4,4.7
		C1127.3,1099.4,1120.8,1105.5,1113.8,1105.5z"/>
	<path class="st5" d="M1100.7,1091.8c-0.2-1-0.3-2-0.3-3c0-1,0.1-2,0.3-3.1c0.2,1,0.5,2,0.8,2.9c-0.3,0.9-0.5,1.8-0.7,2.7
		C1100.7,1091.5,1100.7,1091.7,1100.7,1091.8z M1129,1089.3c-0.2-1-0.5-2-0.8-2.9c0.3-0.9,0.5-1.8,0.7-2.7c0-0.1,0-0.3,0.1-0.4
		c0.2,1,0.3,2,0.3,3C1129.3,1087.2,1129.2,1088.3,1129,1089.3z"/>
	<path class="st13" d="M1081.9,1159.8c-2,0-4.1-0.2-6.1-0.5c-3.3-0.5-6.4-1.3-9.3-2.5c3.9-1.6,7.2-4.4,9.7-7.9
		c0.2,0,0.3,0.1,0.5,0.1c2.2,0.3,4.5,0.5,6.6,0.5c9.8,0,18.5-3.3,24.3-8.7c0.3,1.2,0.6,2.3,1.1,3.5c-1.4,4.7-5,8.7-10.2,11.6
		C1093.7,1158.4,1088,1159.8,1081.9,1159.8z"/>
	<path class="st18" d="M1066.5,1156.8c-1.4-0.6-2.7-1.2-3.9-1.9c-9.6-5.3-14.8-13.8-13.6-22.1c0.1-0.4,0.1-0.8,0.2-1.2
		c2.7,4.9,7.2,9.3,12.9,12.5c4.1,2.3,8.9,4,14.1,4.8C1073.7,1152.4,1070.4,1155.2,1066.5,1156.8z"/>
	<path class="st10" d="M1107.4,1132.5c-5.4-6.5-14.1-11.4-24.5-13c-2.2-0.3-4.4-0.5-6.6-0.5c-0.4,0-0.8,0-1.2,0
		c-1.2-1.5-2.5-2.8-4-3.9c1.7-0.2,3.5-0.3,5.2-0.3c2,0,4,0.1,6,0.5c8.2,1.2,15.6,4.8,20.7,10c2,2,3.5,4.2,4.5,6.4
		C1107.5,1132,1107.5,1132.2,1107.4,1132.5z"/>
	<path class="st19" d="M1049.5,1130.5c2.1-6.7,8.5-12.2,17.4-14.5c1.4-0.4,2.8-0.6,4.2-0.8c1.5,1.1,2.8,2.4,4,3.9
		c-3.2,0.1-6.3,0.5-9.1,1.3C1059.1,1122.1,1053.3,1125.7,1049.5,1130.5z"/>
	<path class="st3" d="M1076.3,1114.8c-3.2,0-6.4,0.4-9.4,1.2c-9.9,2.6-16.8,9-17.9,16.8c-1.2,8.3,4,16.8,13.6,22.1
		c4,2.2,8.5,3.7,13.3,4.4c8.2,1.2,16.3,0,22.7-3.5c6.1-3.3,9.9-8.3,10.7-14v0c0.9-5.7-1.3-11.5-6.2-16.5c-5.1-5.2-12.4-8.8-20.7-10
		C1080.4,1115,1078.3,1114.8,1076.3,1114.8z M1081.9,1167.3c-2.4,0-4.8-0.2-7.2-0.5c-5.7-0.8-11-2.6-15.8-5.3
		c-5.8-3.2-10.6-7.6-13.7-12.7c-3.3-5.4-4.6-11.3-3.7-17.1c1.6-10.9,10.6-19.7,23.5-23c5.8-1.5,12.2-1.8,18.5-0.9
		c9.9,1.5,18.7,5.8,25,12.2c6.5,6.7,9.4,14.8,8.2,22.9c-1.2,8.1-6.4,15-14.5,19.5C1096.2,1165.6,1089.2,1167.3,1081.9,1167.3z"/>
	<path class="st3" d="M1065.7,1116.3c-9.3,2.8-15.6,9-16.7,16.5c-1.2,8,3.6,16.1,12.5,21.5c8.6-1.4,15.2-9.8,15.2-19.6
		C1076.7,1126.6,1072.3,1119.4,1065.7,1116.3z M1060.7,1162c-0.6,0-1.3-0.2-1.8-0.5c-5.8-3.2-10.6-7.6-13.6-12.7
		c-3.3-5.4-4.6-11.3-3.7-17.1c1.6-10.9,10.6-19.7,23.5-23c0.8-0.2,1.6-0.2,2.3,0.1c10.1,3.8,17,14.2,17,25.9
		c0,6.9-2.4,13.4-6.6,18.5c-4.3,5.1-10.2,8.2-16.6,8.8C1060.9,1161.9,1060.8,1162,1060.7,1162z"/>
	<path class="st3" d="M1115.9,1074.6c-5.2,0-10.1,4.8-11.4,11.5c-0.7,3.7-0.3,7.4,1.4,10.4c1.5,2.7,3.7,4.5,6.4,5.1
		c2.6,0.5,5.4-0.3,7.8-2.3c2.6-2.2,4.5-5.4,5.2-9.1c1.5-7.4-2-14.3-7.7-15.5C1117,1074.6,1116.4,1074.6,1115.9,1074.6z
		 M1113.8,1109.3c-1,0-2.1-0.1-3.1-0.3c-4.9-1-9-4.1-11.6-8.9c-2.4-4.5-3.2-10-2.1-15.5c1.1-5.4,3.9-10.2,7.8-13.5
		c4.2-3.4,9.2-4.8,14.1-3.8c4.9,1,9,4.1,11.6,8.9c2.4,4.5,3.2,10,2.1,15.5c-1.1,5.4-3.9,10.2-7.8,13.5
		C1121.5,1107.9,1117.7,1109.3,1113.8,1109.3z"/>
	<path class="st3" d="M1101.3,1122.6c-0.6,0-1.2-0.1-1.8-0.4c-1.8-1-2.5-3.3-1.6-5.1l7.1-13.3c1-1.8,3.3-2.5,5.1-1.6
		c1.8,1,2.5,3.3,1.6,5.1l-7.1,13.3C1104,1121.9,1102.7,1122.6,1101.3,1122.6z"/>
	<path class="st0" d="M1136.5,894.1c2.3,9.6,6.9,18.9,12.7,26c4.2,5.1,11.8,5.3,16.5,0.5c2.4-2.5,4.9-4.8,7.3-7
		c10.8-9.8,21.7-17.2,28.9-21.8c0.7-0.4,1.4-0.9,2-1.3c0.5-0.3,0.9-0.6,1.3-1c2.7-2.3,4.2-5.6,4.1-9.2
		c-0.8-16.6-12.1-32.3-28.3-36.8c-1.9-0.5-3.7-0.9-5.5-1.1c-18-2.4-33.8,8.2-39,27.2c-0.3,1.1-0.5,2.1-0.7,3.2
		C1134.4,879.7,1134.8,887,1136.5,894.1z"/>
	<path class="st20" d="M1149.1,903.2c-4.5-2.7-8.8-5.7-12.6-9c-1-4.3-1.6-8.7-1.6-13c0-2.8,0.2-5.5,0.7-8.1
		c7.3,10.2,16.4,15,27.2,17.1C1158,894.1,1153.4,898.5,1149.1,903.2z"/>
	<path class="st16" d="M1204.6,863.4c-2.4-4.6-5.6-8.7-9.4-12c2.7,2.1,5.2,4.5,7.3,7.2C1203.5,860,1204.3,861.7,1204.6,863.4z"/>
	<path class="st1" d="M1199.1,867.2c-4.4-5.1-11.8-12.3-19.9-15.1c-4.8-1.7-8.8-2.5-12.7-2.5c-6.9,0-13.3,2.6-22.6,7.6l8.9-10
		c1.6-0.8,3.3-1.6,5.2-2.3c4-1.4,8.2-2.1,12.3-2.1c8.9,0,17.7,3.1,24.8,8.6c3.9,3.4,7.1,7.5,9.4,12c0.1,0.4,0.1,0.8,0.2,1.3
		C1202.9,865.5,1201,866.3,1199.1,867.2z"/>
	<path class="st3" d="M1157.4,926.9L1157.4,926.9c-4.1-0.1-7.8-1.9-10.4-5c-5.7-7-10.2-15.9-12.7-25c-2.7-9.9-2.9-19.6-0.6-28
		c3-10.8,9.4-19.5,18.1-24.6c8.7-5.1,19.3-6.3,29.9-3.4c8.5,2.3,15.9,7.5,21.5,14.9c5.3,7.1,8.5,15.8,8.9,24.5
		c0.1,2.4-0.4,4.9-1.5,7.1c-0.7,1.4-2.4,1.9-3.8,1.2c-1.4-0.7-1.9-2.4-1.2-3.8c0.7-1.3,1-2.8,0.9-4.2c-0.8-16.1-11.6-30.1-26.3-34.2
		c-9.1-2.5-18.1-1.5-25.5,2.8c-7.4,4.3-13,11.9-15.5,21.3c-4,14.4,1.1,34.1,12.3,47.9c1.5,1.9,3.7,2.9,6.1,2.9
		c1.6,0,2.8,1.3,2.8,2.8C1160.2,925.7,1159,926.9,1157.4,926.9z"/>
	<path class="st0" d="M1394.5,894.1c-2.3,9.6-6.9,18.9-12.7,26c-4.2,5.1-11.8,5.3-16.5,0.5c-2.4-2.5-4.9-4.8-7.3-7
		c-10.8-9.8-21.7-17.2-28.9-21.8c-0.7-0.4-1.4-0.9-2-1.3c-0.5-0.3-0.9-0.6-1.3-1c-2.7-2.3-4.2-5.6-4.1-9.2
		c0.8-16.6,12.1-32.3,28.3-36.8c1.9-0.5,3.7-0.9,5.5-1.1c18-2.4,33.8,8.2,39,27.2c0.3,1.1,0.5,2.1,0.7,3.2
		C1396.7,879.7,1396.2,887,1394.5,894.1z"/>
	<path class="st20" d="M1380.9,903.8c-4.4-4.8-9-9.3-14-13.5c11.3-1.9,20.9-6.6,28.5-17.3c0.5,2.6,0.7,5.4,0.7,8.1
		c0,4.3-0.6,8.7-1.6,13C1390.4,897.7,1385.8,900.9,1380.9,903.8z"/>
	<path class="st16" d="M1326.4,863.4c0.3-1.7,1.1-3.4,2.2-4.8c2.1-2.7,4.6-5.1,7.3-7.2C1332,854.8,1328.8,858.9,1326.4,863.4z"/>
	<path class="st1" d="M1331.5,867.6c-1.8-0.8-3.5-1.6-5.3-2.4c0-0.6,0.1-1.2,0.2-1.8c2.4-4.6,5.6-8.7,9.4-12
		c7.1-5.5,15.9-8.6,24.8-8.6c4.1,0,8.3,0.7,12.3,2.1c1.8,0.7,3.5,1.4,5.2,2.3l8.9,10c-9.2-5-15.7-7.6-22.6-7.6
		c-3.9,0-7.9,0.8-12.7,2.5C1343.5,854.9,1335.9,862.5,1331.5,867.6z"/>
	<path class="st3" d="M1373.6,926.9c-1.5,0-2.8-1.2-2.8-2.8c0-1.6,1.2-2.8,2.8-2.8c2.4,0,4.5-1.1,6.1-2.9
		c11.2-13.8,16.3-33.5,12.3-47.9c-2.6-9.4-8.1-16.9-15.5-21.3c-7.4-4.3-16.5-5.3-25.5-2.8c-14.7,4.1-25.5,18.1-26.3,34.2
		c-0.1,1.5,0.3,2.9,0.9,4.2c0.7,1.4,0.2,3.1-1.2,3.8c-1.4,0.7-3.1,0.2-3.8-1.2c-1.1-2.2-1.6-4.6-1.5-7.1c0.4-8.7,3.6-17.4,8.9-24.5
		c5.6-7.4,13-12.5,21.5-14.9c10.5-2.9,21.2-1.7,29.9,3.4c8.7,5.1,15.2,13.8,18.1,24.6c2.3,8.3,2.1,18-0.6,28c-2.5,9.1-7,18-12.7,25
		C1381.4,925.1,1377.7,926.9,1373.6,926.9L1373.6,926.9z"/>
	<path class="st21" d="M1417.7,995.1c9.9,86.3-68.2,123-152.3,123c-84.1,0-161.4-36.6-152.3-123c9.6-90.5,83.4-138.6,152.3-138.6
		C1334.4,856.5,1407.3,904.6,1417.7,995.1z"/>
	<path class="st22" d="M1264.9,1114.4c-4.6,0-9.1-0.1-13.6-0.3c-1.8-0.2-3.6-0.3-5.4-0.3c-46.8-3.3-85.4-18.6-107.5-43.2
		c-14.7-16.4-22.3-36.5-22.6-60.1c15.9,55.5,69.4,88.9,148.4,88.9c84.5,0,136.7-35.8,150.1-94.5c1.1,25.8-6.3,47.8-22,65.4
		C1367,1098.2,1320.7,1114.4,1264.9,1114.4z"/>
	<path class="st3" d="M1264.9,860.3c-66.7,0-139.1,46.4-148.5,135.2c-3.2,30,4.2,55.3,21.9,75c25.1,27.9,71.2,43.9,126.6,43.9
		c55.8,0,102.2-16.1,127.2-44.2c17.6-19.7,24.7-44.8,21.3-74.6C1403.2,906.8,1331,860.3,1264.9,860.3z M1264.9,1121.9
		c-27.1,0-53-3.8-74.9-11.1c-24.2-8-43.4-19.9-57.3-35.3c-9.3-10.3-16-22.1-20-35.2c-4.3-13.8-5.5-29.2-3.8-45.6
		c9.9-93.2,86-141.9,156-141.9c17.8,0,35.6,3.1,52.7,9.1c17.6,6.2,33.7,15.3,47.8,27.1c15,12.4,27.3,27.4,36.6,44.5
		c10,18.4,16.4,39,18.9,61.2c1.9,16.3,0.7,31.6-3.4,45.4c-3.9,13-10.6,24.8-19.7,35.1c-13.9,15.5-33.2,27.5-57.6,35.6
		C1318.1,1118.1,1292.1,1121.9,1264.9,1121.9z"/>
	<path class="st3" d="M1284.9,1032.7c-0.5,3.1-2.3,12.5-5.7,20.6c-3.1,7.1-7.5,13.3-13.6,13.3c-6.2,0-10.7-6.4-13.9-13.6
		c-3.3-7.6-5.1-16.2-5.8-19.7C1255.4,1038.2,1270.3,1042.6,1284.9,1032.7z"/>
	<path class="st23" d="M1279.2,1053.3c-3.1,7.1-7.5,13.3-13.6,13.3c-6.2,0-10.7-6.4-13.9-13.6
		C1258.5,1049.9,1269.1,1047.2,1279.2,1053.3z"/>
	<path class="st3" d="M1265.5,1041.5c-4.5,0-8.6-0.7-12.2-1.8c-11.8-3.4-19.6-10.5-19.9-10.8c-1.3-1.2-1.4-3.3-0.2-4.6
		c1.2-1.3,3.3-1.4,4.6-0.2c0.2,0.1,7.2,6.5,17.6,9.4c13.6,3.8,26.3,0.2,37.8-10.9c1.3-1.2,3.3-1.2,4.6,0.1c1.2,1.3,1.2,3.3-0.1,4.6
		C1286.4,1038.2,1275.1,1041.5,1265.5,1041.5z"/>
	<path class="st3" d="M1265.4,1069.9c-4.3,0-8.3-2.1-11.7-6.4c-2.4-3-4.6-7.2-6.5-12.3c-3.1-8.5-4.3-16.8-4.4-17.2
		c-0.3-1.8,1-3.4,2.7-3.7c1.8-0.3,3.4,1,3.7,2.7c0,0.1,1.2,8.1,4.1,16c2,5.4,6.1,14.3,12,14.3c5.9,0,10.1-9.1,12.1-14.5
		c2.9-7.9,4.1-15.9,4.1-16c0.3-1.8,1.9-3,3.7-2.7c1.8,0.3,3,1.9,2.7,3.7c-0.1,0.4-1.3,8.8-4.4,17.3c-1.9,5.2-4.1,9.3-6.5,12.4
		C1273.6,1067.7,1269.7,1069.9,1265.4,1069.9z"/>
	<path class="st3" d="M1281.6,1009.3c0,4.9-7.2,8.8-16.2,8.8c-8.9,0-16.2-4-16.2-8.8s7.2-8.8,16.2-8.8
		C1274.4,1000.4,1281.6,1004.4,1281.6,1009.3z"/>
	<path class="st3" d="M1265.4,1041.5c-1.8,0-3.2-1.4-3.2-3.2v-24.6c0-1.8,1.5-3.2,3.2-3.2c1.8,0,3.2,1.5,3.2,3.2v24.6
		C1268.6,1040,1267.2,1041.5,1265.4,1041.5z"/>
	<path class="st0" d="M1167.8,977.4c-10.4,16.3-14.2,43,4.6,54.2c17.5,10.5,40,0.5,52.3-23.8c12.3-24.2,7.1-56.2-8.9-61.3
		C1201.1,941.9,1182.4,954.5,1167.8,977.4z"/>
	<path class="st21" d="M1210.2,997.9c-0.3-0.3-0.5-0.6-0.8-0.8l-0.8-0.9c-0.5-0.6-1-1.1-1.5-1.7c-1-1.1-2-2.1-3-3.1
		c-2-1.9-4.1-3.3-6.2-3.9c-1-0.3-2.1-0.4-3.2-0.3c-1.1,0.1-2.3,0.4-3.6,0.9c-1.2,0.5-2.5,1.2-3.7,1.9c-1.3,0.8-2.5,1.6-3.8,2.4l0,0
		c-0.5,0.3-1.2,0.2-1.5-0.3c-0.2-0.3-0.2-0.8-0.1-1.1c0.7-1.5,1.7-2.8,2.7-4.1c1.1-1.3,2.3-2.5,3.8-3.5c0.4-0.3,0.7-0.5,1.2-0.7
		l0.6-0.3l0.6-0.3c0.9-0.4,1.8-0.7,2.7-0.9c1.9-0.4,4-0.4,6,0.1c2,0.5,3.7,1.4,5.2,2.5c1.5,1.1,2.7,2.5,3.7,3.9
		c1,1.4,1.8,2.9,2.4,4.5c0.3,0.8,0.6,1.6,0.8,2.4c0.1,0.4,0.2,0.8,0.3,1.2c0.1,0.4,0.1,0.8,0.2,1.3c0.1,0.6-0.4,1.2-1,1.2
		C1210.8,998.3,1210.5,998.2,1210.2,997.9L1210.2,997.9z"/>
	<path class="st0" d="M1363.2,977.4c10.4,16.3,14.2,43-4.6,54.2c-17.5,10.5-40,0.5-52.3-23.8c-12.3-24.2-7.1-56.2,8.9-61.3
		C1329.9,941.9,1348.6,954.5,1363.2,977.4z"/>
	<path class="st21" d="M1318.8,997.1c0-0.5,0.1-0.9,0.2-1.3c0.1-0.4,0.2-0.8,0.3-1.2c0.2-0.8,0.5-1.6,0.8-2.4
		c0.6-1.6,1.4-3.1,2.4-4.5c1-1.4,2.2-2.7,3.7-3.9c1.5-1.1,3.2-2.1,5.2-2.5c1.9-0.5,4.1-0.5,6-0.1c1,0.2,1.9,0.5,2.7,0.9l0.6,0.3
		l0.6,0.3c0.4,0.2,0.8,0.5,1.2,0.7c1.5,1,2.7,2.2,3.8,3.5c1.1,1.3,2,2.7,2.7,4.1c0.3,0.6,0.1,1.2-0.5,1.5c-0.4,0.2-0.8,0.1-1.1-0.1
		l0,0c-1.3-0.8-2.6-1.7-3.8-2.4c-1.3-0.8-2.5-1.4-3.7-1.9c-1.2-0.5-2.4-0.8-3.6-0.9c-1.1-0.1-2.2,0-3.2,0.3
		c-2.1,0.6-4.2,2.1-6.2,3.9c-1,0.9-2,2-3,3.1c-0.5,0.5-1,1.1-1.5,1.7l-0.8,0.9c-0.3,0.3-0.5,0.6-0.8,0.8l-0.1,0.1
		c-0.4,0.4-1.1,0.4-1.6,0C1318.9,997.7,1318.8,997.4,1318.8,997.1z"/>
	<path class="st0" d="M1283.8,1137.4c0-24.1-36.1-28.4-81.6-19.3c-18.8,3.8-35.2,1.6-49-0.5c-19.7-3-34.2-6-43,8
		c-14.9,23.8,23.7,52.8,77.8,52.8C1242.1,1178.3,1283.8,1163.6,1283.8,1137.4z"/>
	<path class="st10" d="M1107.2,1138.8c-0.1-0.7-0.1-1.4-0.1-2.2C1107,1137.4,1107.1,1138.1,1107.2,1138.8
		C1107.2,1138.8,1107.2,1138.8,1107.2,1138.8z"/>
	<path class="st1" d="M1107.2,1138.8c-0.1-0.7-0.1-1.4-0.2-2.1c0-3.7,1-7.3,3.2-10.9c5.1-8.1,12.1-10.5,20.9-10.5
		c6.4,0,13.8,1.3,22.1,2.5s17.5,2.5,27.6,2.5c6.7,0,13.9-0.6,21.4-2.1c14.3-2.9,27.7-4.4,39.4-4.4c22.3,0,38.1,5.6,41.5,18.3
		c-0.6,1.3-1.3,2.5-2.2,3.7c-5.4-9.9-20.1-14.4-40-14.4c-11.6,0-25,1.5-39.4,4.4c-7.5,1.5-14.6,2.1-21.4,2.1
		c-10.1,0-19.3-1.3-27.6-2.5c-8.3-1.3-15.7-2.5-22.1-2.5c-7.9,0-14.3,1.9-19.2,8c-0.4-0.8-0.8-1.5-1.1-2.3c-0.9,2.1-1.4,4.2-1.6,6.3
		C1108.1,1136.2,1107.6,1137.5,1107.2,1138.8z"/>
	<path class="st8" d="M1189.8,1178.3c-0.2,0-0.5,0-0.7,0c48.3-0.2,86.6-12.2,93.6-33.7c0.6,0,1.2,0,1.7-0.1
		C1277.4,1166.3,1238.6,1178.3,1189.8,1178.3z"/>
	<path class="st24" d="M1282.7,1144.7c0.2-0.5,0.3-1,0.4-1.5c0,0.1,0,0.1,0,0.2c0.4-1.8,0.7-3.6,0.7-5.5c0-0.2,0-0.3,0-0.5v-0.1
		c0.6,0,1.1,0,1.7,0h0v0.1c0,2.5-0.4,4.9-1.1,7.2C1283.8,1144.6,1283.3,1144.7,1282.7,1144.7z"/>
	<path class="st25" d="M1285.6,1137.3L1285.6,1137.3c-0.6,0-1.1,0-1.7,0c0-1.8-0.2-3.6-0.6-5.2c0.4-0.7,0.7-1.5,1-2.3
		C1285.1,1132.1,1285.5,1134.6,1285.6,1137.3z"/>
	<path class="st4" d="M1189,1178.3c-46.7-0.2-81.8-22.1-80.3-43.4c0.3-0.5,0.6-1,0.9-1.5c0.6-0.9,1.1-1.7,1.8-2.5
		c9,17.1,39.8,31.9,78.4,31.9c43.5,0,79-9.6,91.2-26.9c1.2,2.2,1.9,4.6,2.2,7.3c-0.1,0.5-0.3,1-0.4,1.5
		C1275.7,1166.1,1237.4,1178.2,1189,1178.3z M1283.8,1137.9v-0.2c0-1.9-0.2-3.7-0.7-5.4c0,0,0-0.1,0-0.1c0.4,1.6,0.6,3.3,0.6,5.2
		v0.1C1283.8,1137.6,1283.8,1137.7,1283.8,1137.9z"/>
	<path class="st26" d="M1283.1,1143.3c0-0.1,0-0.1,0-0.2c0.4-1.7,0.7-3.5,0.7-5.3C1283.8,1139.8,1283.6,1141.6,1283.1,1143.3z"/>
	<path class="st5" d="M1283.1,1143.2c-0.2-2.7-1-5.1-2.2-7.3c0.8-1.2,1.6-2.4,2.2-3.7c0.5,1.7,0.7,3.5,0.7,5.4v0.2
		C1283.8,1139.7,1283.6,1141.5,1283.1,1143.2z M1108.8,1134.9c0.2-2.1,0.7-4.2,1.6-6.3c0.3,0.8,0.7,1.5,1.1,2.3
		c-0.6,0.8-1.2,1.6-1.8,2.5C1109.3,1133.9,1109,1134.4,1108.8,1134.9z"/>
	<path class="st3" d="M1131.1,1118.8c-8.1,0-13.5,2.2-17.7,8.7c-3.5,5.6-3.5,11.5-0.2,17.6c8.1,14.6,36.4,29.4,74.8,29.4
		c26.5,0,50.2-3.7,66.7-10.4c11.5-4.7,25.3-13.1,25.3-26.8c0-5-1.9-9-5.7-12.2c-5.4-4.4-14.8-7.1-27.2-7.7
		c-12.3-0.6-27.5,0.9-44.2,4.2c-20.7,4.1-38.7,1.4-53.1-0.9C1142.4,1119.7,1136.2,1118.8,1131.1,1118.8z M1188,1182.1
		c-18.6,0-36.4-3.3-51.3-9.7c-14.3-6-24.9-14.4-30-23.7c-2.3-4.1-3.4-8.4-3.4-12.6c0-4.4,1.3-8.7,3.8-12.7c4.5-7.1,10.7-11,19.2-12
		c7.2-0.8,15.4,0.4,24.9,1.9c14.6,2.3,31.1,4.8,50.4,0.9c17.5-3.5,32.9-5,46-4.3c14.2,0.7,24.9,3.8,31.7,9.4
		c5.6,4.6,8.4,10.7,8.4,18c0,14.2-10.4,25.8-30,33.8C1240,1178.3,1215.9,1182.1,1188,1182.1z"/>
	<path class="st0" d="M1257.5,1213.9c-7-19.7-44.8-33-68.4-6.8c0,0-19.4-14.5-31.3-3.9c-11.8,10.6,2.6,35.3,20.1,52.9
		C1195.5,1273.8,1275.3,1264.1,1257.5,1213.9z"/>
	<path class="st27" d="M1193.5,1202.9C1193.5,1202.9,1193.5,1202.9,1193.5,1202.9c9-7.8,19.1-10.8,28.2-10.8
		c7.2,0,13.7,1.9,18.5,4.7c-5.7-2.6-12.2-4.2-19-4.2C1211.8,1192.6,1202,1195.6,1193.5,1202.9z"/>
	<path class="st28" d="M1189.1,1207.2c1.4-1.6,2.9-3,4.4-4.3c0,0,0,0,0,0C1192,1204.2,1190.5,1205.6,1189.1,1207.2z"/>
	<path class="st16" d="M1157,1204.1C1157,1204.1,1157,1204.1,1157,1204.1C1157,1204.1,1157,1204.1,1157,1204.1z M1157,1204.1
		c0.3-0.3,0.5-0.5,0.8-0.8c3.2-2.9,6.9-3.9,10.6-3.9c-3.7,0-7.5,1-10.6,3.9C1157.5,1203.5,1157.3,1203.8,1157,1204.1z"/>
	<path class="st1" d="M1153.9,1217.8c-0.3-1.6-0.4-3.2-0.4-4.6c0,1.4,0.1,3,0.4,4.5C1153.9,1217.7,1153.9,1217.8,1153.9,1217.8z
		 M1189.1,1214.8c0,0-10.4-7.8-20.6-7.8c-3.7,0-7.5,1-10.6,3.9c-1.1,1-2,2.2-2.7,3.4c-0.5-1.4-0.9-2.9-1.2-4.4
		c0.5-2.2,1.5-4.1,3.1-5.8c0,0,0,0,0,0c0,0,0,0,0,0c0.3-0.3,0.5-0.5,0.8-0.8c3.2-2.9,6.9-3.9,10.6-3.9c10.2,0,20.6,7.8,20.6,7.8
		c1.4-1.6,2.9-3,4.4-4.3c8.5-7.3,18.3-10.3,27.7-10.3c6.8,0,13.3,1.6,19,4.2c0,0,0,0,0,0c1.1,0.6,1,0.8,0,0.8
		c-0.7,0-1.9-0.1-3.5-0.2c-1.6-0.1-3.5-0.2-5.8-0.2C1220.3,1197.2,1203,1199.5,1189.1,1214.8z"/>
	<path class="st24" d="M1260,1225.3c0-0.6-0.1-1.2-0.2-1.8c0,0,0,0,0,0C1259.9,1224.1,1260,1224.7,1260,1225.3z"/>
	<path class="st17" d="M1153.6,1212.3c0.1-0.8,0.2-1.7,0.4-2.5c0,0,0,0.1,0,0.1C1153.8,1210.7,1153.6,1211.5,1153.6,1212.3z"/>
	<path class="st4" d="M1206.3,1264.1c-12.2,0-23.1-2.8-28.3-8.1c-11.7-11.7-21.9-26.5-24-38.3c0.3-1.2,0.7-2.3,1.2-3.4
		c3.5,9.4,12,16.5,23.5,25c7,5.2,19.8,8.8,33.5,8.8c18.4,0,38.4-6.6,47.7-24.7c0.1,0.6,0.1,1.2,0.2,1.8
		C1261.7,1252.2,1231.3,1264.1,1206.3,1264.1z M1153.5,1213.1c0-0.3,0-0.6,0-0.9c0.1-0.8,0.2-1.6,0.4-2.4c0,0,0,0,0,0
		C1153.7,1210.9,1153.6,1212,1153.5,1213.1z"/>
	<path class="st5" d="M1153.9,1217.7c-0.3-1.6-0.4-3.1-0.4-4.5c0-1.1,0.2-2.2,0.4-3.2c0.3,1.5,0.7,3,1.2,4.4
		C1154.6,1215.4,1154.2,1216.5,1153.9,1217.7z"/>
	<path class="st3" d="M1206.3,1268.1c-3,0-5.9-0.2-8.8-0.5c-7-0.8-16.5-3-22.2-8.7c-12.6-12.7-25.9-31.3-25.5-45.7
		c0.1-5.2,2-9.4,5.6-12.6c5.9-5.3,14.2-6.3,23.9-2.8c3.8,1.4,7.2,3.2,9.4,4.6c5.6-5.5,12.2-9.4,19.5-11.6c1.8-0.7,16-5.3,33.7,2.6
		c1.9,0.9,2.8,3.1,1.9,5s-3.1,2.8-5,1.9c-6.6-2.9-13.3-4.2-19.9-3.9c-5,0.3-8.1,1.4-8.2,1.5c-0.1,0-0.2,0.1-0.3,0.1
		c-7,2-13.2,6-18.4,11.8c-1.3,1.4-3.5,1.7-5.1,0.5c-0.2-0.1-17.1-12.5-26.5-4.1c-2,1.8-3,4.1-3.1,7.2c-0.1,5,2.1,11.6,6.6,19
		c4.1,6.9,10.1,14.5,16.8,21.2c7,7,26.9,9.1,44.5,4.7c15.9-4,26.9-12.4,30.1-23c0.6-2,2.7-3.1,4.7-2.5c2,0.6,3.1,2.7,2.5,4.7
		c-2.2,7.2-6.8,13.4-13.6,18.4c-5.9,4.3-13.4,7.7-21.9,9.8C1220.3,1267.2,1213.2,1268.1,1206.3,1268.1z"/>
	<path class="st21" d="M1135.1,1137.3c0,5.8-4.7,10.6-10.6,10.6s-10.6-4.7-10.6-10.6c0-5.8,4.7-10.6,10.6-10.6
		S1135.1,1131.5,1135.1,1137.3z"/>
	<path class="st3" d="M1124.6,1130.5c-3.7,0-6.8,3-6.8,6.8c0,3.7,3,6.8,6.8,6.8c3.7,0,6.8-3,6.8-6.8
		C1131.4,1133.5,1128.3,1130.5,1124.6,1130.5z M1124.6,1151.6c-7.9,0-14.3-6.4-14.3-14.3c0-7.9,6.4-14.3,14.3-14.3
		c7.9,0,14.3,6.4,14.3,14.3C1138.9,1145.2,1132.5,1151.6,1124.6,1151.6z"/>
</g>
<image style="overflow:visible;" width="626" height="626" xlink:href="../../../../../../../Users/Rafael SSD/Downloads/panda download apagar peois/china.png"  transform="matrix(0.8429 0 0 0.8429 230.1971 222.4782)">
</image>
<image style="overflow:visible;" width="397" height="206" xlink:href="../../../../../../../Users/Rafael SSD/Downloads/panda download apagar peois/chapeu.png"  transform="matrix(1.291 0 0 1.291 64.6644 44.037)">
</image>
</svg>
