<?xml version="1.0" encoding="utf-8"?>
<!-- Generator: Adobe Illustrator 22.0.0, SVG Export Plug-In . SVG Version: 6.00 Build 0)  -->
<svg version="1.1" id="Layer_1" xmlns:serif="http://www.serif.com/"
	 xmlns="http://www.w3.org/2000/svg" xmlns:xlink="http://www.w3.org/1999/xlink" x="0px" y="0px" viewBox="0 0 612 792"
	 style="enable-background:new 0 0 612 792;" xml:space="preserve">
<style type="text/css">
	.st0{opacity:0.5;}
	.st1{fill:#83B11B;}
	.st2{opacity:0.35;}
	.st3{fill:#1D1D1D;}
	.st4{opacity:0.3;}
	.st5{fill:#FFFFFF;}
	.st6{fill:#575B5A;}
	.st7{opacity:0.6;}
	.st8{fill:#FFBDC2;}
	.st9{fill:#6B184E;}
	.st10{fill:#FC7E81;}
	.st11{fill:none;stroke:#1D1D1D;stroke-width:33.3256;stroke-linecap:round;stroke-miterlimit:10;}
	.st12{fill:#FC9D9D;}
	.st13{fill:#E25963;}
	.st14{fill:#16F9A7;}
</style>
<g>
	<g>
		<g class="st0">
			<g>
				<g>
					<g>
						<path class="st1" d="M393.5,148.6c13,29.7,8.4,47.1,8.4,47.1s-15.9-8.5-28.9-38.2S354.9,88,354.9,88S380.5,118.8,393.5,148.6z
							"/>
					</g>
					<g class="st2">
						<path d="M402.3,196.1c0,0-16.5-8.7-30-39.5c-13.5-30.8-19-72-19-72s5.1,6.1,11.9,15.5c2.2,12.5,7,35.6,15.3,54.3
							c8.1,18.5,17.5,27.9,22.6,32.1C403.2,192.8,402.3,196.1,402.3,196.1z"/>
					</g>
					<g>
						<path class="st3" d="M402.6,199.4c-0.4,0-0.9-0.1-1.2-0.3c-0.7-0.4-17.5-9.5-31.2-40.8C356.6,127.5,351,86,351,85.5
							c-0.2-1.2,0.5-2.3,1.6-2.8c1.1-0.5,2.4-0.2,3.1,0.7c0.3,0.3,27.1,32.5,40.6,63.3l0,0c13.7,31.3,9.1,49.8,8.9,50.6
							c-0.2,0.8-0.8,1.4-1.5,1.8C403.3,199.3,403,199.4,402.6,199.4z M357.9,94.8c2.5,14.1,7.9,40.3,17.2,61.3
							c9.4,21.4,20.2,31.8,25.5,36c0.5-6.7,0.2-21.8-9.2-43.1C382.1,127.9,366.5,106.2,357.9,94.8z"/>
					</g>
					<g>
						<path class="st1" d="M367.2,180.3c22.5,10.4,28.7,22.7,28.7,22.7s-13.4,3.2-35.9-7.2c-22.5-10.4-45.6-30.6-45.6-30.6
							S344.7,169.9,367.2,180.3z"/>
					</g>
					<g class="st2">
						<path d="M396.3,203c0,0-13.8,3.4-37.2-7.4c-23.3-10.8-47.3-31.6-47.3-31.6s6,0.9,14.7,2.8c7.6,6,22,16.8,36.2,23.3
							c14,6.5,24.1,7.1,29.1,6.9C395.1,200.7,396.3,203,396.3,203z"/>
					</g>
					<g>
						<path class="st3" d="M390.9,206.4c-6.5,0-17.6-1.3-32.4-8.1c-23.4-10.8-46.9-31.1-47.9-32c-0.9-0.8-1.2-2-0.7-3.1
							c0.5-1.1,1.6-1.7,2.8-1.5c1.3,0.2,32,4.9,55.4,15.7c23.9,11,30.7,24.1,31,24.7c0.4,0.7,0.4,1.6,0,2.3c-0.3,0.7-1,1.3-1.8,1.5
							C397.2,205.9,394.9,206.4,390.9,206.4z M322,168.8c8.9,7,24,17.9,38.7,24.6c14.9,6.9,25.7,7.8,31.3,7.6
							c-3.5-4.3-11.2-12-26.1-18.9C351.2,175.4,333.1,171,322,168.8z"/>
					</g>
				</g>
				<g>
					<g>
						<path class="st1" d="M479.9,286.5c-30.3-11.7-47.5-6.4-47.5-6.4s9.1,15.5,39.4,27.2c30.3,11.7,70.2,15.1,70.2,15.1
							S510.2,298.2,479.9,286.5z"/>
					</g>
					<g class="st2">
						<path d="M432,279.7c0,0,9.4,16.1,40.8,28.3c31.3,12.2,72.7,15.9,72.7,15.9s-6.3-4.8-16-11.3c-12.5-1.7-35.9-5.5-54.9-12.9
							c-18.8-7.3-28.7-16.3-33-21.2C435.3,278.6,432,279.7,432,279.7z"/>
					</g>
					<g>
						<path class="st3" d="M544.9,326.3c-0.1,0-0.2,0-0.2,0c-0.4,0-42.1-3.9-73.5-16.1c-31.8-12.4-41.7-28.7-42.1-29.4
							c-0.4-0.7-0.5-1.6-0.2-2.3c0.3-0.8,0.9-1.3,1.7-1.6c0.8-0.2,19.1-5.6,50.9,6.8l0,0c31.3,12.2,64.6,37.6,65,37.8
							c0.9,0.7,1.3,2,0.9,3.1C547,325.6,546,326.3,544.9,326.3z M436.2,281.3c4.4,5.1,15.3,15.5,37,24c21.4,8.3,47.8,12.7,61.9,14.5
							c-11.7-8.2-34.1-22.8-55.5-31.2C457.9,280.2,442.9,280.4,436.2,281.3z"/>
					</g>
					<g>
						<path class="st1" d="M475.7,252.3c-27.1,5.9-36.9,17.8-36.9,17.8s13.8,6.8,40.9,0.9c27.1-5.9,57.3-22.2,57.3-22.2
							S502.8,246.5,475.7,252.3z"/>
					</g>
					<g class="st2">
						<path d="M438.3,270c0,0,14.3,7.1,42.4,1c28.1-6,59.4-22.9,59.4-22.9s-6.8-0.5-16.7-0.5c-9.7,4.7-28.2,12.9-45.3,16.6
							c-16.9,3.6-28.1,1.9-33.5,0.4C440.2,267.7,438.3,270,438.3,270z"/>
					</g>
					<g>
						<path class="st3" d="M458.6,276.2c-14.2,0-21.6-3.5-22.1-3.8c-0.7-0.4-1.3-1-1.4-1.8c-0.2-0.8,0-1.6,0.5-2.3
							c0.4-0.5,11.1-13.1,39.8-19.2c28.2-6,62.8-3.6,64.3-3.5c1.2,0.1,2.2,0.9,2.4,2.1c0.2,1.2-0.3,2.3-1.3,2.9
							c-1.3,0.7-32,17.1-60.1,23.1C472.1,275.6,464.8,276.2,458.6,276.2z M442.8,269c5.8,1.6,18.2,3.5,36.8-0.5
							c18.3-3.9,38.3-12.6,49.5-18c-12.5-0.3-34.2-0.1-52.6,3.9C458,258.3,447.5,265.2,442.8,269z"/>
					</g>
				</g>
				<g>
					<g>
						<path class="st1" d="M522.2,179.5c-27.7-6.1-41.9,0.8-41.9,0.8s9.9,12.2,37.7,18.3c27.7,6.1,62.7,3.8,62.7,3.8
							S550,185.6,522.2,179.5z"/>
					</g>
					<g class="st2">
						<path d="M480,179.9c0,0,10.3,12.7,39,19.1c28.7,6.4,65,4.1,65,4.1s-6.1-3.3-15.3-7.6c-11.1,0.2-31.7,0-49.2-3.9
							c-17.2-3.8-26.9-10.3-31.3-13.9C482.7,178.6,480,179.9,480,179.9z"/>
					</g>
					<g>
						<path class="st3" d="M567.5,206c-13.3,0-32.6-0.8-49.6-4.6c-29.3-6.5-40-19.4-40.5-20c-0.5-0.6-0.7-1.5-0.5-2.3
							c0.2-0.8,0.7-1.5,1.4-1.8c0.6-0.3,15.8-7.4,45.1-0.9c0,0,0,0,0,0c28.7,6.4,59.9,23.4,61.3,24.1c1,0.6,1.6,1.8,1.3,2.9
							c-0.3,1.2-1.2,2-2.4,2.1C582.9,205.6,576.6,206,567.5,206z M484.5,180.9c4.7,3.9,15.4,11.1,34.5,15.3
							c18.8,4.2,41.3,4.6,54,4.4c-11.5-5.6-31.9-14.8-50.8-19v0C503.1,177.4,490.4,179.3,484.5,180.9z"/>
					</g>
					<g>
						<path class="st1" d="M514.1,150.5c-22.7,8.7-29.5,20.2-29.5,20.2s12.8,4,35.5-4.6c22.7-8.7,46.6-26.8,46.6-26.8
							S536.7,141.8,514.1,150.5z"/>
					</g>
					<g class="st2">
						<path d="M484.1,170.7c0,0,13.3,4.2,36.8-4.7c23.5-8.9,48.3-27.6,48.3-27.6s-5.9,0.5-14.5,1.8c-7.8,5.4-22.7,14.9-37,20.3
							c-14.1,5.4-24.1,5.3-28.9,4.8C485.4,168.5,484.1,170.7,484.1,170.7z"/>
					</g>
					<g>
						<path class="st3" d="M492.7,174.5c-6.2,0-9.6-1-9.9-1.1c-0.8-0.2-1.4-0.8-1.7-1.6c-0.3-0.8-0.2-1.6,0.2-2.3
							c0.3-0.5,7.9-12.9,32-22c23.6-9,53.9-11.5,55.2-11.6c1.2-0.1,2.3,0.6,2.7,1.7c0.4,1.1,0.1,2.4-0.9,3.1c-1,0.8-25.4,19-49,28
							C509,173.4,499.3,174.5,492.7,174.5z M488.5,169c5.4,0.5,16.1,0.3,31-5.3c14.7-5.6,30-15.1,39.2-21.3
							c-11,1.5-28.8,4.5-43.5,10.1l0,0C500.3,158.1,492.2,165,488.5,169z"/>
					</g>
				</g>
				<g>
					<g>
						<path class="st1" d="M310,588.1c0.4-3.8,0.6-5.6,1.1-9.4c4-33,7.9-65.9,11.7-98.9c0.5-4.7,0.8-7,1.4-11.7
							c0.3-2.8,2.9-4.7,5.6-4.2c10.9,1.9,21.9,3.8,32.8,5.6c1.2,0.2,2.2,0.9,2.9,1.7c0.8,1.1,1.2,2.5,0.9,3.9
							c-1.1,4.5-1.6,6.8-2.6,11.3c-6.7,31-10.3,62.1-11,93.8c0,4,0,5.9,0,9.9c0,2.7-2.3,4.8-5,4.7c-11.1-0.5-22.2-1-33.3-1.4
							c-0.4,0-0.8-0.1-1.2-0.2C311.2,592.5,309.8,590.4,310,588.1z"/>
					</g>
					<g class="st4">
						<path d="M310,588.1c0.4-3.8,0.6-5.6,1.1-9.4c4-33,7.9-65.9,11.7-98.9c0.5-4.7,0.8-7,1.4-11.7c0.3-2.8,2.9-4.7,5.6-4.2
							c10.9,1.9,21.9,3.8,32.8,5.6c1.2,0.2,2.2,0.9,2.9,1.7c-0.6,2.7-1,4-1.6,6.6c-0.5,2.3-1.1,4.6-1.6,6.8
							c-7.1-1.1-10.6-1.7-17.7-2.8c-6.5-0.9-12.3,3.7-13,10c-0.1,0.9-0.1,1.3-0.2,2.2c-2.8,27.1-6,54.3-9.2,81.2
							c-0.8,6.3,3.8,12.1,10.4,12.5c6.3,0.3,12.6,0.6,18.9,0.9c0,0.3,0,0.4,0,0.7c0,2.9-2.5,5.2-5.4,5.1c-11-0.5-21.9-1-32.9-1.4
							C311.2,592.5,309.8,590.4,310,588.1z"/>
					</g>
					<g>
						<path class="st3" d="M348,598.4c-0.1,0-0.2,0-0.4,0l-33.3-1.4c-2.3-0.1-4.4-1.1-5.9-2.9c-1.5-1.8-2.2-4.1-2-6.4
							c0.4-3.8,0.6-5.7,1.1-9.4c4.1-33.9,8-67.1,11.7-98.9c0.5-4.7,0.8-7,1.4-11.7c0.3-2.3,1.5-4.4,3.4-5.7c1.9-1.4,4.1-1.9,6.4-1.5
							l0,0l32.8,5.6c2.3,0.4,4.3,1.7,5.5,3.6c1.2,1.9,1.6,4.2,1.1,6.3c-1.1,4.5-1.6,6.7-2.6,11.3c-6.7,30.9-10.2,61.4-10.9,93.1
							c0,3.9-0.1,5.9-0.1,9.8c0,2.3-0.9,4.4-2.5,5.9C352.3,597.6,350.2,598.4,348,598.4z M329,467.3c-0.3,0-0.6,0.2-0.7,0.3
							c-0.2,0.1-0.5,0.4-0.5,0.9c-0.6,4.6-0.9,7-1.4,11.6c-3.6,31.8-7.6,65.1-11.7,98.9c-0.5,3.7-0.7,5.6-1.1,9.4
							c-0.1,0.5,0.2,0.9,0.3,1c0.1,0.2,0.4,0.4,0.8,0.4l33.3,1.4c0.5,0,0.8-0.2,1-0.4c0.2-0.2,0.4-0.4,0.4-0.8c0-4,0-6,0.1-9.9
							c0.6-32.2,4.3-63.1,11-94.5c1-4.6,1.6-6.8,2.6-11.4c0.1-0.4,0-0.6-0.1-0.8c-0.1-0.2-0.3-0.4-0.8-0.5l-32.8-5.6
							C329.2,467.3,329.1,467.3,329,467.3z"/>
					</g>
					<g class="st2">
						<path class="st5" d="M341.2,557.2c1.1,0.1,1.6,0.1,2.7,0.2c1.4,0.1,2.4,1.3,2.3,2.7c-0.4,5.7-0.6,8.6-1,14.4
							c-0.1,1.4-1.3,2.4-2.7,2.4c-1.1-0.1-1.6-0.1-2.7-0.1c-1.4-0.1-2.5-1.3-2.4-2.6c0.4-5.8,0.5-8.7,1-14.5
							C338.6,558.1,339.8,557.1,341.2,557.2z"/>
					</g>
					<g class="st2">
						<path class="st5" d="M346,510.6c1.1,0.1,1.6,0.2,2.7,0.3c1.4,0.2,2.4,1.4,2.2,2.8c-1.4,11.3-2.6,22.6-3.6,33.9
							c-0.1,1.4-1.3,2.4-2.7,2.3c-1.1-0.1-1.6-0.1-2.7-0.2c-1.4-0.1-2.4-1.3-2.3-2.7c1.1-11.4,2.3-22.8,3.7-34.2
							C343.3,511.4,344.6,510.4,346,510.6z"/>
					</g>
					<g>
						<path class="st1" d="M326.5,453.1c0.9-3.7,1.4-5.5,2.4-9.1c8.4-32,16.8-64.1,25-96.2c1.2-4.6,1.8-6.8,3-11.4
							c0.7-2.7,3.5-4.3,6.1-3.4c10.6,3.3,21.2,6.6,31.7,9.9c1.2,0.4,2.1,1.1,2.7,2.1c0.7,1.2,0.9,2.6,0.3,4
							c-1.7,4.3-2.5,6.5-4.1,10.8c-10.8,29.8-18.6,60-23.5,91.2c-0.6,3.9-0.9,5.9-1.4,9.8c-0.4,2.6-2.9,4.5-5.6,4
							c-10.9-1.9-21.8-3.9-32.8-5.8c-0.4-0.1-0.8-0.2-1.2-0.4C327,457.7,325.9,455.4,326.5,453.1z"/>
					</g>
					<g class="st4">
						<path d="M326.5,453.1c0.9-3.7,1.4-5.5,2.4-9.1c8.4-32,16.8-64.1,25-96.2c1.2-4.6,1.8-6.8,3-11.4c0.7-2.7,3.5-4.3,6.1-3.4
							c10.6,3.3,21.2,6.6,31.7,9.9c1.2,0.4,2.1,1.1,2.7,2.1c-1,2.5-1.5,3.8-2.5,6.4c-0.8,2.2-1.7,4.4-2.5,6.6c-6.9-2-10.3-3-17.2-5
							c-6.3-1.7-12.6,2.1-14.2,8.2c-0.2,0.9-0.3,1.3-0.5,2.2c-6.4,26.4-13.3,52.8-20.1,78.9c-1.6,6.1,2.2,12.4,8.6,13.7
							c6.2,1.1,12.4,2.3,18.6,3.4c0,0.3-0.1,0.4-0.1,0.7c-0.4,2.9-3.2,4.8-6,4.3c-10.8-1.9-21.6-3.8-32.4-5.7
							C327,457.7,325.9,455.4,326.5,453.1z"/>
					</g>
					<g>
						<path class="st3" d="M363.8,468.4c-0.5,0-1,0-1.5-0.1l-32.8-5.8c-2.2-0.4-4.2-1.7-5.5-3.6c-1.3-1.9-1.6-4.3-1.1-6.6
							c0.9-3.7,1.4-5.5,2.4-9.2c8.5-32.2,16.9-64.5,25-96.1c1.2-4.6,1.8-6.8,3-11.4c0.6-2.2,2.1-4.1,4.1-5.2c2-1.1,4.3-1.3,6.5-0.7
							l31.7,9.9c2.2,0.7,4,2.2,5,4.3c1,2,1.1,4.4,0.3,6.4c-1.7,4.3-2.5,6.5-4.1,10.8c-10.8,29.7-18.4,59.3-23.4,90.5
							c-0.6,3.9-0.8,5.8-1.4,9.7c-0.3,2.2-1.5,4.2-3.3,5.5C367.3,467.8,365.5,468.4,363.8,468.4z M361.5,336.4
							c-0.3,0-0.5,0.1-0.6,0.2c-0.2,0.1-0.5,0.4-0.7,0.9c-1.2,4.5-1.8,6.8-3,11.3c-8.1,31.7-16.5,64-25,96.2c-1,3.6-1.4,5.4-2.4,9.1
							c-0.1,0.5,0,0.8,0.2,1c0.1,0.2,0.3,0.4,0.7,0.5l32.8,5.8c0.5,0.1,0.8-0.1,1-0.2c0.2-0.1,0.4-0.4,0.5-0.8
							c0.5-3.9,0.8-5.9,1.4-9.8c5-31.7,12.8-61.7,23.7-91.9c1.6-4.4,2.5-6.6,4.2-10.9c0.1-0.3,0.1-0.6,0-0.8
							c-0.1-0.2-0.3-0.5-0.7-0.6l-31.7-9.9l0,0C361.7,336.4,361.6,336.4,361.5,336.4z"/>
					</g>
					<g class="st2">
						<path class="st5" d="M361.5,426.8c1.1,0.2,1.6,0.3,2.7,0.5c1.4,0.3,2.2,1.6,1.9,2.9c-1.2,5.6-1.8,8.4-2.9,14
							c-0.3,1.3-1.6,2.2-3,2c-1.1-0.2-1.6-0.3-2.7-0.5c-1.4-0.2-2.3-1.6-2-2.9c1.1-5.7,1.7-8.5,2.9-14.1
							C358.8,427.4,360.1,426.5,361.5,426.8z"/>
					</g>
					<g class="st2">
						<path class="st5" d="M372.5,381.3c1.1,0.3,1.6,0.4,2.6,0.7c1.3,0.3,2.1,1.7,1.8,3c-2.9,11-5.6,22-8.2,33.1
							c-0.3,1.3-1.7,2.2-3,1.9c-1.1-0.2-1.6-0.3-2.7-0.6c-1.4-0.3-2.2-1.6-1.9-3c2.6-11.1,5.3-22.2,8.2-33.3
							C369.8,381.8,371.2,381,372.5,381.3z"/>
					</g>
					<g>
						<path class="st1" d="M361,321.8c1.4-3.5,2.1-5.2,3.6-8.7c12.7-30.7,25.3-61.4,37.8-92.1c1.8-4.4,2.7-6.6,4.5-10.9
							c1.1-2.6,4.1-3.8,6.5-2.6c10,4.6,20,9.3,30.1,13.9c1.1,0.5,1.9,1.4,2.3,2.4c0.5,1.2,0.5,2.7-0.2,4c-2.3,4.1-3.4,6.1-5.6,10.2
							c-14.7,28.1-26.6,57.1-35.7,87.4c-1.1,3.8-1.6,5.7-2.7,9.5c-0.7,2.6-3.5,4-6.1,3.2c-10.6-3.3-21.1-6.7-31.7-10
							c-0.4-0.1-0.8-0.3-1.1-0.5C361,326.4,360.2,324,361,321.8z"/>
					</g>
					<g class="st4">
						<path d="M361,321.8c1.4-3.5,2.1-5.2,3.6-8.7c12.7-30.7,25.3-61.4,37.8-92.1c1.8-4.4,2.7-6.6,4.5-10.9c1.1-2.6,4.1-3.8,6.5-2.6
							c10,4.6,20,9.3,30.1,13.9c1.1,0.5,1.9,1.4,2.3,2.4c-1.3,2.4-2,3.6-3.3,6c-1.1,2.1-2.2,4.1-3.3,6.2c-6.5-2.9-9.8-4.4-16.3-7.3
							c-6-2.6-12.8,0.4-15.2,6.3c-0.3,0.8-0.5,1.3-0.8,2.1c-9.9,25.3-20.3,50.6-30.7,75.7c-2.4,5.9,0.5,12.6,6.7,14.7
							c6,1.9,12,3.9,18,5.8c-0.1,0.3-0.1,0.4-0.2,0.7c-0.8,2.8-3.8,4.4-6.6,3.5c-10.4-3.3-20.9-6.6-31.3-9.9
							C361,326.4,360.2,324,361,321.8z"/>
					</g>
					<g>
						<path class="st3" d="M397,341.9c-0.9,0-1.7-0.1-2.5-0.4l-31.7-10c-2.2-0.7-4-2.3-4.9-4.3c-1-2.1-1-4.5-0.2-6.7
							c1.4-3.5,2.1-5.3,3.6-8.8c12.5-30.2,25.3-61.2,37.8-92.1c1.8-4.4,2.7-6.6,4.5-10.9c0.9-2.1,2.6-3.8,4.8-4.7
							c2.1-0.8,4.5-0.8,6.5,0.2l30.1,13.9c2.1,1,3.7,2.7,4.4,4.9c0.7,2.1,0.5,4.5-0.6,6.5c-2.2,4.1-3.4,6.1-5.6,10.2
							c-14.7,28.1-26.3,56.5-35.5,86.7c-1.1,3.7-1.6,5.6-2.7,9.4c-0.6,2.2-2,3.9-4,5C399.8,341.5,398.4,341.9,397,341.9z
							 M411.5,210.5c-0.2,0-0.4,0-0.5,0.1c-0.2,0.1-0.6,0.3-0.8,0.8c-1.8,4.3-2.7,6.5-4.5,10.9c-12.5,30.9-25.3,61.9-37.8,92.2
							c-1.4,3.5-2.2,5.2-3.6,8.7c-0.2,0.5-0.1,0.8,0,1c0.1,0.2,0.3,0.4,0.6,0.6l31.7,10c0.5,0.1,0.9,0,1-0.1
							c0.2-0.1,0.5-0.3,0.6-0.7c1.1-3.8,1.6-5.7,2.7-9.5c9.3-30.7,21-59.5,36-88.1c2.2-4.2,3.3-6.2,5.6-10.3
							c0.2-0.3,0.1-0.6,0.1-0.8c-0.1-0.2-0.2-0.5-0.6-0.7L412,210.6l0,0C411.8,210.6,411.6,210.5,411.5,210.5z"/>
					</g>
					<g class="st2">
						<path class="st5" d="M399.3,300.3c1,0.4,1.5,0.5,2.6,0.9c1.3,0.4,2,1.9,1.5,3.2c-2,5.4-2.9,8.1-4.8,13.5
							c-0.4,1.3-1.9,2-3.2,1.6c-1-0.3-1.5-0.5-2.6-0.8c-1.3-0.4-2-1.8-1.6-3.1c1.9-5.5,2.9-8.2,4.8-13.6
							C396.5,300.5,398,299.8,399.3,300.3z"/>
					</g>
					<g class="st2">
						<path class="st5" d="M416.4,256.7c1,0.4,1.5,0.6,2.5,1c1.3,0.5,1.9,2,1.4,3.2c-4.3,10.5-8.5,21.1-12.6,31.7
							c-0.5,1.3-1.9,1.9-3.2,1.5c-1-0.4-1.5-0.5-2.5-0.9c-1.3-0.5-2-1.9-1.5-3.2c4.1-10.7,8.3-21.4,12.7-32
							C413.6,256.8,415.1,256.1,416.4,256.7z"/>
					</g>
					<g>
						<path class="st1" d="M413.1,196.2c1.9-3.3,2.8-4.9,4.7-8.2c16.9-28.9,33.6-57.8,50.2-86.8c2.4-4.1,3.6-6.2,6-10.3
							c1.4-2.4,4.6-3.2,6.9-1.8c9.3,5.9,18.6,11.8,27.9,17.8c1,0.7,1.7,1.6,2,2.7c0.3,1.3,0.1,2.8-0.8,3.9c-2.8,3.8-4.2,5.7-7,9.5
							c-18.5,26.1-34.3,53.4-47.5,82.4c-1.6,3.6-2.4,5.4-4,9.1c-1.1,2.5-4,3.6-6.5,2.4c-10-4.7-20-9.4-30-14.1
							c-0.4-0.2-0.7-0.4-1-0.7C412.5,200.7,412,198.2,413.1,196.2z"/>
					</g>
					<g class="st4">
						<path d="M413.1,196.2c1.9-3.3,2.8-4.9,4.7-8.2c16.9-28.9,33.6-57.8,50.2-86.8c2.4-4.1,3.6-6.2,6-10.3c1.4-2.4,4.6-3.2,6.9-1.8
							c9.3,5.9,18.6,11.8,27.9,17.8c1,0.7,1.7,1.6,2,2.7c-1.7,2.2-2.5,3.3-4.1,5.6c-1.4,1.9-2.8,3.8-4.2,5.8
							c-6.1-3.7-9.1-5.6-15.2-9.3c-5.6-3.3-12.8-1.2-16,4.3c-0.4,0.8-0.7,1.2-1.1,2c-13.3,23.9-27.2,47.8-40.9,71.3
							c-3.2,5.5-1.2,12.6,4.6,15.5c5.7,2.7,11.3,5.4,17,8.1c-0.1,0.3-0.2,0.4-0.3,0.6c-1.2,2.7-4.3,3.8-7,2.6
							c-9.9-4.6-19.8-9.3-29.6-13.9C412.4,200.7,412,198.2,413.1,196.2z"/>
					</g>
					<g>
						<path class="st3" d="M447.2,220.9c-1.2,0-2.4-0.3-3.6-0.8l-30-14.1c-2-1-3.6-2.7-4.3-4.9c-0.7-2.2-0.4-4.6,0.7-6.7
							c1.9-3.3,2.8-5,4.8-8.2c16.3-28,33.2-57.2,50.2-86.8c2.4-4.1,3.6-6.2,6-10.3c1.2-2,3.2-3.5,5.4-4c2.2-0.5,4.5-0.2,6.4,1
							c0,0,0,0,0,0l27.9,17.8c1.9,1.2,3.2,3.2,3.7,5.4c0.4,2.2-0.1,4.5-1.5,6.4c-2.8,3.8-4.2,5.7-6.9,9.4
							c-18.5,26.1-34,52.8-47.2,81.8c-1.6,3.6-2.4,5.4-4,9c-0.9,2.1-2.6,3.7-4.7,4.5C449.2,220.7,448.2,220.9,447.2,220.9z
							 M478.4,91.9c-0.1,0-0.2,0-0.3,0c-0.4,0.1-0.8,0.4-1,0.7c-2.4,4.1-3.6,6.1-6,10.2c-17,29.7-33.9,58.9-50.3,86.9
							c-1.9,3.3-2.9,4.9-4.7,8.2c-0.3,0.4-0.2,0.8-0.1,1c0.1,0.2,0.2,0.5,0.5,0.6l30,14.1c0.4,0.2,0.8,0.1,1,0
							c0.2-0.1,0.5-0.2,0.7-0.6c1.6-3.7,2.4-5.5,4-9.1c13.4-29.4,29.1-56.5,47.9-83c2.8-3.8,4.2-5.8,7-9.5c0.2-0.3,0.2-0.6,0.2-0.9
							c0-0.2-0.2-0.5-0.5-0.7L479,92.1C478.8,91.9,478.6,91.9,478.4,91.9z"/>
					</g>
					<g class="st2">
						<path class="st5" d="M454,179.7c1,0.5,1.4,0.7,2.4,1.2c1.2,0.6,1.7,2.1,1.1,3.3c-2.7,5.1-4,7.7-6.6,12.8
							c-0.6,1.2-2.1,1.7-3.4,1.2c-1-0.5-1.5-0.7-2.4-1.2c-1.2-0.6-1.8-2.1-1.1-3.3c2.6-5.2,4-7.8,6.7-12.9
							C451.2,179.6,452.7,179.1,454,179.7z"/>
					</g>
					<g class="st2">
						<path class="st5" d="M476,139.6c0.9,0.5,1.4,0.8,2.4,1.3c1.2,0.7,1.6,2.2,1,3.4c-5.6,10-11.1,20-16.5,30.2
							c-0.6,1.2-2.2,1.7-3.4,1.1c-1-0.5-1.5-0.7-2.4-1.2c-1.2-0.6-1.7-2.1-1.1-3.3c5.4-10.2,10.9-20.3,16.6-30.4
							C473.2,139.4,474.7,139,476,139.6z"/>
					</g>
				</g>
			</g>
			<g>
				<g>
					<path class="st1" d="M298.1,527.5c-0.3-3.7-0.5-5.5-0.7-9.1c-2.5-32.1-5.1-64.2-7.8-96.3c-0.4-4.5-0.6-6.8-0.9-11.4
						c-0.2-2.7,1.8-5,4.4-5c10.6-0.2,21.1-0.3,31.7-0.5c1.2,0,2.2,0.4,3.1,1.1c1,0.9,1.6,2.1,1.5,3.6c-0.2,4.5-0.2,6.7-0.3,11.2
						c-0.4,30.8,2.1,61,7.5,91.3c0.7,3.8,1.1,5.7,1.8,9.4c0.5,2.6-1.2,5-3.8,5.4c-10.5,1.5-20.9,3-31.4,4.6c-0.4,0.1-0.8,0.1-1.2,0
						C300.1,531.5,298.3,529.8,298.1,527.5z"/>
				</g>
				<g class="st4">
					<path d="M298.1,527.5c-0.3-3.7-0.5-5.5-0.7-9.1c-2.5-32.1-5.1-64.2-7.8-96.3c-0.4-4.5-0.6-6.8-0.9-11.4c-0.2-2.7,1.8-5,4.4-5
						c10.6-0.2,21.1-0.3,31.7-0.5c1.2,0,2.2,0.4,3.1,1.1c-0.1,2.6-0.1,4-0.2,6.6c-0.1,2.3-0.1,4.5-0.2,6.8
						c-6.8,0.2-10.2,0.3-17.1,0.5c-6.2,0.3-10.7,5.7-10.2,11.9c0.1,0.9,0.1,1.3,0.2,2.2c2.5,26.3,4.6,52.8,6.7,79
						c0.5,6.1,5.9,10.8,12.1,10.1c6-0.8,11.9-1.7,17.9-2.5c0.1,0.3,0.1,0.4,0.1,0.7c0.5,2.8-1.3,5.4-4.1,5.8
						c-10.3,1.5-20.7,3-31,4.5C300.1,531.5,298.3,529.8,298.1,527.5z"/>
				</g>
				<g>
					<path class="st3" d="M302.7,535.4c-1.8,0-3.5-0.6-5-1.7c-1.8-1.4-2.9-3.5-3.1-5.8c-0.3-3.7-0.5-5.5-0.8-9.2
						c-2.5-33-5.2-65.4-7.8-96.3c-0.4-4.6-0.6-6.8-0.9-11.4c-0.2-2.3,0.6-4.5,2.1-6.2c1.5-1.6,3.6-2.6,5.8-2.6l31.7-0.5
						c0,0,0.1,0,0.1,0c2.2,0,4.3,0.9,5.8,2.4c1.5,1.6,2.4,3.7,2.3,5.9c-0.2,4.5-0.2,6.7-0.3,11.2c-0.4,30.7,2,60.3,7.4,90.6
						c0.7,3.7,1.1,5.6,1.8,9.4c0.4,2.2-0.1,4.5-1.3,6.3c-1.3,1.8-3.3,3-5.4,3.3l-31.4,4.6C303.5,535.3,303.1,535.4,302.7,535.4z
						 M293.2,409.2c-0.3,0-0.5,0.2-0.6,0.3c-0.1,0.1-0.3,0.4-0.3,0.9c0.3,4.5,0.5,6.8,0.9,11.3c2.6,30.9,5.2,63.4,7.8,96.4
						c0.3,3.6,0.4,5.5,0.7,9.1c0,0.5,0.3,0.8,0.5,0.9c0.1,0.1,0.4,0.2,0.7,0.2l31.4-4.6c0.3-0.1,0.6-0.3,0.7-0.4
						c0.1-0.1,0.2-0.4,0.2-0.8c-0.8-3.8-1.1-5.7-1.8-9.5c-5.5-30.8-7.9-60.9-7.5-92c0.1-4.5,0.2-6.8,0.3-11.3c0-0.3-0.1-0.6-0.3-0.7
						c-0.1-0.1-0.4-0.3-0.7-0.3L293.2,409.2C293.2,409.2,293.2,409.2,293.2,409.2z M293.2,405.6L293.2,405.6L293.2,405.6z"/>
				</g>
				<g class="st2">
					<path class="st5" d="M321.4,492.5c1-0.1,1.5-0.2,2.6-0.3c1.3-0.2,2.5,0.8,2.7,2.1c0.7,5.5,1,8.3,1.8,13.9
						c0.2,1.3-0.7,2.5-2,2.7c-1,0.1-1.5,0.2-2.6,0.4c-1.3,0.2-2.5-0.8-2.7-2.1c-0.8-5.6-1.1-8.4-1.8-14
						C319.1,493.9,320.1,492.7,321.4,492.5z"/>
				</g>
				<g class="st2">
					<path class="st5" d="M317.1,447.2c1-0.1,1.5-0.1,2.6-0.2c1.3-0.1,2.5,0.9,2.6,2.2c0.9,11,1.9,22,3,33c0.1,1.3-0.8,2.5-2.1,2.7
						c-1,0.1-1.5,0.2-2.6,0.3c-1.3,0.1-2.5-0.8-2.7-2.2c-1.2-11.1-2.2-22.1-3-33.2C314.8,448.5,315.8,447.3,317.1,447.2z"/>
				</g>
				<g>
					<path class="st1" d="M288,396c0.2-3.6,0.3-5.5,0.5-9.1c1.8-32,3.6-64,5.2-96.1c0.2-4.5,0.3-6.8,0.6-11.4
						c0.2-2.7,2.5-4.7,5.1-4.4c10.5,1.2,21,2.5,31.5,3.7c1.2,0.1,2.2,0.7,2.9,1.5c0.9,1,1.3,2.3,1.1,3.7c-0.7,4.4-1.1,6.6-1.8,11.1
						c-4.5,30.3-6,60.5-4.8,91.1c0.2,3.8,0.3,5.7,0.5,9.5c0.2,2.6-1.9,4.8-4.5,4.8c-10.6,0.1-21.1,0.2-31.7,0.3
						c-0.4,0-0.8-0.1-1.2-0.2C289.4,400.2,287.9,398.3,288,396z"/>
				</g>
				<g class="st4">
					<path d="M288,396c0.2-3.6,0.3-5.5,0.5-9.1c1.8-32,3.6-64,5.2-96.1c0.2-4.5,0.3-6.8,0.6-11.4c0.2-2.7,2.5-4.7,5.1-4.4
						c10.5,1.2,21,2.5,31.5,3.7c1.2,0.1,2.2,0.7,2.9,1.5c-0.5,2.6-0.7,3.9-1.1,6.5c-0.4,2.2-0.7,4.5-1.1,6.7c-6.8-0.7-10.2-1-17-1.7
						c-6.2-0.5-11.4,4.2-11.7,10.4c0,0.9,0,1.3-0.1,2.2c-1,26.3-2.4,52.7-3.9,78.8c-0.3,6.1,4.4,11.5,10.6,11.5c6,0,12-0.1,18-0.1
						c0,0.3,0,0.4,0,0.7c0.2,2.8-2,5.2-4.8,5.2c-10.4,0.1-20.9,0.2-31.3,0.3C289.4,400.2,287.9,398.3,288,396z"/>
				</g>
				<g>
					<path class="st3" d="M292.5,404.5c-2.2,0-4.2-0.9-5.8-2.5c-1.6-1.6-2.4-3.9-2.3-6.2c0.2-3.7,0.3-5.5,0.5-9.1
						c1.8-32.2,3.6-64.5,5.2-96c0.2-4.6,0.4-6.8,0.6-11.4c0.1-2.3,1.2-4.4,3-5.9c1.7-1.4,3.9-2.1,6.1-1.8l31.5,3.7
						c2.2,0.3,4.2,1.4,5.5,3.2c1.3,1.8,1.9,4,1.5,6.2c-0.7,4.4-1.1,6.6-1.8,11c-4.5,30.2-6,59.8-4.7,90.4c0.2,3.8,0.3,5.7,0.5,9.5
						c0.1,2.2-0.6,4.4-2.1,6c-1.5,1.6-3.6,2.6-5.8,2.6L292.5,404.5C292.6,404.5,292.6,404.5,292.5,404.5z M298.8,278.6
						c-0.3,0-0.5,0.1-0.6,0.2c-0.1,0.1-0.4,0.4-0.4,0.9c-0.3,4.5-0.4,6.8-0.6,11.3c-1.6,31.6-3.3,63.9-5.2,96.1
						c-0.2,3.6-0.3,5.4-0.5,9.1c0,0.5,0.2,0.8,0.3,0.9c0.1,0.1,0.3,0.3,0.7,0.3c0,0,0,0,0,0l31.7-0.3c0.4,0,0.6-0.2,0.7-0.3
						c0.1-0.1,0.3-0.4,0.3-0.7c-0.2-3.8-0.3-5.7-0.5-9.6c-1.3-31.1,0.3-61.1,4.8-91.8c0.7-4.5,1.1-6.7,1.8-11.1
						c0.1-0.3-0.1-0.6-0.2-0.7c-0.1-0.1-0.3-0.4-0.7-0.4l-31.5-3.7h0C298.9,278.6,298.8,278.6,298.8,278.6z"/>
				</g>
				<g class="st2">
					<path class="st5" d="M315.7,364.6c1,0,1.5,0,2.6,0c1.3,0,2.4,1.1,2.4,2.4c-0.1,5.6-0.1,8.3-0.1,13.9c0,1.3-1.1,2.4-2.4,2.4
						c-1,0-1.5,0-2.6,0c-1.3,0-2.4-1.1-2.4-2.4c0-5.6,0-8.4,0.1-14C313.3,365.7,314.4,364.6,315.7,364.6z"/>
				</g>
				<g class="st2">
					<path class="st5" d="M317.5,319.4c1,0.1,1.5,0.1,2.6,0.2c1.3,0.1,2.3,1.2,2.2,2.5c-0.6,11-1.1,22-1.4,32.9
						c0,1.3-1.1,2.4-2.5,2.3c-1,0-1.5,0-2.6-0.1c-1.3,0-2.4-1.1-2.3-2.5c0.3-11.1,0.8-22.1,1.4-33.2
						C315,320.3,316.2,319.3,317.5,319.4z"/>
				</g>
				<g>
					<path class="st1" d="M295.5,264.7c0.7-3.6,1-5.4,1.7-8.9c6.1-31.5,12.1-63,17.9-94.5c0.8-4.5,1.3-6.7,2.1-11.2
						c0.5-2.6,3.1-4.3,5.6-3.7c10.2,2.6,20.5,5.3,30.7,7.9c1.1,0.3,2.1,1,2.7,1.9c0.7,1.1,1,2.5,0.6,3.8c-1.3,4.3-2,6.4-3.3,10.7
						c-8.5,29.4-14.1,59.1-16.9,89.6c-0.3,3.8-0.5,5.7-0.7,9.5c-0.2,2.6-2.5,4.5-5.1,4.2c-10.5-1.3-21-2.6-31.5-3.9
						c-0.4,0-0.8-0.2-1.1-0.3C296.3,269.1,295.1,267,295.5,264.7z"/>
				</g>
				<g class="st4">
					<path d="M295.5,264.7c0.7-3.6,1-5.4,1.7-8.9c6.1-31.5,12.1-63,17.9-94.5c0.8-4.5,1.3-6.7,2.1-11.2c0.5-2.6,3.1-4.3,5.6-3.7
						c10.2,2.6,20.5,5.3,30.7,7.9c1.1,0.3,2.1,1,2.7,1.9c-0.8,2.5-1.2,3.8-2,6.3c-0.7,2.2-1.3,4.3-2,6.5c-6.6-1.6-10-2.4-16.6-4
						c-6.1-1.4-11.9,2.7-13,8.7c-0.1,0.9-0.2,1.3-0.4,2.1c-4.5,25.9-9.4,51.9-14.4,77.5c-1.2,6,2.8,11.9,9,12.8
						c6,0.8,11.9,1.6,17.9,2.3c0,0.3,0,0.4-0.1,0.7c-0.2,2.8-2.7,4.8-5.5,4.5c-10.4-1.3-20.7-2.6-31.1-3.9
						C296.3,269.1,295.1,267,295.5,264.7z"/>
				</g>
				<g>
					<path class="st3" d="M331.4,277.7c-0.3,0-0.7,0-1-0.1l-31.5-3.9c-2.2-0.3-4.1-1.4-5.5-3.2c-1.3-1.8-1.9-4.2-1.5-6.4
						c0.7-3.6,1-5.4,1.7-9c6-31.1,12-62.9,17.9-94.5c0.8-4.5,1.3-6.7,2.1-11.2c0.4-2.2,1.8-4.2,3.7-5.4c1.9-1.2,4.1-1.5,6.3-1l0,0
						l30.7,7.9c2.1,0.6,4,2,5.1,3.9c1.1,1.9,1.3,4.2,0.7,6.3c-1.3,4.3-2,6.4-3.3,10.7c-8.5,29.4-13.9,58.5-16.7,88.9
						c-0.3,3.8-0.5,5.7-0.7,9.5c-0.2,2.2-1.2,4.2-2.9,5.6C335.1,277,333.3,277.7,331.4,277.7z M321.8,149.8c-0.2,0-0.4,0.1-0.5,0.2
						c-0.2,0.1-0.4,0.3-0.5,0.8c-0.9,4.5-1.3,6.7-2.1,11.1c-5.9,31.6-11.9,63.4-17.9,94.5c-0.7,3.6-1,5.3-1.7,8.9
						c-0.1,0.5,0.1,0.8,0.2,0.9c0.1,0.2,0.3,0.3,0.6,0.4l31.5,3.9c0.4,0,0.6-0.1,0.8-0.2c0.1-0.1,0.3-0.3,0.3-0.7
						c0.3-3.8,0.4-5.7,0.7-9.6c2.8-30.9,8.4-60.5,17-90.3c1.3-4.4,2-6.5,3.3-10.8c0.1-0.3,0-0.6-0.1-0.8c-0.1-0.2-0.3-0.4-0.6-0.5
						l-30.7-7.9C321.9,149.8,321.8,149.8,321.8,149.8z"/>
				</g>
				<g class="st2">
					<path class="st5" d="M327.2,237.4c1,0.2,1.5,0.2,2.6,0.4c1.3,0.2,2.2,1.4,2,2.7c-0.8,5.5-1.2,8.2-1.9,13.7
						c-0.2,1.3-1.4,2.2-2.7,2.1c-1-0.1-1.5-0.2-2.6-0.3c-1.3-0.2-2.2-1.4-2.1-2.7c0.7-5.5,1.1-8.3,1.9-13.8
						C324.6,238.1,325.8,237.2,327.2,237.4z"/>
				</g>
				<g class="st2">
					<path class="st5" d="M334.9,192.8c1,0.2,1.5,0.3,2.5,0.5c1.3,0.3,2.1,1.5,1.9,2.8c-2.1,10.8-4,21.6-5.8,32.5
						c-0.2,1.3-1.4,2.2-2.7,2c-1-0.2-1.5-0.2-2.6-0.4c-1.3-0.2-2.2-1.4-2-2.8c1.8-10.9,3.7-21.8,5.8-32.7
						C332.4,193.4,333.6,192.5,334.9,192.8z"/>
				</g>
				<g>
					<path class="st1" d="M320.4,135.7c1.1-3.5,1.7-5.2,2.9-8.7c10.3-30.5,20.5-61.1,30.5-91.7c1.4-4.4,2.2-6.5,3.6-10.9
						c0.9-2.6,3.7-3.9,6.1-2.9c9.8,4,19.6,8,29.4,12c1.1,0.4,1.9,1.3,2.4,2.2c0.6,1.2,0.6,2.6,0,3.9c-1.9,4.1-2.8,6.1-4.7,10.3
						c-12.4,28.2-21.9,57-28.8,87c-0.8,3.7-1.2,5.6-2,9.4c-0.5,2.5-3.1,4.1-5.6,3.5c-10.2-2.7-20.4-5.4-30.7-8.1
						c-0.4-0.1-0.8-0.3-1.1-0.5C320.7,140.2,319.7,137.9,320.4,135.7z"/>
				</g>
				<g class="st4">
					<path d="M320.4,135.7c1.1-3.5,1.7-5.2,2.9-8.7c10.3-30.5,20.5-61.1,30.5-91.7c1.4-4.4,2.2-6.5,3.6-10.9
						c0.9-2.6,3.7-3.9,6.1-2.9c9.8,4,19.6,8,29.4,12c1.1,0.4,1.9,1.3,2.4,2.2c-1.1,2.4-1.7,3.6-2.8,6c-1,2.1-1.9,4.1-2.8,6.2
						c-6.4-2.5-9.6-3.7-15.9-6.2c-5.9-2.2-12.2,1.1-14.1,7c-0.3,0.8-0.4,1.2-0.7,2.1c-7.9,25.2-16.3,50.3-24.7,75.3
						c-2,5.8,1.2,12.2,7.2,13.9c5.8,1.6,11.6,3.1,17.4,4.7c-0.1,0.3-0.1,0.4-0.1,0.7c-0.6,2.7-3.3,4.4-6,3.7
						c-10.1-2.7-20.2-5.3-30.3-8C320.6,140.2,319.7,137.9,320.4,135.7z"/>
				</g>
				<g>
					<path class="st3" d="M355.3,153.4c-0.7,0-1.4-0.1-2-0.3l-30.7-8.1c-2.1-0.6-3.9-2-5-3.9c-1.1-2-1.3-4.4-0.6-6.6
						c1.1-3.5,1.7-5.2,2.9-8.7c9.9-29.5,20.2-60.3,30.5-91.7c1.4-4.4,2.2-6.5,3.7-10.9c0.7-2.2,2.4-4,4.4-4.9c2-0.9,4.3-1,6.3-0.1
						c0,0,0,0,0,0l29.4,12c2,0.8,3.7,2.5,4.5,4.5c0.8,2.1,0.7,4.4-0.2,6.4c-1.9,4.1-2.8,6.1-4.7,10.2
						c-12.4,28.1-21.7,56.4-28.6,86.3c-0.8,3.7-1.2,5.6-2,9.3c-0.4,2.2-1.8,4.1-3.7,5.2C358.3,153,356.8,153.4,355.3,153.4z
						 M361.9,24.8c-0.2,0-0.3,0-0.4,0.1c-0.2,0.1-0.5,0.3-0.7,0.7c-1.5,4.3-2.2,6.5-3.6,10.8c-10.3,31.3-20.6,62.2-30.5,91.7
						c-1.2,3.4-1.7,5.2-2.9,8.6c-0.1,0.4,0,0.8,0.1,1c0.1,0.2,0.3,0.4,0.6,0.5l30.7,8.1c0.3,0.1,0.6,0,0.8-0.1
						c0.2-0.1,0.4-0.3,0.4-0.6c0.8-3.8,1.2-5.6,2-9.4c7-30.4,16.5-59,29-87.6c1.9-4.2,2.8-6.2,4.7-10.3c0.2-0.3,0.1-0.6,0-0.8
						c-0.1-0.2-0.2-0.4-0.5-0.6l-29.4-12C362.1,24.9,362,24.8,361.9,24.8z"/>
				</g>
				<g class="st2">
					<path class="st5" d="M355.5,112.8c1,0.3,1.5,0.4,2.5,0.7c1.3,0.4,2,1.7,1.6,3c-1.5,5.4-2.3,8-3.8,13.4c-0.3,1.3-1.7,2-2.9,1.7
						c-1-0.3-1.5-0.4-2.5-0.7c-1.3-0.3-2-1.7-1.7-3c1.5-5.4,2.2-8.1,3.8-13.5C352.8,113.2,354.2,112.4,355.5,112.8z"/>
				</g>
				<g class="st2">
					<path class="st5" d="M368.4,70.7c1,0.3,1.5,0.5,2.5,0.8c1.3,0.4,1.9,1.8,1.5,3c-3.4,10.5-6.6,21.1-9.7,31.7
						c-0.4,1.3-1.7,2-3,1.7c-1-0.3-1.5-0.4-2.5-0.7c-1.3-0.4-2-1.7-1.6-3c3.1-10.7,6.4-21.3,9.8-31.9
						C365.8,71,367.2,70.3,368.4,70.7z"/>
				</g>
				<g>
					<g>
						<path class="st1" d="M292.9,103.7c18,25,17.2,42.1,17.2,42.1s-16.4-4.7-34.4-29.7s-30.7-61-30.7-61S274.9,78.6,292.9,103.7z"
							/>
					</g>
					<g class="st2">
						<path d="M310.6,146.1c0,0-17-4.8-35.8-30.7c-18.7-25.9-32-63.1-32-63.1s5.9,4.6,14.2,12c4.5,11.1,13.6,31.7,25,47.4
							c11.2,15.6,21.8,22.5,27.4,25.3C310.8,142.8,310.6,146.1,310.6,146.1z"/>
					</g>
					<g>
						<path class="st3" d="M311,149.2c-0.2,0-0.5,0-0.7-0.1c-0.7-0.2-18.2-5.4-37.2-31.7c-18.7-25.9-31.8-62.2-32.3-63.8
							c-0.4-1.1,0-2.4,0.9-3.1c1-0.7,2.3-0.7,3.2,0.1c1.3,1,31.6,24.8,50.3,50.8c19,26.4,18.4,44.5,18.4,45.3c0,0.8-0.4,1.6-1.1,2
							C312.1,149,311.5,149.2,311,149.2z M249.4,61.3c5.2,12.7,15.4,35.5,27.9,53c12.8,17.7,24.8,25.3,30.6,28.2
							c-0.9-6.5-4.3-20.2-17.1-37.9l0,0C278.3,87.1,259.8,70.2,249.4,61.3z"/>
					</g>
					<g>
						<path class="st1" d="M274.8,138.4c23,5.2,31.2,15.4,31.2,15.4s-11.8,5.6-34.7,0.4c-23-5.2-48.4-19.3-48.4-19.3
							S251.8,133.2,274.8,138.4z"/>
					</g>
					<g class="st2">
						<path d="M306.4,153.7c0,0-12.2,5.9-36,0.5c-23.8-5.3-50.2-19.9-50.2-19.9s5.7-0.3,14.2-0.3c8.2,4.1,23.8,11.2,38.3,14.5
							c14.3,3.2,23.9,1.8,28.5,0.6C304.8,151.7,306.4,153.7,306.4,153.7z"/>
					</g>
					<g>
						<path class="st3" d="M289.7,159.2c-5.3,0-11.9-0.6-19.5-2.3c-23.9-5.4-49.8-19.6-50.9-20.2c-1-0.6-1.6-1.8-1.3-2.9
							c0.3-1.2,1.3-2,2.4-2.1c1.2-0.1,30.8-1.8,54.7,3.5c24.4,5.5,33.4,16.3,33.8,16.8c0.5,0.6,0.7,1.5,0.5,2.3
							c-0.2,0.8-0.7,1.5-1.4,1.8C307.6,156.4,301.5,159.2,289.7,159.2z M231.1,136.8c9.7,4.7,25.6,11.6,40.3,14.9
							c14.9,3.3,25.1,2.1,30.3,0.9c-4.2-3.3-12.8-8.8-27.8-12.1C259.2,137.2,241.9,136.7,231.1,136.8z"/>
					</g>
				</g>
				<g>
					<g>
						<path class="st1" d="M416.2,165.9c-30.5-4.8-45.4,3.6-45.4,3.6s11.6,12.6,42,17.4c30.5,4.8,68.3,0.1,68.3,0.1
							S446.7,170.7,416.2,165.9z"/>
					</g>
					<g class="st2">
						<path d="M370.4,169.1c0,0,12,13.1,43.5,18.1c31.6,5.1,70.7,0.3,70.7,0.3s-6.8-3.2-17.1-7.3c-12,1-34.4,2-53.6-1.1
							c-19-3.1-29.9-9.4-34.9-13.1C373.2,167.5,370.4,169.1,370.4,169.1z"/>
					</g>
					<g>
						<path class="st3" d="M446.8,192.1c-10.9,0-22.9-0.6-34-2.4c-32.1-5.2-44.5-18.4-45-19c-0.5-0.6-0.8-1.4-0.7-2.2
							c0.1-0.8,0.6-1.5,1.3-1.9c0.7-0.4,16.6-9,48.7-3.9h0c31.6,5.1,66.5,21.5,68,22.2c1.1,0.5,1.7,1.7,1.5,2.8
							c-0.2,1.2-1.1,2.1-2.3,2.2C483.3,190.2,466.9,192.1,446.8,192.1z M374.8,169.8c5.2,3.9,17.4,11.2,38.9,14.7
							c21.2,3.4,46.2,2.3,59.9,1.2c-12.6-5.3-36-14.3-57.2-17.7h0C394.8,164.6,381,167.7,374.8,169.8z"/>
					</g>
					<g>
						<path class="st1" d="M405.5,135c-24,10.9-30.7,23.9-30.7,23.9s14.2,3.5,38.2-7.3c24-10.9,48.8-32,48.8-32
							S429.5,124.1,405.5,135z"/>
					</g>
					<g class="st2">
						<path d="M374.2,158.8c0,0,14.7,3.7,39.6-7.5c24.9-11.2,50.6-33.1,50.6-33.1s-6.4,0.9-15.6,2.8c-8.1,6.3-23.6,17.6-38.8,24.4
							c-15,6.7-25.8,7.3-31.1,7.1C375.5,156.3,374.2,158.8,374.2,158.8z"/>
					</g>
					<g>
						<path class="st3" d="M380.5,162.3c-4.6,0-7.1-0.6-7.4-0.7c-0.8-0.2-1.4-0.7-1.8-1.5c-0.3-0.7-0.3-1.6,0.1-2.3
							c0.3-0.6,7.7-14.4,33.2-25.9c25-11.2,57.7-15.9,59.1-16.1c1.2-0.2,2.3,0.5,2.8,1.5c0.5,1.1,0.2,2.4-0.7,3.1
							c-1.1,0.9-26.3,22.2-51.3,33.5C399.1,160.9,387.5,162.3,380.5,162.3z M378.5,156.9c5.8,0.3,17.6-0.5,33.8-7.8
							c16-7.2,32.5-19,42-26.3c-11.7,2.3-31.5,6.8-47.5,14l0,0C390.5,144.1,382.2,152.4,378.5,156.9z M405.7,134.4L405.7,134.4
							L405.7,134.4z"/>
					</g>
				</g>
			</g>
			<g>
				<g>
					<path class="st1" d="M286.2,630.1c-0.1-3.9-0.1-5.8-0.3-9.7c-1-33.9-2-67.8-2.8-101.7c-0.1-4.8-0.2-7.2-0.3-12
						c-0.1-2.8-2.5-5-5.2-4.8c-11.1,1-22.2,2.1-33.2,3.1c-1.2,0.1-2.3,0.7-3.1,1.5c-0.9,1-1.4,2.4-1.2,3.9c0.7,4.7,1,7,1.6,11.7
						c3.9,32.1,4.7,64.1,2.5,96.4c-0.3,4-0.5,6.1-0.8,10.1c-0.2,2.7,1.9,5.1,4.6,5.2c11.1,0.4,22.2,0.8,33.3,1.2
						c0.4,0,0.8,0,1.2-0.1C284.6,634.5,286.2,632.5,286.2,630.1z"/>
				</g>
				<g class="st4">
					<path d="M286.2,630.1c-0.1-3.9-0.1-5.8-0.3-9.7c-1-33.9-2-67.8-2.8-101.7c-0.1-4.8-0.2-7.2-0.3-12c-0.1-2.8-2.5-5-5.2-4.8
						c-11.1,1-22.2,2.1-33.2,3.1c-1.2,0.1-2.3,0.7-3.1,1.5c0.4,2.8,0.6,4.1,1,6.9c0.3,2.4,0.6,4.7,0.9,7.1
						c7.2-0.5,10.8-0.8,17.9-1.4c6.6-0.4,11.9,4.8,12.1,11.3c0,0.9,0,1.4,0,2.3c0.3,27.8,1.1,55.7,1.9,83.4
						c0.2,6.5-4.9,12-11.5,11.9c-6.3-0.2-12.6-0.4-19-0.6c0,0.3,0,0.4-0.1,0.7c-0.3,3,2,5.5,4.9,5.6c11,0.4,22,0.8,33,1.2
						C284.6,634.5,286.2,632.5,286.2,630.1z"/>
				</g>
				<g>
					<path class="st3" d="M281.4,638.7c-0.1,0-0.2,0-0.3,0l-33.3-1.2c-2.3-0.1-4.4-1.1-5.9-2.8c-1.5-1.7-2.3-4-2.1-6.3
						c0.4-4,0.5-6,0.8-10.1c2.2-32.3,1.4-63.6-2.5-95.7c-0.6-4.6-0.9-7-1.6-11.6c-0.3-2.2,0.3-4.5,1.7-6.3c1.4-1.8,3.5-2.9,5.8-3.1
						l33.2-3.1h0c2.3-0.2,4.5,0.5,6.2,2c1.8,1.5,2.8,3.8,2.9,6.1c0.2,4.8,0.2,7.2,0.4,12c0.8,32.7,1.7,66.9,2.8,101.6
						c0.1,3.9,0.2,5.8,0.3,9.7c0.1,2.4-0.9,4.7-2.6,6.3C285.6,637.9,283.6,638.7,281.4,638.7z M277.9,505.6l-33.2,3.1
						c-0.5,0-0.7,0.3-0.9,0.5c-0.1,0.2-0.3,0.5-0.2,0.9c0.7,4.7,1,7,1.6,11.8c3.9,32.6,4.8,64.3,2.5,97.1c-0.3,4.1-0.5,6.1-0.8,10.2
						c0,0.5,0.2,0.8,0.3,0.9c0.1,0.1,0.4,0.4,0.9,0.4l33.3,1.2c0.4,0,0.7-0.2,0.8-0.3c0.2-0.2,0.4-0.5,0.4-1.1
						c-0.1-3.9-0.1-5.8-0.3-9.6c-1.1-34.8-2-69-2.8-101.7c-0.1-4.8-0.2-7.2-0.4-12c0-0.6-0.3-0.9-0.5-1.1
						C278.6,505.7,278.3,505.5,277.9,505.6L277.9,505.6z"/>
				</g>
				<g class="st2">
					<path class="st5" d="M257.9,596.1c-1.1,0-1.6,0-2.7,0c-1.4,0-2.5,1.1-2.6,2.5c-0.1,5.9-0.1,8.8-0.3,14.7c0,1.4,1.1,2.6,2.4,2.6
						c1.1,0,1.6,0.1,2.7,0.1c1.4,0,2.6-1.1,2.6-2.5c0.2-5.9,0.2-8.9,0.3-14.8C260.4,597.3,259.3,596.2,257.9,596.1z"/>
				</g>
				<g class="st2">
					<path class="st5" d="M257.3,548.3c-1.1,0-1.6,0.1-2.7,0.1c-1.4,0.1-2.5,1.2-2.4,2.6c0.3,11.6,0.5,23.2,0.6,34.9
						c0,1.4,1.1,2.5,2.5,2.6c1.1,0,1.6,0,2.7,0c1.4,0,2.5-1.1,2.5-2.6c0-11.7-0.2-23.4-0.6-35.1
						C259.9,549.3,258.7,548.2,257.3,548.3z"/>
				</g>
				<g>
					<path class="st1" d="M281.9,491.4c-0.6-3.8-0.9-5.7-1.5-9.5c-5.6-33.3-11-66.6-16.3-99.9c-0.7-4.7-1.1-7.1-1.9-11.8
						c-0.5-2.8-3.1-4.6-5.8-4c-10.8,2.5-21.7,5-32.5,7.5c-1.2,0.3-2.2,1-2.8,1.9c-0.8,1.1-1.1,2.6-0.7,4c1.3,4.5,1.9,6.8,3.1,11.4
						c8.1,31.2,13.2,62.6,15.3,94.8c0.2,4,0.3,6,0.5,10c0.1,2.7,2.5,4.8,5.2,4.5c11.1-1.1,22.1-2.2,33.2-3.2c0.4,0,0.8-0.1,1.2-0.3
						C280.9,496,282.3,493.7,281.9,491.4z"/>
				</g>
				<g class="st4">
					<path d="M281.9,491.4c-0.6-3.8-0.9-5.7-1.5-9.5c-5.6-33.3-11-66.6-16.3-99.9c-0.7-4.7-1.1-7.1-1.9-11.8c-0.5-2.8-3.1-4.6-5.8-4
						c-10.8,2.5-21.7,5-32.5,7.5c-1.2,0.3-2.2,1-2.8,1.9c0.8,2.7,1.1,4,1.9,6.7c0.6,2.3,1.3,4.6,1.9,6.9c7-1.5,10.5-2.2,17.6-3.7
						c6.4-1.3,12.4,3.1,13.4,9.5c0.1,0.9,0.2,1.4,0.3,2.3c4,27.4,8.5,54.8,13,82c1.1,6.4-3.3,12.5-9.8,13.3
						c-6.3,0.7-12.6,1.3-18.9,2c0,0.3,0,0.4,0,0.7c0.1,2.9,2.7,5.2,5.6,4.9c10.9-1.1,21.9-2.1,32.8-3.2
						C281,496,282.3,493.7,281.9,491.4z"/>
				</g>
				<g>
					<path class="st3" d="M244,503.8c-2,0-4-0.7-5.5-2c-1.7-1.5-2.8-3.6-2.9-5.9c-0.2-4-0.3-6-0.5-10c-2.1-32.1-7.1-62.9-15.2-94.1
						c-1.2-4.5-1.8-6.8-3.1-11.3c-0.6-2.2-0.3-4.5,0.8-6.5c1.2-2,3.1-3.4,5.3-3.9l32.5-7.5c2.2-0.5,4.5-0.1,6.4,1.2
						c1.9,1.3,3.3,3.4,3.7,5.7c0.8,4.7,1.2,7.1,1.9,11.8c5.2,32.8,10.7,66.4,16.3,99.9c0.6,3.8,0.9,5.7,1.5,9.5
						c0.4,2.3-0.2,4.7-1.7,6.6c-1.4,1.8-3.4,2.9-5.7,3.2l-33.2,3.2C244.6,503.8,244.3,503.8,244,503.8z M257.4,369.6
						c-0.1,0-0.2,0-0.2,0l0,0l-32.5,7.5c-0.5,0.1-0.7,0.4-0.8,0.6c-0.1,0.2-0.2,0.5-0.1,0.9c1.3,4.6,1.9,6.8,3.2,11.4
						c8.2,31.6,13.3,62.8,15.4,95.5c0.2,4.1,0.3,6.1,0.5,10.1c0,0.4,0.3,0.7,0.4,0.9c0.1,0.1,0.5,0.3,0.9,0.3l33.2-3.2
						c0.4,0,0.6-0.3,0.8-0.4c0.1-0.2,0.4-0.6,0.3-1.1c-0.6-3.8-0.9-5.7-1.5-9.4c-5.6-33.6-11.1-67.2-16.3-100
						c-0.7-4.7-1.1-7.1-1.9-11.8c-0.1-0.5-0.4-0.8-0.6-1C257.9,369.7,257.7,369.6,257.4,369.6z M256.4,366.2L256.4,366.2
						L256.4,366.2z"/>
				</g>
				<g class="st2">
					<path class="st5" d="M249.4,461.7c-1.1,0.1-1.6,0.2-2.7,0.3c-1.4,0.2-2.4,1.4-2.2,2.8c0.7,5.8,1,8.7,1.6,14.5
						c0.1,1.4,1.4,2.4,2.8,2.3c1.1-0.1,1.6-0.2,2.7-0.3c1.4-0.1,2.4-1.4,2.2-2.8c-0.6-5.9-1-8.8-1.7-14.6
						C252,462.5,250.7,461.5,249.4,461.7z"/>
				</g>
				<g class="st2">
					<path class="st5" d="M242.4,414.6c-1.1,0.2-1.6,0.3-2.7,0.5c-1.4,0.2-2.3,1.5-2.1,2.9c1.9,11.4,3.6,22.9,5.2,34.3
						c0.2,1.4,1.5,2.4,2.8,2.2c1.1-0.1,1.6-0.2,2.7-0.4c1.4-0.2,2.4-1.5,2.2-2.9c-1.6-11.6-3.3-23.1-5.2-34.6
						C245.1,415.3,243.8,414.3,242.4,414.6z"/>
				</g>
				<g>
					<path class="st1" d="M259.2,354.9c-1.1-3.7-1.7-5.5-2.8-9.2c-9.9-32.3-19.8-64.5-29.5-96.9c-1.4-4.6-2.1-6.9-3.5-11.5
						c-0.8-2.7-3.7-4.2-6.3-3.2c-10.4,3.9-20.8,7.8-31.2,11.8c-1.2,0.4-2,1.3-2.6,2.3c-0.6,1.2-0.7,2.7-0.1,4.1
						c1.9,4.3,2.8,6.5,4.6,10.9c12.2,29.8,21.4,60.3,27.8,91.9c0.8,3.9,1.1,5.9,1.8,9.9c0.5,2.7,3.1,4.4,5.8,3.8
						c10.8-2.5,21.7-5.1,32.5-7.6c0.4-0.1,0.8-0.3,1.2-0.5C258.8,359.5,259.9,357.2,259.2,354.9z"/>
				</g>
				<g class="st4">
					<path d="M259.2,354.9c-1.1-3.7-1.7-5.5-2.8-9.2c-9.9-32.3-19.8-64.5-29.5-96.9c-1.4-4.6-2.1-6.9-3.5-11.5
						c-0.8-2.7-3.7-4.2-6.3-3.2c-10.4,3.9-20.8,7.8-31.2,11.8c-1.2,0.4-2,1.3-2.6,2.3c1.1,2.5,1.7,3.8,2.8,6.4
						c0.9,2.2,1.9,4.4,2.8,6.6c6.8-2.4,10.2-3.6,16.9-6.1c6.2-2.1,12.7,1.5,14.6,7.7c0.3,0.9,0.4,1.3,0.6,2.2
						c7.6,26.6,15.7,53.2,23.8,79.5c1.9,6.2-1.6,12.8-8,14.4c-6.1,1.5-12.3,3-18.4,4.5c0.1,0.3,0.1,0.4,0.1,0.7
						c0.5,2.9,3.4,4.7,6.2,4.1c10.7-2.5,21.4-5,32.1-7.6C258.9,359.5,259.9,357.2,259.2,354.9z"/>
				</g>
				<g>
					<path class="st3" d="M222.2,372.3c-1.6,0-3.2-0.5-4.6-1.4c-1.9-1.2-3.2-3.2-3.6-5.5c-0.7-3.9-1.1-5.9-1.8-9.8
						c-6.4-31.5-15.4-61.4-27.6-91.2c-1.8-4.3-2.7-6.5-4.6-10.8c-0.9-2.1-0.9-4.5,0-6.5c0.9-2.1,2.6-3.7,4.7-4.5l31.2-11.8
						c2.1-0.8,4.4-0.7,6.5,0.3c2.1,1,3.7,2.9,4.4,5.1c1.4,4.6,2.1,6.9,3.5,11.5c9.7,32.5,19.6,65,29.4,96.8c1.1,3.7,1.7,5.5,2.8,9.2
						c0.7,2.3,0.4,4.7-0.8,6.7c-1.2,2-3,3.4-5.2,3.9l-32.5,7.6C223.5,372.3,222.9,372.3,222.2,372.3z M218.8,237.4
						c-0.1,0-0.2,0-0.4,0.1c0,0,0,0,0,0l-31.2,11.8c-0.4,0.2-0.6,0.5-0.7,0.7c-0.1,0.2-0.2,0.5,0,0.9c1.9,4.4,2.8,6.5,4.7,10.9
						c12.4,30.3,21.5,60.5,28,92.5c0.8,4,1.1,6,1.9,9.9c0.1,0.4,0.4,0.7,0.5,0.8c0.2,0.1,0.5,0.3,1,0.2l32.5-7.6
						c0.4-0.1,0.6-0.3,0.7-0.6c0.1-0.2,0.3-0.6,0.1-1.1c-1.1-3.7-1.6-5.5-2.8-9.1c-9.8-31.8-19.7-64.4-29.5-96.9
						c-1.4-4.6-2.1-6.9-3.5-11.4c-0.2-0.5-0.5-0.8-0.7-0.9C219.2,237.5,219,237.4,218.8,237.4z M217.2,234.2L217.2,234.2
						L217.2,234.2z"/>
				</g>
				<g class="st2">
					<path class="st5" d="M223,329.8c-1.1,0.3-1.6,0.4-2.6,0.7c-1.3,0.4-2.2,1.7-1.8,3.1c1.5,5.7,2.2,8.5,3.6,14.2
						c0.3,1.3,1.7,2.2,3,1.9c1.1-0.3,1.6-0.4,2.6-0.6c1.3-0.3,2.2-1.7,1.9-3.1c-1.4-5.7-2.1-8.6-3.6-14.3
						C225.7,330.3,224.4,329.5,223,329.8z"/>
				</g>
				<g class="st2">
					<path class="st5" d="M209.8,284.1c-1,0.3-1.6,0.5-2.6,0.8c-1.3,0.4-2.1,1.8-1.7,3.2c3.4,11.1,6.6,22.2,9.7,33.3
						c0.4,1.3,1.8,2.1,3.1,1.8c1-0.3,1.6-0.4,2.6-0.7c1.3-0.4,2.1-1.8,1.8-3.1c-3.1-11.2-6.4-22.4-9.8-33.6
						C212.6,284.4,211.2,283.7,209.8,284.1z"/>
				</g>
				<g>
					<path class="st1" d="M218.6,222.7c-1.6-3.5-2.4-5.3-4-8.7c-14.2-30.8-28.3-61.6-42.3-92.5c-2-4.4-3-6.6-5-11
						c-1.2-2.6-4.3-3.7-6.7-2.4c-9.8,5.3-19.6,10.6-29.4,15.8c-1.1,0.6-1.8,1.5-2.2,2.6c-0.5,1.3-0.4,2.8,0.4,4.1
						c2.5,4.1,3.7,6.1,6.1,10.2c16.1,28.1,29.4,57.2,40,87.7c1.3,3.8,1.9,5.7,3.1,9.6c0.8,2.6,3.7,4,6.3,3
						c10.4-4,20.8-7.9,31.2-11.9c0.4-0.1,0.8-0.4,1.1-0.6C218.8,227.4,219.5,224.9,218.6,222.7z"/>
				</g>
				<g class="st4">
					<path d="M218.6,222.7c-1.6-3.5-2.4-5.3-4-8.7c-14.2-30.8-28.3-61.6-42.3-92.5c-2-4.4-3-6.6-5-11c-1.2-2.6-4.3-3.7-6.7-2.4
						c-9.8,5.3-19.6,10.6-29.4,15.8c-1.1,0.6-1.8,1.5-2.2,2.6c1.5,2.4,2.2,3.6,3.6,6c1.2,2.1,2.4,4.1,3.7,6.2c6.4-3.3,9.6-5,16-8.3
						c5.9-2.9,12.8-0.2,15.5,5.7c0.4,0.8,0.6,1.3,0.9,2.1c11.2,25.4,22.8,50.8,34.3,75.9c2.7,5.9,0.1,12.9-6,15.4
						c-5.9,2.3-11.8,4.6-17.7,6.9c0.1,0.3,0.1,0.4,0.2,0.7c0.9,2.8,4,4.3,6.7,3.2c10.3-3.9,20.5-7.9,30.8-11.8
						C218.8,227.4,219.5,224.9,218.6,222.7z"/>
				</g>
				<g>
					<path class="st3" d="M183.1,245.1c-1.2,0-2.5-0.3-3.6-0.8c-2-1-3.6-2.8-4.3-4.9c-1.2-3.8-1.9-5.7-3.1-9.5
						c-10.6-30.5-23.5-59-39.7-87.1c-2.4-4.1-3.6-6.1-6-10.1c-1.2-1.9-1.5-4.3-0.9-6.5c0.6-2.2,2.1-4.1,4.1-5.1l29.4-15.8
						c2-1.1,4.3-1.3,6.5-0.6c2.2,0.7,4.1,2.4,5.1,4.5c2.1,4.4,3.1,6.6,5.1,11c14.3,31.6,28.6,62.7,42.3,92.5c1.6,3.5,2.4,5.3,4,8.8
						c1,2.2,1,4.6,0.1,6.8c-0.9,2.1-2.5,3.7-4.7,4.6l-31.2,11.9C185.1,244.9,184.1,245.1,183.1,245.1z M162.7,111.2
						c-0.2,0-0.3,0-0.5,0.1c0,0,0,0,0,0l-29.4,15.8c-0.4,0.2-0.5,0.6-0.6,0.8c-0.1,0.2-0.1,0.6,0.1,1c2.5,4.1,3.7,6.1,6.1,10.3
						c16.4,28.5,29.6,57.4,40.3,88.4c1.3,3.9,1.9,5.8,3.2,9.6c0.1,0.4,0.5,0.6,0.6,0.7c0.2,0.1,0.5,0.2,1,0l31.2-11.9
						c0.4-0.1,0.5-0.4,0.6-0.6c0.1-0.2,0.2-0.6,0-1.2c-1.6-3.5-2.4-5.2-4-8.7c-13.7-29.8-28-60.9-42.3-92.5c-2-4.4-3-6.6-5-10.9
						c-0.2-0.5-0.7-0.7-0.9-0.8C163,111.2,162.9,111.2,162.7,111.2z M160.5,108.2L160.5,108.2L160.5,108.2z"/>
				</g>
				<g class="st2">
					<path class="st5" d="M179.3,202.7c-1,0.4-1.5,0.6-2.5,1c-1.3,0.5-1.9,2-1.4,3.3c2.2,5.4,3.3,8.1,5.4,13.6
						c0.5,1.3,2,1.9,3.3,1.4c1-0.4,1.5-0.6,2.5-1c1.3-0.5,1.9-2,1.4-3.3c-2.2-5.5-3.2-8.2-5.5-13.7
						C182.1,202.8,180.6,202.1,179.3,202.7z"/>
				</g>
				<g>
					<path class="st1" d="M243.7,186.1c-16,28.2-13.2,46-13.2,46s16.7-6.8,32.7-35s25.2-67.3,25.2-67.3S259.7,157.8,243.7,186.1z"/>
				</g>
				<g class="st2">
					<path d="M230,232.5c0,0,17.3-7,33.9-36.2c16.6-29.2,26.3-69.6,26.3-69.6s-5.7,5.5-13.5,14.2c-3.5,12.2-10.7,34.7-20.8,52.5
						c-10,17.6-20.3,26-25.8,29.6C229.5,229,230,232.5,230,232.5z"/>
				</g>
				<g>
					<path class="st3" d="M229.7,235.7c-0.5,0-0.9-0.1-1.3-0.3c-0.7-0.4-1.2-1.1-1.3-1.9c-0.1-0.8-2.8-19.7,14.1-49.4
						c16.6-29.2,46.6-58.5,46.9-58.8c0.8-0.8,2.1-1,3.2-0.4c1,0.6,1.5,1.8,1.3,2.9c-0.1,0.4-10,41.1-26.6,70.3
						c-16.9,29.7-34.5,37-35.3,37.3C230.4,235.6,230,235.7,229.7,235.7z M284.7,136.3c-9.8,10.4-27.6,30.4-38.9,50.3
						c-11.5,20.2-13.4,35.2-13.6,41.9c5.7-3.6,17.6-12.9,29.1-33.1C272.6,175.5,280.8,150,284.7,136.3z"/>
				</g>
				<g>
					<path class="st1" d="M266.6,220.4c-23.4,8.1-30.9,19.6-30.9,19.6s13,4.6,36.4-3.5c23.4-8.1,48.5-25.7,48.5-25.7
						S290,212.3,266.6,220.4z"/>
				</g>
				<g class="st2">
					<path d="M235.3,239.9c0,0,13.4,4.8,37.7-3.5c24.3-8.3,50.3-26.5,50.3-26.5s-6,0.3-14.9,1.3c-8.1,5.2-23.7,14.4-38.5,19.5
						c-14.6,5-24.8,4.6-29.7,3.9C236.7,237.7,235.3,239.9,235.3,239.9z"/>
				</g>
				<g>
					<path class="st3" d="M246,244.1c-7.6,0-11.7-1.4-12-1.5c-0.8-0.3-1.4-0.9-1.6-1.6c-0.3-0.8-0.2-1.6,0.3-2.3
						c0.3-0.5,8.5-12.9,33.4-21.3c24.4-8.3,55.5-9.8,56.8-9.9c1.2,0,2.3,0.7,2.6,1.8c0.4,1.1,0,2.4-1,3c-1.1,0.8-26.6,18.5-51,26.8
						C261.8,243,252.6,244.1,246,244.1z M239.8,238.4c5.5,0.7,16.4,0.9,31.9-4.3c15.3-5.2,31.4-14.5,41-20.5
						c-11.3,1.1-29.7,3.6-45,8.8C252.2,227.6,243.7,234.5,239.8,238.4z"/>
				</g>
				<g>
					<path class="st1" d="M96.5,176.4c31.3-8.5,47.9-1.4,47.9-1.4s-10.7,14.5-42,23c-31.3,8.5-71.4,7.8-71.4,7.8
						S65.2,184.9,96.5,176.4z"/>
				</g>
				<g class="st2">
					<path d="M144.8,174.6c0,0-11,15-43.5,23.9c-32.4,8.9-74,8.3-74,8.3s6.8-4.1,17.1-9.5c12.6-0.4,36.2-1.8,56-7.2
						c19.5-5.3,30.2-13.2,35-17.6C141.6,173.2,144.8,174.6,144.8,174.6z"/>
				</g>
				<g>
					<path class="st3" d="M29.5,209.3c-1,0-1.5,0-1.5,0c-1.2,0-2.2-0.8-2.5-2c-0.3-1.1,0.2-2.4,1.2-3c0.4-0.2,36.1-22,68.5-30.9
						c32.9-9,50.6-1.8,51.3-1.5c0.7,0.3,1.3,1,1.5,1.7c0.2,0.8,0.1,1.6-0.4,2.3c-0.5,0.6-12,15.9-44.9,24.9
						C73.8,208.8,37.4,209.3,29.5,209.3z M125.9,174.3c-7.6,0-17.4,1-29.4,4.3c-22.1,6.1-45.9,18.3-58.4,25.3c14.3-0.4,41-2,63.1-8
						c22.4-6.2,34.4-15.4,39.3-20C137.5,175,132.6,174.3,125.9,174.3z"/>
				</g>
				<g>
					<path class="st1" d="M104.2,142.9c26.4,8.7,34.8,21.5,34.8,21.5s-14.4,5.3-40.8-3.3s-54.7-28-54.7-28S77.9,134.2,104.2,142.9z"
						/>
				</g>
				<g class="st2">
					<path d="M139.6,164.3c0,0-14.9,5.5-42.3-3.4C70,152,40.6,132.1,40.6,132.1s6.8,0.2,16.7,1.2c9.2,5.7,26.7,15.8,43.4,21.2
						c16.4,5.3,27.8,4.8,33.3,3.9C138,161.8,139.6,164.3,139.6,164.3z"/>
				</g>
				<g>
					<path class="st3" d="M126.7,168.8c-7.3,0-17.3-1.1-29.8-5.2c-27.4-8.9-56.2-28.4-57.4-29.2c-1-0.7-1.4-1.9-1-3
						c0.4-1.1,1.5-1.9,2.6-1.8c1.5,0,36.2,1.3,63.6,10.2c27.9,9.1,37.2,22.7,37.6,23.2c0.5,0.7,0.6,1.5,0.3,2.3
						c-0.3,0.8-0.8,1.4-1.6,1.7C140.7,167.1,135.8,168.8,126.7,168.8z M51.2,135.5c10.7,6.5,29.6,17.2,47.4,23.1
						c18.1,5.9,30.6,5.2,36.6,4.3c-4.3-4.3-14-12.2-32.1-18.1C85.3,139,63.7,136.5,51.2,135.5z"/>
				</g>
				<g class="st2">
					<path class="st5" d="M161,160.1c-1,0.4-1.5,0.7-2.5,1.1c-1.3,0.6-1.8,2.1-1.3,3.4c4.7,10.6,9.3,21.3,13.7,32
						c0.5,1.3,2,1.9,3.3,1.4c1-0.4,1.5-0.6,2.5-1c1.3-0.5,1.9-2,1.4-3.3c-4.5-10.8-9.1-21.6-13.8-32.3
						C163.7,160.1,162.2,159.5,161,160.1z"/>
				</g>
			</g>
		</g>
		<g>
			<g class="st2">
				<ellipse cx="318.6" cy="740.8" rx="170.3" ry="27.1"/>
			</g>
			<g>
				<path class="st6" d="M190.1,637.6c-0.8,10.4-7.3,19.9-23.6,26.9c-19,8.1-35.3,2-47.7-17.7c-10.7-17.1-10.3-34.7-4.2-48.2
					c4.8-10.7,13.2-18.8,22.3-22c19.5-6.8,33.5,11.9,44.8,32.3C187,618.4,190.8,628.4,190.1,637.6z"/>
			</g>
			<g class="st4">
				<path class="st5" d="M190.1,637.6c-0.4,5-2.1,9.8-5.5,14.2c0.1-0.8,0.2-1.6,0.3-2.4c0.7-9.2-3.1-19.2-8.4-28.7
					c-11.4-20.3-25.3-39-44.8-32.3c-7.5,2.6-14.5,8.5-19.4,16.5c0.6-2.1,1.4-4.2,2.3-6.2c4.8-10.7,13.2-18.8,22.3-22
					c19.5-6.8,33.5,11.9,44.8,32.3C187,618.4,190.8,628.4,190.1,637.6z"/>
			</g>
			<g class="st7">
				<path class="st3" d="M190.1,637.6c-0.8,10.4-7.3,19.9-23.6,26.9c-19,8.1-35.3,2-47.7-17.7c-10.7-17.1-10.3-34.7-4.2-48.2
					c3.9,12.2,12,24.1,25.6,33.2C158.5,644.2,175.4,646.1,190.1,637.6z"/>
			</g>
			<g>
				<path class="st3" d="M150.6,671.9c-13.7,0-25.6-7.8-35.2-23.1c-9.5-15-11.6-32-6.1-47.7c4.7-13.4,14.8-24.3,26.3-28.3l0,0
					c22.7-7.9,38.4,14.1,49.6,34.1c8.6,15.3,11,27.9,7.4,38.4c-3.3,9.5-11.5,17.2-24.5,22.7C162,670.6,156.2,671.9,150.6,671.9z
					 M138.2,580.3c-9.3,3.2-17.5,12.2-21.4,23.4c-4.7,13.4-2.8,27.9,5.3,40.9c11.3,18,25.7,23.4,42.8,16.2
					c10.8-4.6,17.6-10.7,20.1-18c2.8-8.3,0.6-18.8-6.8-32C163.7,584.7,151.7,575.6,138.2,580.3L138.2,580.3z"/>
			</g>
			<g>
				<path class="st5" d="M518.6,661.1v0.4c0,0,0,0,0,0c0,7.8-1.7,16.5-4.4,25.2c-0.3,1-0.7,2-1,3.1c-1.1,3.1-2.3,6.1-3.6,9.1
					c-0.7,1.5-1.3,3-2,4.5c-0.9,2-1.9,3.9-2.9,5.7c-1,1.9-2,3.7-3.1,5.5c-1.3,2.2-2.7,4.3-4.1,6.3c-0.3,0.4-0.5,0.8-0.8,1.2
					c-1.1,1.6-2.2,3.1-3.4,4.5c-1.7,2.1-3.4,4-5.1,5.7c-3.4,3.4-6.7,5.8-9.8,6.9h0c-0.4,0.1-0.8,0.3-1.2,0.4c-0.3,0.1-0.6,0.2-1,0.3
					h0c-0.2,0.1-0.5,0.1-0.7,0.2c0,0-0.1,0-0.1,0c-0.1,0-0.3,0.1-0.4,0.1c-0.2,0-0.3,0.1-0.4,0.1c0,0-0.1,0-0.1,0
					c-0.1,0-0.3,0.1-0.4,0.1c-0.1,0-0.3,0-0.4,0.1c-0.2,0.1-0.5,0.1-0.7,0.1c-0.2,0-0.5,0.1-0.7,0.1c-0.2,0-0.5,0.1-0.7,0.1
					c-0.2,0-0.4,0-0.7,0c-0.2,0-0.4,0-0.5,0c-0.7,0-1.3,0-2,0c-0.3,0-0.7,0-1-0.1c-0.3,0-0.5-0.1-0.8-0.1c-0.1,0-0.3,0-0.4-0.1
					c-0.3,0-0.5-0.1-0.8-0.1c-0.6-0.1-1.2-0.2-1.8-0.4c-0.3-0.1-0.6-0.2-0.9-0.3c-0.3-0.1-0.6-0.2-0.9-0.3c-0.3-0.1-0.6-0.2-0.9-0.3
					c-0.3-0.1-0.5-0.2-0.8-0.3c0,0-0.1,0-0.1,0c-0.5-0.2-0.9-0.4-1.4-0.6c-0.3-0.2-0.6-0.3-0.9-0.4c-0.1,0-0.2-0.1-0.2-0.1
					c-1.1-0.6-2.1-1.2-3-1.8c-0.1-0.1-0.2-0.1-0.3-0.2c-0.2-0.1-0.4-0.3-0.5-0.4c-0.2-0.1-0.4-0.3-0.5-0.4c-0.2-0.1-0.4-0.3-0.5-0.4
					c-0.2-0.1-0.3-0.2-0.4-0.4c-0.2-0.2-0.4-0.3-0.6-0.5c-0.2-0.2-0.4-0.3-0.6-0.5h0c-0.1-0.1-0.3-0.2-0.4-0.4
					c-0.4-0.4-0.7-0.7-1.1-1c-0.1-0.1-0.3-0.3-0.4-0.4c-0.6-0.7-1.1-1.2-1.3-1.5c-0.1-0.1-0.2-0.2-0.2-0.3c0,0,0,0,0,0c0,0,0,0,0,0
					c-0.6-0.1-1.2-0.3-1.8-0.4c0,0,0,0,0,0c-40.7-8.2-115.6,2.2-140,5.9c-4.8,0.7-7.7,1.2-7.9,1.3l5.5-1.8c-1.3-0.3-2.7-0.7-4.1-1.1
					c-0.4,1-0.9,2-1.4,2.9c-1.3,2.4-2.7,4.4-4.3,5.8c-14.2,13.4-32,3.3-32,3.3c-69,34.1-103-28.8-103-28.8
					c-13.4-33.5-9-72.8,1.9-109c4.6-15.1,10.3-29.7,16.3-43.1c15.2-33.9,32.3-60.4,38.5-69.6l2.2-10.5l114.8-5l78.8,3.9l18.6,12.9
					l3.4,2.4c0,0,0,0,0,0.1c3.7,13.9,9.7,39,13.7,68.1c0.4,3.2,0.9,6.4,1.3,9.7c1.2,10.3,2.2,21.1,2.7,31.9c1.4,0,2.7,0.2,3.9,0.4
					c0,0,0,0,0,0c12,2.4,17.8,14.7,20.8,32.6c0.1-0.1,0.2-0.2,0.3-0.3c0.4-0.4,0.7-0.7,1.1-1c0.3-0.2,0.5-0.5,0.8-0.7
					c0.4-0.3,0.8-0.7,1.2-1c0,0,0.1-0.1,0.1-0.1c0.2-0.2,0.4-0.3,0.6-0.4c0,0,0,0,0,0c0.1-0.1,0.3-0.2,0.4-0.3c0,0,0.1,0,0.1-0.1
					c0.3-0.2,0.6-0.4,0.9-0.6c0.1,0,0.1-0.1,0.2-0.1c0.2-0.1,0.3-0.2,0.5-0.3c0.1-0.1,0.3-0.2,0.4-0.3c0.1-0.1,0.3-0.2,0.4-0.2
					c0.3-0.2,0.6-0.3,0.9-0.5c0.1-0.1,0.3-0.1,0.4-0.2c0.1,0,0.1-0.1,0.2-0.1c0.2-0.1,0.4-0.2,0.6-0.3c0,0,0,0,0,0
					c0.4-0.2,0.8-0.4,1.3-0.5c0,0,0.1,0,0.1,0c0.6-0.2,1.2-0.4,1.7-0.5c0.1,0,0.2,0,0.2-0.1c0,0,0,0,0.1,0c0.5-0.1,1-0.3,1.6-0.4
					c0,0,0.1,0,0.1,0c1-0.2,1.9-0.3,2.9-0.3c0,0,0.1,0,0.1,0c0.3,0,0.5,0,0.8,0c0.1,0,0.2,0,0.2,0c0.5,0,1.1,0,1.6,0.1
					c0.2,0,0.4,0,0.6,0.1c0.4,0,0.8,0.1,1.2,0.2c0.2,0,0.4,0,0.5,0.1c0.5,0.1,1,0.2,1.5,0.3c0.2,0.1,0.4,0.1,0.6,0.2
					c0.4,0.1,0.8,0.2,1.2,0.4c0.3,0.1,0.6,0.2,1,0.3c0.3,0.1,0.5,0.2,0.8,0.3c0.3,0.1,0.5,0.2,0.8,0.4c0.1,0.1,0.2,0.1,0.4,0.2
					c0.1,0,0.2,0.1,0.3,0.2c0.3,0.2,0.7,0.3,1,0.5c0.1,0.1,0.2,0.1,0.3,0.2c0,0,0,0,0,0c0.1,0.1,0.3,0.2,0.4,0.2
					c0.2,0.1,0.4,0.2,0.5,0.3c0.4,0.3,0.9,0.5,1.3,0.8c0.1,0.1,0.2,0.1,0.2,0.2c0.3,0.2,0.7,0.5,1,0.7c0.1,0.1,0.3,0.2,0.4,0.3
					c0.1,0,0.1,0.1,0.2,0.1c0.2,0.2,0.4,0.3,0.6,0.5c0.1,0.1,0.2,0.2,0.3,0.3c0,0,0.1,0.1,0.1,0.1c0.2,0.2,0.4,0.3,0.5,0.5
					c0,0,0,0,0,0c0.2,0.2,0.4,0.4,0.6,0.5c0,0,0,0,0,0s0,0,0,0c0,0,0,0,0,0c0.4,0.4,0.8,0.8,1.1,1.2c0,0.1,0.1,0.1,0.2,0.2
					c0.3,0.3,0.5,0.6,0.7,0.9c0.3,0.4,0.5,0.7,0.8,1.1c0,0.1,0.1,0.1,0.1,0.2c0.2,0.3,0.4,0.6,0.5,0.8c0,0.1,0.1,0.1,0.1,0.2
					c0.2,0.3,0.4,0.7,0.5,1c0,0.1,0.1,0.2,0.1,0.3c0.2,0.5,0.4,1,0.6,1.5c0.1,0.3,0.2,0.5,0.3,0.8c0.1,0.4,0.2,0.7,0.3,1.1
					c0.1,0.3,0.2,0.6,0.2,0.9c0.1,0.4,0.2,0.7,0.3,1.1c0.1,0.3,0.1,0.6,0.2,1c0.1,0.4,0.1,0.7,0.2,1.1c0.1,0.3,0.1,0.7,0.2,1
					c0,0.3,0.1,0.6,0.1,1c0.1,0.8,0.1,1.6,0.2,2.4c0,0.2,0,0.4,0,0.7C518.6,660.1,518.6,660.6,518.6,661.1z"/>
			</g>
			<g>
				<path class="st6" d="M518.6,661.1v0.4c0,0,0,0,0,0c0,7.8-1.7,16.5-4.4,25.2c-0.3,1-0.7,2-1,3.1c-1.1,3.1-2.3,6.1-3.6,9.1
					c-0.7,1.5-1.3,3-2,4.5c-0.9,2-1.9,3.9-2.9,5.7c-1,1.9-2,3.7-3.1,5.5c-1.3,2.2-2.7,4.3-4.1,6.3c-0.3,0.4-0.5,0.8-0.8,1.2
					c-1.1,1.6-2.2,3.1-3.4,4.5c-1.7,2.1-3.4,4-5.1,5.7c-3.4,3.4-6.7,5.8-9.8,6.9h0c-0.4,0.1-0.8,0.3-1.2,0.4c-0.3,0.1-0.6,0.2-1,0.3
					h0c-0.2,0.1-0.5,0.1-0.7,0.2c0,0-0.1,0-0.1,0c-0.1,0-0.3,0.1-0.4,0.1c-0.2,0-0.3,0.1-0.4,0.1c0,0-0.1,0-0.1,0
					c-0.1,0-0.3,0.1-0.4,0.1c-0.1,0-0.3,0-0.4,0.1c-0.2,0.1-0.5,0.1-0.7,0.1c-0.2,0-0.5,0.1-0.7,0.1c-0.2,0-0.5,0.1-0.7,0.1
					c-0.2,0-0.4,0-0.7,0c-0.2,0-0.4,0-0.5,0c-0.7,0-1.3,0-2,0c-0.3,0-0.7,0-1-0.1c-0.3,0-0.5-0.1-0.8-0.1c-0.1,0-0.3,0-0.4-0.1
					c-0.3,0-0.5-0.1-0.8-0.1c-0.6-0.1-1.2-0.2-1.8-0.4c-0.3-0.1-0.6-0.2-0.9-0.3c-0.3-0.1-0.6-0.2-0.9-0.3c-0.3-0.1-0.6-0.2-0.9-0.3
					c-0.3-0.1-0.5-0.2-0.8-0.3c0,0-0.1,0-0.1,0c-0.5-0.2-0.9-0.4-1.4-0.6c-0.3-0.2-0.6-0.3-0.9-0.4c-0.1,0-0.2-0.1-0.2-0.1
					c-1.1-0.6-2.1-1.2-3-1.8c-0.1-0.1-0.2-0.1-0.3-0.2c-0.2-0.1-0.4-0.3-0.5-0.4c-0.2-0.1-0.4-0.3-0.5-0.4c-0.2-0.1-0.4-0.3-0.5-0.4
					c-0.2-0.1-0.3-0.2-0.4-0.4c-0.2-0.2-0.4-0.3-0.6-0.5c-0.2-0.2-0.4-0.3-0.6-0.5h0c-0.1-0.1-0.3-0.2-0.4-0.4
					c-0.4-0.4-0.7-0.7-1.1-1c-0.1-0.1-0.3-0.3-0.4-0.4c-0.6-0.7-1.1-1.2-1.3-1.5c-0.1-0.1-0.2-0.2-0.2-0.3c0,0,0,0,0,0c0,0,0,0,0,0
					c-0.6-0.1-1.2-0.3-1.8-0.4c0,0,0,0,0,0c-40.7-8.2-115.6,2.2-140,5.9c-4.8,0.7-7.7,1.2-7.9,1.3c-1.3,2.4-2.7,4.4-4.3,5.8
					c-14.2,13.4-32,3.3-32,3.3c-69,34.1-103-28.8-103-28.8c-13.4-33.5-9-72.8,1.9-109c12.2-1,34.7-0.8,61.2,8.7
					c0.6,0.2,1.1,0.4,1.7,0.6c4.3,1.6,12.3,16.3,25.8,32.5c15.7,18.9,38.9,40,72.3,45.1c26.6,4.1,54.5,2.3,82.9-2
					c47.8-7.3,46.4-59.4,46.4-59.4l0.1-17.8l0-6.9c14.2,0.3,21,12.5,24.4,31.4c0.1,0.5,0.2,1.1,0.3,1.7c0.1-0.1,0.2-0.2,0.3-0.3
					c0.4-0.4,0.7-0.7,1.1-1c0.3-0.2,0.5-0.5,0.8-0.7c0.4-0.3,0.8-0.7,1.2-1c0,0,0.1-0.1,0.1-0.1c0.2-0.2,0.4-0.3,0.6-0.4
					c0,0,0,0,0,0c0.1-0.1,0.3-0.2,0.4-0.3c0,0,0.1,0,0.1-0.1c0.3-0.2,0.6-0.4,0.9-0.6c0.1,0,0.1-0.1,0.2-0.1
					c0.2-0.1,0.3-0.2,0.5-0.3c0.1-0.1,0.3-0.2,0.4-0.3c0.1-0.1,0.3-0.2,0.4-0.2c0.3-0.2,0.6-0.3,0.9-0.5c0.1-0.1,0.3-0.1,0.4-0.2
					c0.1,0,0.1-0.1,0.2-0.1c0.2-0.1,0.4-0.2,0.6-0.3c0,0,0,0,0,0c0.4-0.2,0.8-0.4,1.3-0.5c0,0,0.1,0,0.1,0c0.6-0.2,1.2-0.4,1.7-0.5
					c0.1,0,0.2,0,0.2-0.1c0,0,0,0,0.1,0c0.5-0.1,1-0.3,1.6-0.4c0,0,0.1,0,0.1,0c1-0.2,1.9-0.3,2.9-0.3c0,0,0.1,0,0.1,0
					c0.3,0,0.5,0,0.8,0c0.1,0,0.2,0,0.2,0c0.5,0,1.1,0,1.6,0.1c0.2,0,0.4,0,0.6,0.1c0.4,0,0.8,0.1,1.2,0.2c0.2,0,0.4,0,0.5,0.1
					c0.5,0.1,1,0.2,1.5,0.3c0.2,0.1,0.4,0.1,0.6,0.2c0.4,0.1,0.8,0.2,1.2,0.4c0.3,0.1,0.6,0.2,1,0.3c0.3,0.1,0.5,0.2,0.8,0.3
					c0.3,0.1,0.5,0.2,0.8,0.4c0.1,0.1,0.2,0.1,0.4,0.2c0.1,0,0.2,0.1,0.3,0.2c0.3,0.2,0.7,0.3,1,0.5c0.1,0.1,0.2,0.1,0.3,0.2
					c0,0,0,0,0,0c0.1,0.1,0.3,0.2,0.4,0.2c0.2,0.1,0.4,0.2,0.5,0.3c0.4,0.3,0.9,0.5,1.3,0.8c0.1,0.1,0.2,0.1,0.2,0.2
					c0.3,0.2,0.7,0.5,1,0.7c0.1,0.1,0.3,0.2,0.4,0.3c0.1,0,0.1,0.1,0.2,0.1c0.2,0.2,0.4,0.3,0.6,0.5c0.1,0.1,0.2,0.2,0.3,0.3
					c0,0,0.1,0.1,0.1,0.1c0.2,0.2,0.4,0.3,0.5,0.5c0,0,0,0,0,0c0.2,0.2,0.4,0.4,0.6,0.5c0,0,0,0,0,0s0,0,0,0c0,0,0,0,0,0
					c0.4,0.4,0.8,0.8,1.1,1.2c0,0.1,0.1,0.1,0.2,0.2c0.3,0.3,0.5,0.6,0.7,0.9c0.3,0.4,0.5,0.7,0.8,1.1c0,0.1,0.1,0.1,0.1,0.2
					c0.2,0.3,0.4,0.6,0.5,0.8c0,0.1,0.1,0.1,0.1,0.2c0.2,0.3,0.4,0.7,0.5,1c0,0.1,0.1,0.2,0.1,0.3c0.2,0.5,0.4,1,0.6,1.5
					c0.1,0.3,0.2,0.5,0.3,0.8c0.1,0.4,0.2,0.7,0.3,1.1c0.1,0.3,0.2,0.6,0.2,0.9c0.1,0.4,0.2,0.7,0.3,1.1c0.1,0.3,0.1,0.6,0.2,1
					c0.1,0.4,0.1,0.7,0.2,1.1c0.1,0.3,0.1,0.7,0.2,1c0,0.3,0.1,0.6,0.1,1c0.1,0.8,0.1,1.6,0.2,2.4c0,0.2,0,0.4,0,0.7
					C518.6,660.1,518.6,660.6,518.6,661.1z"/>
			</g>
			<g class="st0">
				<path class="st5" d="M475.5,640c-9.5-18.6-19.8-23.3-24.5-24.4l0-6.9C465.3,608.9,472,621.1,475.5,640z"/>
			</g>
			<g class="st4">
				<path class="st5" d="M246.9,685c-5.7-38.8-26.3-66.5-26.3-66.5s0.5-0.9,1.4-2.1c0.6,0.2,1.1,0.4,1.7,0.6
					c4.3,1.6,12.3,16.3,25.8,32.5C251.7,669.4,246.9,685,246.9,685z"/>
			</g>
			<g>
				<path class="st6" d="M448.4,576.7c-47.8,20.2-121,21.9-177.6,10.5c-36.1-7.3-69.4-21.8-93.8-22.5c8.8-19.6,18.2-36.8,25.9-49.6
					c4.7-7.8,8.6-14,11.3-18c0.5-0.7,0.9-1.4,1.3-2l2.2-10.5l114.8-5l94.5-7.9l6.3,27.1c0,0,0,0,0,0c1.2,3.5,2.3,7.6,3.5,12.2
					c2.2,8.4,4.3,18.4,6.2,29.7C445,551.7,446.8,563.8,448.4,576.7z"/>
			</g>
			<g>
				<path class="st3" d="M478.5,672c-2.1,0-3.8-1.6-3.9-3.7c-2-34.8-6.5-54.3-24.3-57.8c-2.1-0.4-3.5-2.5-3.1-4.6
					c0.4-2.1,2.5-3.5,4.6-3.1c25.2,4.8,28.9,33.5,30.7,65.1c0.1,2.2-1.5,4-3.7,4.2C478.6,671.9,478.5,672,478.5,672z"/>
			</g>
			<g class="st2">
				<path d="M475.7,740c0,0-0.1,0-0.1,0c0,0-0.1,0-0.1,0c-0.3,0.1-0.5,0.1-0.8,0.2c0,0-0.1,0-0.1,0c-0.3,0.1-0.5,0.1-0.8,0.2
					c-0.9,0.2-1.9,0.3-2.8,0.3c-0.2,0-0.4,0-0.7,0c-5.9,0.2-10.9-1.8-14.7-4.2c-0.4-0.3-0.9-0.5-1.3-0.8c-0.7-0.5-1.4-1-2.1-1.6
					c-0.4-0.3-0.8-0.7-1.2-1c0,0,0,0,0,0c-0.5-0.5-1-1-1.4-1.4c-0.1-0.2-0.3-0.3-0.4-0.4c-0.9-0.9-1.4-1.6-1.5-1.7c0,0,0,0,0,0v0
					c0,0,0,0,0,0c-0.6-0.1-1.2-0.3-1.8-0.4c0,0,0,0,0,0c-40.7-8.2-115.6,2.2-140,5.9c-4.8,0.7-7.7,1.2-7.9,1.3l5.2-25.6
					c56.1-18.1,148.2-10.5,148.2-10.5v0c-1.2,4.8-2.2,9.6-2.9,14.5C446.5,730.6,460.7,743.7,475.7,740z"/>
			</g>
			<g>
				<path class="st5" d="M478.4,739.1c-0.4,0.1-0.8,0.3-1.1,0.4c-15.5,5-30.8-8.3-28.7-24.5c1.2-9.5,4.1-18.7,6.1-27.8
					c0.3-1.2,0.6-2.3,1.1-3.4l0,0c18.4-72.7,54.9-49.1,60.2-37C527.8,673.7,497.9,731.9,478.4,739.1z"/>
			</g>
			<g class="st2">
				<path d="M518.6,661.5c0,2.4-0.2,4.8-0.4,7.3c-0.1,0.8-0.2,1.7-0.3,2.5c-0.5,3.2-1.1,6.4-2,9.6c-0.2,0.7-0.4,1.5-0.6,2.2
					c-1.4,4.9-3.2,9.8-5.2,14.6c-0.3,0.7-0.6,1.4-0.9,2.1c-1.9,4.3-4,8.5-6.3,12.4c-0.3,0.6-0.7,1.1-1,1.7c-0.4,0.6-0.7,1.2-1.1,1.8
					c-0.5,0.9-1.1,1.7-1.6,2.6c-0.7,1-1.3,2-2,3c-0.3,0.5-0.7,0.9-1,1.4c-2.3,3.3-4.8,6.2-7.1,8.7c-0.3,0.3-0.6,0.6-0.9,0.9
					c-3.4,3.4-6.7,5.8-9.8,6.9c-0.4,0.1-0.8,0.3-1.1,0.4c-0.3,0.1-0.6,0.2-0.9,0.3c-15.2,4.3-30-8.9-27.9-24.8
					c0.6-4.9,1.7-9.7,2.9-14.5c0.1,0.5,3.7,13.4,13.9,18.6c4.1,2.1,9.3,2.9,15.7,1.1c1.8-0.5,3.7-1.4,5.6-2.8
					C499,708.7,512.9,683.9,518.6,661.5z"/>
			</g>
			<g>
				<path class="st3" d="M469.4,744.7c-0.3,0-0.7,0-1.1,0c-0.5,0-0.8,0-1.2-0.1l-1.4-0.2c-0.3,0-0.6-0.1-1-0.1
					c-0.6-0.1-1.3-0.3-2-0.4l-1.5-0.4c-0.2-0.1-0.5-0.1-0.7-0.2l-2.3-0.9c-1.7-0.7-3.3-1.6-4.8-2.5c-0.5-0.3-0.9-0.6-1.4-0.9
					l-0.1-0.1c-0.1-0.1-0.3-0.2-0.4-0.3c-0.2-0.2-0.5-0.3-0.7-0.5c-0.1-0.1-2.3-1.8-2.3-1.8l-0.3-0.3c-1.4-1.4-2.2-2.2-2.7-2.7
					l-0.5-0.1c-0.1,0-0.3-0.1-0.4-0.1l-0.8-0.2c-40.6-7.6-115.3,2.8-137.4,6.2c-4.5,0.7-7.4,1.2-7.7,1.2l-0.4,0.1l-0.4,0
					c-2.2,0-3.9-1.8-3.9-3.9c0-2,1.5-3.6,3.4-3.9c0.8-0.1,3.8-0.6,7.8-1.3c28.9-4.5,100.4-13.9,140.9-6h1.3l0.3,0.3
					c0.2,0,0.3,0.1,0.5,0.1c1.4,0.3,2.2,1.2,2.5,1.6c0.2,0.3,1.6,1.6,2.8,2.8c0.4,0.4,1.7,1.4,1.9,1.6c0.1,0.1,0.2,0.2,0.4,0.3
					l0.6,0.4c0.3,0.2,0.7,0.5,1.1,0.7c1,0.7,2.1,1.2,3.2,1.7h0.4l0.7,0.4c0.1,0,0.2,0.1,0.2,0.1l1,0.4c0.1,0,0.2,0.1,0.4,0.1l1,0.3
					c0.5,0.1,1,0.2,1.5,0.3c0.2,0,0.4,0.1,0.6,0.1c0.1,0,0.3,0,0.4,0.1l0.7,0.1c0.2,0,0.5,0,0.8,0.1c0.4,0,1,0,1.5,0
					c0.2,0,0.3,0,0.5,0l0.2,0c0.2,0,0.3,0,0.5,0c0.2,0,0.3,0,0.5-0.1c0.3,0,0.4-0.1,0.6-0.1l0.2,0c0.1,0,0.3,0,0.4-0.1l2-0.4
					c0.1,0,0.2,0,0.2-0.1l0.5-0.2c0.1,0,0.2-0.1,0.3-0.1c0.3-0.1,0.7-0.2,1-0.3l0.4-0.2c2.4-1,5.2-3,8.1-5.9
					c1.5-1.5,3.2-3.3,4.8-5.4c1.1-1.4,2.2-2.8,3.2-4.3c0.3-0.4,0.5-0.8,0.8-1.1c1.4-2,2.7-4,4-6.2c1-1.7,2-3.5,3-5.3
					c1-1.8,1.9-3.7,2.8-5.6c0.8-1.6,1.4-3,2-4.3c1.3-2.9,2.4-5.9,3.5-8.8c0.4-1,0.7-2,1-3c4.9-15.5,5.6-28.6,1.9-37
					c-0.2-0.5-0.7-1.4-1.5-2.5c-0.2-0.3-0.4-0.5-0.6-0.8c-0.3-0.3-0.7-0.7-1.1-1.1c-0.1-0.1-0.3-0.3-0.4-0.4
					c-0.3-0.3-0.6-0.5-0.9-0.8l-0.5-0.4c-1.1-0.9-2.3-1.7-3.5-2.4l-0.5-0.3c-0.3-0.2-0.6-0.3-0.9-0.5c-0.8-0.4-1.5-0.7-2.3-0.9
					c-2.7-0.9-5.5-1.3-8.2-1c-0.9,0.1-1.8,0.3-2.7,0.5l-0.1,0l-0.3,0.1c-0.9,0.3-1.7,0.5-2.4,0.9l-0.5,0.2c-0.4,0.2-0.9,0.5-1.4,0.7
					l-0.6,0.3c-0.4,0.3-0.9,0.6-1.4,0.9c-0.1,0.1-0.3,0.2-0.4,0.3l-0.1,0.1c-0.1,0.1-0.2,0.2-0.4,0.3l-0.1,0.1
					c-0.1,0.1-0.3,0.2-0.4,0.3c-0.6,0.5-1.2,1-1.7,1.5c-1.6,1.5-4.1,1.4-5.6-0.2s-1.4-4.1,0.2-5.6c0.7-0.6,1.4-1.3,2.1-1.8
					c0.2-0.2,0.4-0.3,0.6-0.5c0.2-0.2,0.4-0.3,0.7-0.5c0.2-0.2,0.4-0.3,0.6-0.4c0.6-0.4,1.2-0.8,1.9-1.2l0.7-0.4
					c0.7-0.4,1.4-0.7,2-1l0.6-0.3c1.1-0.5,2.2-0.9,3.3-1.2c0.2-0.1,0.4-0.1,0.6-0.2c1.4-0.4,2.7-0.6,4-0.7c3.9-0.4,7.7,0.1,11.5,1.4
					c1,0.4,2,0.8,3,1.2c0.3,0.1,0.6,0.3,0.9,0.5h3l0,1.7c0.9,0.6,1.8,1.2,2.6,1.9l0.7,0.6c0.4,0.3,0.7,0.6,1,0.9
					c0.2,0.2,0.4,0.4,0.7,0.7c0.5,0.5,1,1.1,1.5,1.6c0.3,0.4,0.6,0.7,0.9,1.1c1.1,1.4,1.9,2.8,2.5,4.1c5.8,13.1,2.3,30.4-1.6,42.6
					c-0.3,1-0.7,2.1-1.1,3.2c-1.1,3.1-2.3,6.3-3.7,9.4c-0.6,1.4-1.3,2.9-2.1,4.6c-0.9,2-1.9,4-3,5.9c-1,1.9-2.1,3.8-3.2,5.6
					c-1.4,2.3-2.8,4.5-4.2,6.6c-0.3,0.4-0.6,0.9-0.9,1.3c-1.1,1.6-2.3,3.1-3.5,4.6c-1.8,2.3-3.7,4.3-5.4,6.1
					c-3.9,3.9-7.7,6.5-11.2,7.8l-0.7,0.2c-0.2,0.1-0.5,0.2-0.7,0.2c-0.3,0.1-0.7,0.2-1,0.3l-0.6,0.2c0,0-0.1,0-0.1,0
					c-0.1,0-0.3,0.1-0.4,0.1c0,0,0,0-0.1,0l-0.3,0.1l0,0l-0.4,0.2l-0.6,0c-0.1,0-0.3,0.1-0.5,0.1c-0.3,0.1-0.6,0.1-0.8,0.1
					c-0.2,0-0.5,0.1-0.7,0.1l-0.1,0c-0.3,0-0.5,0.1-0.8,0.1c-0.3,0-0.5,0-0.8,0.1c-0.3,0-0.6,0-0.9,0
					C470,744.7,469.7,744.7,469.4,744.7z"/>
			</g>
			<g>
				<path class="st3" d="M455.2,683.9L455.2,683.9l0-0.1c0.1-2,0.3-4,0.6-6c0.2-2,0.6-3.9,1-5.9c0.4-2,0.8-4,1.4-5.9
					c0.6-1.9,1.1-3.9,1.7-5.9l1-2.9l0.6-1.5c0.2-0.5,0.4-0.9,0.6-1.4c0.4-0.9,0.8-1.9,1.3-2.8l1.5-2.7c1-1.8,2.2-3.6,3.5-5.2
					c0.6-0.8,1.4-1.7,2.1-2.4c0.8-0.8,1.5-1.5,2.4-2.2c1.7-1.4,4.2-1.1,5.6,0.6c1.2,1.4,1.1,3.5,0.1,4.9l-0.1,0.1l-1.6,2.1
					c-0.6,0.7-1.1,1.4-1.6,2.1c-0.5,0.8-1.1,1.5-1.6,2.2c-0.5,0.7-1,1.5-1.5,2.3c-1,1.6-2.1,3.1-3,4.7l-1.4,2.4l-1.4,2.5
					c-0.8,1.7-1.7,3.4-2.6,5.2l-1.3,2.6c-0.4,0.9-0.8,1.7-1.2,2.6c-1.7,3.6-3.2,7.1-5,10.8l0-0.1l0,0c-0.1,0.3-0.4,0.5-0.7,0.5
					C455.4,684.3,455.2,684.1,455.2,683.9z"/>
			</g>
			<g>
				
					<ellipse transform="matrix(0.42 -0.9075 0.9075 0.42 -359.1727 843.297)" class="st8" cx="480.2" cy="702.7" rx="24.3" ry="13.4"/>
			</g>
			<g>
				<ellipse transform="matrix(0.42 -0.9075 0.9075 0.42 -324.2235 820.2106)" class="st8" cx="479.6" cy="663.8" rx="9" ry="4.9"/>
			</g>
			<g>
				
					<ellipse transform="matrix(0.42 -0.9075 0.9075 0.42 -311.1811 834.3331)" class="st8" cx="497.2" cy="660.6" rx="12.5" ry="6.9"/>
			</g>
			<g>
				
					<ellipse transform="matrix(0.42 -0.9075 0.9075 0.42 -323.4169 851.3835)" class="st8" cx="504.4" cy="678.7" rx="8.3" ry="4.5"/>
			</g>
			<g>
				<path class="st3" d="M448.2,656.9c-1.5-4.2-1.8-8.2-1.8-12.2c-0.1-4,0.2-8,0.4-12.1c0.2-4,0.1-8.1,0.1-12.1
					c-0.1-4-0.2-8.1-0.4-12.1c-0.4-8.1-0.9-16.2-1.7-24.1c-0.9-8-2-16.1-3.1-24.1c-2.3-16-5.1-32-8.9-47.7c-1-3.9-2-7.8-3.1-11.6
					c-0.5-1.9-1.2-3.8-1.8-5.7l-0.9-2.8l-1-2.9l-2-5.8c-0.7-2-1.5-3.8-2.2-5.8c-0.7-1.9-1.2-4-1.5-6.1c-0.1-1.1-0.1-2.2,0-3.3
					c0.1-0.6,0.2-1.2,0.3-1.8c0.1-0.3,0.2-0.6,0.3-1l0.2-0.6c0.1-0.1,0.1-0.2,0.2-0.4c0-0.1,0.1-0.2,0.1-0.3c0,0,0.1-0.2,0.2-0.3
					c0.1-0.1,0-0.2,0.7-0.6c0.7-0.3,1.4,0.1,1.7,0.8c0.3,0.7-0.1,1.4-0.8,1.7c0.7-0.4,0.6-0.5,0.7-0.5c0.1-0.1,0.1-0.2,0.1-0.2
					c0,0,0.1,0,0.1-0.1c0.1-0.1,0.1,0,0.1,0c0.1,0,0.2,0.1,0.3,0.2c0.2,0.1,0.3,0.4,0.5,0.5c0.3,0.4,0.7,0.8,1,1.2
					c0.6,0.8,1.1,1.7,1.6,2.6c0.9,1.8,1.5,3.7,2.1,5.6c0.5,1.9,1,3.9,1.6,5.8l2,5.7l1,2.9l1,3c0.7,2,1.3,4,1.9,6c1.2,4,2.2,8,3.2,12
					c3.8,16,6.6,32.2,9,48.4c1.2,8.1,2.2,16.2,3.2,24.4c0.8,8.3,1.4,16.4,1.7,24.6c0.2,4.1,0.3,8.2,0.4,12.3
					c0.1,4.1,0.1,8.2,0.2,12.3c0.1,4.1,0.1,8.3-0.3,12.4c-0.4,4.1-1.3,8.3-3.8,12.1c-0.4,0.7-1.3,0.9-2,0.4
					C448.5,657.5,448.3,657.2,448.2,656.9L448.2,656.9z"/>
			</g>
			<g>
				<path class="st5" d="M296.6,738.9c0.7-1,1.3-2.1,1.9-3.3C297.9,736.8,297.3,737.9,296.6,738.9z"/>
			</g>
			<g>
				<path class="st5" d="M306.1,679.6c0.2,2,0.3,3.9,0.4,5.9C306.5,683.6,306.3,681.6,306.1,679.6z"/>
			</g>
			<g>
				<path class="st3" d="M223.7,616.8c5.1,1.4,9.4,4.7,12.9,8.5c3.5,3.8,6.6,8,9.1,12.6c0.6,1.1,1.2,2.3,1.7,3.5l0.8,1.8l0.7,1.8
					c0.5,1.2,0.9,2.4,1.4,3.7l1.1,3.8l0.5,1.9c0.1,0.6,0.3,1.3,0.4,1.9l0.7,3.8c0.4,2.6,0.5,5.2,0.7,7.7c0.2,2.2-1.4,4.1-3.6,4.2
					c-2.1,0.2-3.9-1.3-4.2-3.4l-0.1-0.4c-0.3-2.3-0.5-4.7-0.8-7l-0.6-3.5l-0.3-1.7l-0.4-1.7c-0.9-4.6-2.6-9-4.3-13.3
					c-1.9-4.3-4.3-8.4-7.1-12.2c-2.8-3.8-5.8-7.4-9-11.4l0,0c-0.1-0.1-0.1-0.4,0.1-0.5C223.5,616.8,223.6,616.8,223.7,616.8z"/>
			</g>
			<g class="st4">
				<path class="st9" d="M478.4,739.2c-0.7,0.2-1.3,0.5-2,0.6c0.3-0.1,0.6-0.2,0.9-0.3C477.6,739.4,478,739.3,478.4,739.2z"/>
			</g>
			<g>
				<ellipse class="st10" cx="282" cy="706.3" rx="13" ry="23.7"/>
			</g>
			<g class="st4">
				<path class="st9" d="M486.6,717.4c-5.4,6.4-11.9,9.6-16.6,7.3c-2.2-1-3.7-3-4.7-5.7c4.1,2.1,9.3,2.9,15.7,1.1
					C482.9,719.6,484.7,718.7,486.6,717.4z"/>
			</g>
			<g>
				<path class="st11" d="M508.1,629.1"/>
			</g>
			<g>
				<path class="st11" d="M437.1,501.7"/>
			</g>
			<g>
				<path class="st11" d="M425.6,495"/>
			</g>
			<g class="st2">
				<path d="M436.9,511c-40.5,17-87.1,17.9-98,16.9c-12.3-1.1-76.9-1.4-124.7-30.8c0.5-0.7,0.9-1.4,1.3-2l2.2-10.5l114.8-5l94.5-7.9
					l6.3,27.1c0,0,0,0,0,0.1C434.5,502.4,435.7,506.5,436.9,511z"/>
			</g>
			<g>
				<path class="st3" d="M380.5,535.7l0,0.5L380.5,535.7C380.5,535.6,380.5,535.7,380.5,535.7z"/>
			</g>
			<g>
				<polygon class="st3" points="359.4,536.1 359.3,536.1 359.3,535.7 359.3,536.1 				"/>
			</g>
			<g>
				<path class="st6" d="M468.9,604.4"/>
			</g>
			<g class="st2">
				<path d="M442.4,565c1.8,48.7-52.2,118.6-82.6,93.7c-10.2-8.3-12.2-24.3-3.7-36.7c5.9-8.7,16.9-25.1,17.6-53.4"/>
			</g>
			<g class="st2">
				<path d="M233,569c0.4,48.7,71.3,117.5,107.7,91.9c12.2-8.6,13.8-24.6,2.6-36.8c-7.9-8.6-29.9-27.8-32.2-52.9"/>
			</g>
			<g>
				<path class="st6" d="M442.4,551.3c1.8,48.7-52.2,118.6-82.6,93.7c-10.2-8.3-12.2-24.3-3.7-36.7c5.9-8.7,16.9-25.1,17.6-53.4"/>
			</g>
			<g class="st7">
				<path class="st3" d="M359.7,645c-9-7.4-11.6-20.8-6.2-32.3c1.5,3,3.6,5.6,6.2,7.8c25.6,20.9,67.7-25,79.5-69.1l3.1-0.2
					C444.2,599.9,390.2,669.9,359.7,645z"/>
			</g>
			<g>
				<path class="st3" d="M443.6,551.2c2.2,5.1,2.3,10.6,1.6,15.8c-0.6,5.3-2,10.3-3.7,15.3c-1.7,4.9-3.6,9.8-5.8,14.5
					c-2.2,4.7-4.6,9.3-7.2,13.8c-5.3,8.9-11.5,17.3-18.9,24.8c-3.7,3.7-7.7,7.2-12.1,10.2c-4.4,3-9.2,5.7-14.6,7.2
					c-5.4,1.6-11.5,1.9-17.2,0c-5.7-1.9-10.5-5.7-13.8-10.5c-1.6-2.4-2.9-5.1-3.8-7.8c-0.8-2.8-1.3-5.6-1.4-8.5
					c0-2.9,0.3-5.7,0.9-8.5c0.7-2.8,1.7-5.5,3.1-8c0.3-0.6,0.7-1.2,1.1-1.8c0.4-0.6,0.8-1.3,1.1-1.7c0.7-1,1.3-2,2-3
					c1.3-2.1,2.5-4.2,3.6-6.3c2.3-4.3,4.4-8.8,6.1-13.3c0.4-1.1,0.9-2.3,1.2-3.4c0.4-1.1,0.8-2.3,1.1-3.5c0.3-1.2,0.6-2.3,0.8-3.5
					c0.2-1.2,0.5-2.4,0.6-3.5c0.4-2.4,0.8-4.7,1.3-7c0.2-1.2,0.6-2.3,1-3.5c0.4-1.2,0.8-2.4,1.5-3.7l0.1-0.1c0.4-0.7,1.3-0.9,2-0.5
					c0.2,0.1,0.4,0.3,0.5,0.5c0.8,1.2,1.3,2.6,1.7,3.9c0.4,1.3,0.5,2.7,0.7,4c0.1,2.7-0.1,5.4-0.7,8c-0.2,1.3-0.7,2.6-1,3.9
					c-0.3,1.3-0.7,2.5-1.1,3.8c-0.4,1.3-0.8,2.5-1.2,3.8c-0.4,1.2-0.8,2.5-1.3,3.7c-1.9,4.9-4,9.6-6.5,14.2
					c-1.2,2.3-2.5,4.5-3.9,6.8c-0.7,1.1-1.4,2.2-2.1,3.3c-0.4,0.6-0.6,1-0.9,1.5c-0.3,0.5-0.6,0.9-0.8,1.4c-1.1,1.9-1.8,4-2.4,6.1
					c-0.5,2.1-0.7,4.3-0.7,6.5c0.1,2.2,0.4,4.3,1,6.4c0.6,2.1,1.6,4,2.8,5.7c2.4,3.5,5.9,6.2,9.9,7.5c3.9,1.3,8.3,1.1,12.6-0.1
					c4.3-1.2,8.5-3.5,12.4-6.2c3.9-2.7,7.6-5.9,11-9.3c6.8-6.9,12.7-14.9,17.7-23.3c2.5-4.2,4.8-8.6,6.8-13c2-4.5,3.9-9,5.2-13.7
					c0.7-2.3,1.3-4.7,1.8-7.1c0.6-2.4,1.1-4.7,1.6-7.1c1-4.7,1.9-9.4,3.7-14.4l0,0c0.3-0.7,1.1-1.1,1.8-0.8
					C443.2,550.6,443.5,550.9,443.6,551.2z"/>
			</g>
			<g>
				<path class="st6" d="M233,555.2c0.4,48.7,71.3,117.5,107.7,91.9c12.2-8.6,13.8-24.6,2.6-36.8c-7.9-8.6-29.9-27.8-32.2-52.9"/>
			</g>
			<g class="st7">
				<path class="st3" d="M340.7,647.1c-36.4,25.6-107.3-43.2-107.7-91.9l3.5,0.1c14.7,45.3,72.5,94.6,104.3,72.3
					c3.6-2.5,6.3-5.7,8-9.2C353.4,628.8,350.3,640.3,340.7,647.1z"/>
			</g>
			<g>
				<path class="st3" d="M234.4,555.2c2.3,5.3,3.7,10.2,5.4,15.2c1.7,5,3.5,9.9,5.7,14.8c2.2,4.9,4.9,9.5,7.9,14
					c3,4.5,6.2,8.8,9.7,12.9c7,8.2,14.8,15.7,23.5,22c4.3,3.1,8.9,5.9,13.6,8.2c4.7,2.3,9.6,4.1,14.6,5.1c5,1,10,1.1,14.7,0
					c2.3-0.6,4.6-1.4,6.6-2.6c2.1-1.2,3.9-2.6,5.5-4.3c3-3.4,5-7.7,4.9-12.2c0-2.2-0.3-4.5-1.1-6.7c-0.8-2.2-1.9-4.3-3.3-6.2
					c-0.3-0.5-0.8-0.9-1.1-1.4c-0.4-0.5-0.7-0.9-1.2-1.4c-0.9-1-1.9-1.9-2.8-2.9c-1.9-2-3.9-4-5.8-6.1c-3.9-4.2-7.6-8.6-10.9-13.3
					c-0.9-1.2-1.7-2.4-2.4-3.6c-0.4-0.6-0.8-1.2-1.2-1.8l-1.1-1.9l-1.1-1.9l-1.1-1.9c-0.7-1.3-1.5-2.6-2-4c-1.3-2.7-2.1-5.6-2.5-8.6
					c-0.1-1.5-0.3-3-0.1-4.6c0.2-1.5,0.5-3.1,1.2-4.6c0.4-0.8,1.3-1.2,2.2-0.8c0.2,0.1,0.4,0.3,0.6,0.5l0.1,0.1
					c1,1.3,1.7,2.5,2.4,3.7c0.6,1.2,1.3,2.4,1.8,3.6c0.2,0.6,0.5,1.2,0.8,1.8c0.3,0.6,0.5,1.2,0.7,1.8c0.4,1.2,1,2.4,1.4,3.6
					c0.2,0.6,0.4,1.2,0.7,1.8l0.8,1.8l0.8,1.8l1,1.7c0.6,1.1,1.3,2.3,2.1,3.4c0.7,1.1,1.4,2.2,2.2,3.3c3.1,4.3,6.6,8.4,10.2,12.4
					c1.8,2,3.8,4,5.7,5.9c1,1,2,2,3,3.1c0.5,0.5,1,1.1,1.5,1.7c0.5,0.6,1,1.2,1.5,1.8c1.9,2.5,3.4,5.4,4.5,8.4
					c1.1,3.1,1.6,6.3,1.6,9.7c0.1,6.7-2.8,13.2-7.2,18c-4.5,4.7-10.3,7.9-16.4,9.4c-6.2,1.5-12.5,1.3-18.4,0.1
					c-5.9-1.2-11.5-3.3-16.7-5.8c-5.3-2.6-10.2-5.6-14.9-9c-9.3-6.8-17.7-14.7-25.1-23.4c-3.7-4.4-7.1-8.9-10.3-13.7
					c-3.2-4.8-6-9.8-8.7-14.9c-2.7-5.1-5-10.5-6.3-16.3c-0.7-2.9-1.1-5.8-1.1-8.8c0-3,0.4-6,1.5-8.9c0.3-0.8,1.2-1.2,2-0.9
					C233.9,554.5,234.2,554.8,234.4,555.2L234.4,555.2z"/>
			</g>
			<g>
				<path class="st5" d="M293.8,742.3c-0.3,0.3-0.6,0.5-0.9,0.8c-12.5,10.8-32.1,4.4-36.4-11.5c-3.6-13.5-5.8-29.3-7-42.5l1.8,11.1
					c-11.5-74.1,31.3-66.7,40.9-57.6C313.6,662.7,308.9,728,293.8,742.3z"/>
			</g>
			<g class="st2">
				<path d="M306.7,688.9c0-0.8,0-1.7-0.1-2.5c0-0.3,0-0.6,0-0.9c-0.1-2-0.2-3.9-0.4-5.9c-1.5,16.8-5.9,31.8-12.4,37.6
					c-0.1,0.1-0.2,0.2-0.4,0.3c0,0,0,0,0,0c-2.2,7.4-6.5,12.4-11.5,12.4c-4,0-7.5-3.2-9.9-8.3c-10.9-2.9-19.9-10.8-19.9-10.8
					c-0.1,0.1-2.4,7.5-4.7,10.6c-16.6,22.4-60.2,12-76.3-9.4c-7.6-10.1-13.3-20.9-16.4-33.1c-1.9-7.4-3.3-15.1-3.8-21.5
					c-1.6,20.5,0.4,40.8,7.8,59.3c0,0,33.9,62.6,102.6,29c0.1-0.1,0.3-0.1,0.4-0.2c0,0,15.8,8.9,29.5-1.3c0.3-0.2,0.5-0.4,0.8-0.6
					c0.3-0.2,0.5-0.4,0.8-0.7c0.3-0.3,0.6-0.5,0.9-0.8c1-0.9,1.9-2.1,2.8-3.4c0.5-0.8,1-1.6,1.5-2.4c0.2-0.3,0.3-0.6,0.5-0.9
					c1-2,2-4.3,2.8-6.8c0.8-2.4,1.6-5,2.2-7.7c1.1-4.8,2-10,2.5-15.5c0.1-1.1,0.2-2.2,0.3-3.3c0.3-3.4,0.4-6.9,0.4-10.4
					C306.7,691,306.7,689.9,306.7,688.9z"/>
			</g>
			<g>
				<path class="st3" d="M224.7,484c-2.2,4.7-4.6,9.4-7.1,14c-1.2,2.3-2.5,4.6-3.7,6.9l-3.8,6.8c-5.1,9.1-10.1,18.1-15,27.3
					c-9.9,18.2-18.4,37.2-25.3,56.7c-6.9,19.5-12.1,39.6-14.2,59.9c-0.5,5.1-0.8,10.2-0.9,15.3c0,5.1,0.2,10.2,0.7,15.2
					c1,10.1,3.3,20,7,29.3l-0.2-0.4c0.5,0.9,1.1,1.9,1.8,2.9c0.6,1,1.3,2,2,2.9c1.4,1.9,2.9,3.8,4.4,5.6c3.1,3.6,6.5,6.9,10.1,9.9
					c7.3,6,15.7,10.6,24.6,13.2c4.5,1.3,9.1,2,13.8,2.3c2.3,0.2,4.7,0.1,7,0c1.2-0.1,2.3-0.2,3.5-0.3l1.8-0.2
					c0.6-0.1,1.2-0.2,1.7-0.3c9.3-1.5,18.4-4.6,27-8.9l1.8-0.9l1.8,1c0.3,0.2,0.8,0.4,1.3,0.6c0.5,0.2,1,0.4,1.5,0.6
					c1,0.4,2.1,0.7,3.1,1c2.1,0.6,4.2,0.8,6.3,0.9c2.1,0.1,4.2-0.2,6.2-0.7c1-0.3,2-0.6,2.9-1.1l1.4-0.6c0.4-0.3,0.9-0.6,1.3-0.8
					c0.4-0.3,0.9-0.5,1.3-0.9l1.2-1c0.9-0.7,1.5-1.3,2.1-2.1c1.3-1.5,2.3-3.5,3.3-5.5c1.9-4.1,3.3-8.5,4.3-13.1
					c2.1-9.2,3-18.7,2.9-28.2c-0.1-9.5-1.1-19-3.6-27.9c-1.3-4.4-3-8.7-5.3-12.4c-0.6-0.9-1.2-1.8-1.9-2.7c-0.3-0.4-0.6-0.9-1-1.2
					l-1.1-1.1c-0.4-0.4-0.7-0.6-1-0.9c-0.4-0.3-0.7-0.5-1.2-0.8c-0.8-0.5-1.7-1-2.7-1.4c-3.9-1.6-8.3-2.2-12.3-1.6
					c-4,0.7-7.8,2.4-10.6,5.4c-2.9,2.9-4.8,6.9-6.1,11.2c-1.2,4.3-1.9,8.8-2.3,13.5c-0.7,9.3-0.4,18.8-1.2,28.8l0,0
					c-0.1,0.7-0.7,1.3-1.4,1.2c-0.5,0-1-0.4-1.2-0.8c-3.7-9.4-5-19.5-4.6-29.7c0.3-5.1,1.2-10.3,2.9-15.4c0.4-1.3,0.9-2.5,1.4-3.8
					c0.5-1.3,1.2-2.5,1.8-3.7c1.4-2.4,3-4.7,5-6.7c3.9-4.2,9.4-6.9,15-7.7c5.6-0.8,11.3,0,16.5,2.1c1.3,0.5,2.6,1.2,3.8,1.9
					c0.6,0.4,1.2,0.8,1.9,1.3c0.6,0.5,1.3,1,1.7,1.5l1.5,1.5c0.5,0.5,0.9,1.1,1.3,1.6c0.9,1.1,1.6,2.2,2.4,3.3
					c2.9,4.6,4.8,9.5,6.2,14.4c2.8,9.9,3.8,20,3.9,30.1c0,10.1-0.9,20.1-3.1,30c-1.2,5-2.6,9.9-4.9,14.7c-1.2,2.4-2.4,4.8-4.3,7.1
					c-0.9,1.1-2,2.3-3.1,3.1l-1.6,1.3c-0.5,0.4-1.2,0.8-1.8,1.2c-0.6,0.4-1.2,0.8-1.8,1.1l-1.9,0.9c-1.3,0.7-2.7,1-4,1.5
					c-2.7,0.7-5.6,1.1-8.4,1c-2.8,0-5.5-0.4-8.2-1.1c-1.3-0.3-2.6-0.7-3.9-1.2c-0.6-0.2-1.3-0.5-1.9-0.8c-0.7-0.3-1.2-0.5-2-1
					l3.7,0.1c-9.2,4.5-19,8-29.3,9.6c-0.6,0.1-1.3,0.2-1.9,0.3l-1.9,0.2c-1.3,0.1-2.6,0.3-3.9,0.3c-2.6,0.1-5.2,0.2-7.9,0
					c-5.2-0.3-10.5-1.1-15.5-2.6c-10.1-2.9-19.5-8-27.5-14.7c-4-3.3-7.7-7-11.1-10.9c-1.7-2-3.3-4-4.8-6.1c-0.8-1-1.5-2.1-2.2-3.2
					c-0.7-1.1-1.4-2.2-2.1-3.5l-0.1-0.2l-0.1-0.2c-4-10.1-6.4-20.8-7.5-31.5c-0.5-5.4-0.8-10.7-0.7-16.1c0.1-5.4,0.4-10.7,0.9-16
					c2.2-21.2,7.6-41.9,14.6-61.8c3.5-10,7.5-19.7,11.7-29.4c2.1-4.8,4.3-9.6,6.6-14.4c2.2-4.8,4.6-9.5,6.9-14.2
					c4.8-9.4,10-18.5,15.6-27.4c1.4-2.2,2.9-4.4,4.4-6.6c1.5-2.1,3-4.3,4.6-6.4c3.2-4.2,6.5-8.3,10.3-12.1c0.5-0.5,1.4-0.5,1.9,0
					C224.8,482.9,224.9,483.5,224.7,484L224.7,484z"/>
			</g>
			<g>
				<ellipse class="st12" cx="280.8" cy="707.5" rx="12.3" ry="22.4"/>
			</g>
			<g class="st4">
				<path class="st9" d="M293.4,717.6c-2.2,7.4-6.5,12.4-11.5,12.4c-4,0-7.5-3.2-9.9-8.3C279,723.5,286.8,723.3,293.4,717.6z"/>
			</g>
			<g>
				<ellipse class="st12" cx="265.3" cy="675.2" rx="4.6" ry="8.3"/>
			</g>
			<g>
				<ellipse class="st12" cx="278.8" cy="665.7" rx="6.3" ry="11.5"/>
			</g>
			<g>
				<ellipse class="st12" cx="291.8" cy="678.1" rx="4.2" ry="7.6"/>
			</g>
			<g>
				<path class="st6" d="M418,287.1c0.8,0.5,1.7,1,2.6,1.5c6.1,3.6,15.1,7.3,24,13.8c0.4,0.3,0.9,0.6,1.3,0.9
					c7.4,5.5,14.2,11.3,22.5,21c2.3,2.7,5.8,3.9,9.1,4.1c4.6,0.4,9.3-1.4,12.5-5.3c2.1-2.6,4-5.3,5.8-8.2
					c10.4-16.8,15.7-38.7,10.5-56.6c-0.6-2.1-1.3-4-2.1-5.9c-0.5-1.1-0.9-2.2-1.5-3.2c-9.1-18.2-27.4-27.6-47.8-24.5
					c-2.4,0.4-4.8,0.9-7.2,1.6c-21.2,6.2-35.9,26.5-36.7,47.8C410.6,279.6,413.4,284.5,418,287.1z"/>
			</g>
			<g>
				<g>
					<path class="st10" d="M424.7,288.1c14.3,5.3,27.5,15.9,35.2,23c1.7,1.6,3.2,3,4.3,4.1c1.8,1.8,4.7,2.1,6.8,0.6
						c1.1-0.8,2.3-1.8,3.4-3c9.2-9.8,13.4-25.9,9.5-39.2c-4.9-16.8-20.3-25.1-37.1-20.2c-6.1,1.8-11,5.2-14.8,9.8
						c-4.5,5.5-7.3,12.6-8.5,20.5C423.4,285.2,423.2,287.6,424.7,288.1z"/>
				</g>
				<g>
					<path class="st13" d="M424.7,288.1c14.3,5.3,27.5,15.9,35.2,23c3.3-8.4,4.1-18,1.6-26.5c-0.9-3.2-2.2-6-3.8-8.6
						c-9.1-14.4-31.5-9.6-34.1,7.3c0,0.1,0,0.2,0,0.2C423.4,285.2,423.2,287.6,424.7,288.1z"/>
				</g>
				<g>
					<path class="st3" d="M468,320.4c-2.3,0-4.5-0.9-6.3-2.6c-5.9-5.8-21.3-20.1-38.3-26.3l0,0c-2-0.7-4.2-2.8-3.4-8.4
						c2.5-17,11.9-29.1,25.8-33.2c9-2.6,18.2-1.8,25.7,2.3c7.6,4.1,13.2,11.4,15.8,20.4c4.1,14.1-0.1,31.7-10.3,42.7
						c-1.3,1.4-2.6,2.6-4,3.5C471.6,319.8,469.8,320.4,468,320.4z M427.1,285.2c17.8,6.9,33.6,21.5,39.7,27.5
						c0.6,0.6,1.5,0.7,2.2,0.2c1-0.7,1.9-1.5,2.9-2.6c8.6-9.2,12.2-23.9,8.7-35.8c-2.1-7.2-6.5-12.9-12.4-16.1
						c-5.9-3.2-13.1-3.8-20.3-1.7c-15.2,4.4-19.5,19-20.7,27.3C427.1,284.6,427.1,284.9,427.1,285.2z"/>
				</g>
			</g>
			<g class="st2">
				<path d="M445.8,303.4c7.4,5.5,14.2,11.3,22.5,21c2.6,2.5,5.8,3.9,9.1,4.1c7.1-3.7,13.2-7.8,18.3-13.5c3.8-4.3,7-9.4,9.6-15.9
					c6.7-16.7,2.9-42.4-2.5-52.7c-0.1,0.5,0.7,3.3,1.3,6.1c0.6,2.5,1.2,4.9,1.2,5.3c0,3.4-3.3,11.1-5.1,14.2
					C490.3,289.9,477.6,295.8,445.8,303.4z"/>
			</g>
			<g class="st4">
				<path class="st5" d="M493.5,238.8c-20.5-6.9-30.4-5-47.6,0.9c-17.2,6-29.4,23.2-31.4,27.5c-0.6-0.9,1.3-9.9,3.8-14.5
					c10.2-18.7,32.4-30.3,54.2-26.4c2.5,0.4,4.9,1,7.2,1.8L493.5,238.8z"/>
			</g>
			<g>
				<path class="st3" d="M478.2,333.2c-2,0-3.7-1.5-3.9-3.5c-0.2-2.2,1.3-4.1,3.5-4.4c2-0.2,7.1-2.2,9-4.5
					c14.5-17.9,20.9-43,15.6-61.2c-7.1-24.4-29.3-36.5-53.7-29.3c-19.2,5.6-33.1,23.8-33.9,44.2c-0.1,2.2-0.1,2.5,0.4,5.7
					c0.3,2.1-1.1,4.2-3.3,4.5c-2.2,0.3-4.2-1.1-4.5-3.3c-0.6-3.5-0.6-4.4-0.5-7.3c0.9-23.7,17.2-44.9,39.6-51.4
					c28.5-8.3,55.2,6.2,63.5,34.6c7.1,24.1-3.5,51.7-17.1,68.4c-3.5,4.4-10.6,7-14.3,7.4C478.5,333.2,478.4,333.2,478.2,333.2z"/>
			</g>
			<g class="st7">
				<path class="st3" d="M443.1,540.7c-40.8,17.5-88,18.4-99.1,17.3c-13.8-1.3-93.3-1.4-141.2-42.9c4.7-7.8,8.6-14,11.3-18
					c0.5-0.7,0.9-1.4,1.3-2l2.2-10.5l114.8-5l94.5-7.9l6.3,27.1c0,0,0,0,0,0c1.2,3.5,2.3,7.6,3.5,12.2
					C439,519.4,441.1,529.5,443.1,540.7z"/>
			</g>
			<g>
				<path class="st5" d="M207.9,485.9c45.6,52.3,137.1,52.3,152,53.7c15.6,1.4,103.3-0.9,143.1-48.3c19.3-23,19.2-44,9.4-74.2
					c-0.4-1.3-0.8-2.4-1.2-3.4c-2.7-6.7-5.4-9.8-10.7-26.9c-1.1-3.7-2.1-7.6-3-11.7c-4.5-20.2-8.5-43.3-22.9-59.7
					c-13.6-15.4-32-28.7-53-38.6c6.4-7.3,15.4-19.8,7.3-24.6c-10-5.9-39.7,6.7-48.8,10.7c-1.6,0.7-2.5,1.2-2.6,1.2
					c0-0.1,1-0.7,1.4-1.6c1.6-3.8,3.9-13-3.4-17.6c-9.2-5.7-73.9,5.6-119.7,38.9l-5.6-2.5C184.6,326.7,160.6,431.6,207.9,485.9z"/>
			</g>
			<g class="st4">
				<path d="M245.6,303.4c0,0-61.9,86.7-23.3,168.6c36.6,77.5,220.2,68.9,281.9,13.6c0,0-14.9,34.9-78.5,46.1
					c-83.7,14.8-197.2-0.3-225.8-57.9s7.9-152.2,7.9-152.2L245.6,303.4z"/>
			</g>
			<g class="st2">
				<path d="M254,295.4c-35.7,27.3-6.1-14.3-6.1-14.3s51.8-20.2,62.5-22.4C321.1,256.6,291,267.2,254,295.4z"/>
			</g>
			<g>
				<path class="st6" d="M367,410.4c-3.8,44.6-68.3,74.3-106.4,48.6c-18.3-12.3-25.9-30.4-23.9-51.5c1.9-20.5,14.1-34.5,33.5-41.7
					c29.6-11,57.9-8.9,83.2,11.5C364.6,386.5,368.2,396.2,367,410.4z"/>
			</g>
			<g>
				<path class="st6" d="M368.8,409.6c-3.8,44.6-68.3,74.3-106.4,48.6c-18.3-12.3-25.9-30.4-23.9-51.5c1.9-20.5,14.1-34.5,33.5-41.7
					c29.6-11,57.9-8.9,83.2,11.5C366.4,385.7,370,395.5,368.8,409.6z"/>
			</g>
			<g>
				<path class="st6" d="M499.9,456.2c8.3-4,14.7-9.5,19.3-16.3c-1.1-6.1-2.8-12.5-5.1-19.3l0,0c-0.4-1-0.8-2.2-1.2-3.4
					c0,0,0-0.1,0-0.1c-2.7-6.7-5.4-9.8-10.7-26.9c-1.1-3.7-3.4-13.6-4.3-17.7c-0.4-2-0.9-3.9-1.3-5.7c-21.1-9.9-42.7-10.1-64.3,2.8
					c-11,6.6-15.5,14.8-16.5,27.7C412.7,437.8,463.6,473.7,499.9,456.2z"/>
			</g>
			<g>
				<path class="st3" d="M245.6,288.4c-1.3,0-2.6-0.7-3.4-1.9c-1.1-1.9-0.5-4.3,1.3-5.4c16.7-10.1,45.8-22.1,74.2-30.5
					c18.5-5.5,51.1-13.7,62.3-7.4c4.2,2.4,5.6,7,5.6,11.3c11.6-4.3,35-11.8,45.4-5.7c4.4,2.6,5.6,6.2,5.8,8.7
					c0.8,9.3-10.7,19.3-12,20.4c-1.7,1.4-4.1,1.2-5.6-0.5c-1.4-1.7-1.2-4.1,0.5-5.6l0,0c4-3.4,9.6-10,9.2-13.8c0-0.4-0.1-1.5-2-2.6
					c-7.4-4.4-31.3,3-44.6,8.7l-7.7,3.3l2.4-8c0.7-2.4,1.4-8.1-1-9.5c-13.1-7.4-92.4,15.9-128.5,37.8
					C247,288.3,246.3,288.4,245.6,288.4z"/>
			</g>
			<g>
				<path class="st3" d="M368.4,543.7c-3.9,0-6.9-0.1-8.6-0.3c-1.3-0.1-3.4-0.2-6-0.4c-26.3-1.5-106.3-6-148.7-54.7
					c-16.8-19.2-25.2-53.2-22.5-91c1.1-16.2,4.3-32.1,9.1-46.2c14.5-42.4,41.7-70.8,80.9-84.4c2.1-0.7,4.3,0.4,5,2.4
					c0.7,2.1-0.4,4.3-2.4,5c-36.8,12.8-62.4,39.5-76,79.5c-4.6,13.5-7.6,28.8-8.7,44.2c-2.5,35.8,5.2,67.6,20.6,85.3
					c40.2,46.1,117.7,50.5,143.2,52c2.7,0.2,4.8,0.3,6.2,0.4c15.3,1.4,101.2-1.1,139.7-46.9c8.9-10.6,13.6-20.9,14.7-32.2
					c0-0.1,0-0.1,0-0.2l0-0.2c0-0.3,0.1-0.7,0.1-1c0-0.6,0.1-1.2,0.1-1.9c0-0.5,0-0.9,0-1.4c0-0.5,0-1,0-1.4l0-0.4
					c-0.1-4.9-0.5-9.6-1.2-13.6l0-0.2c-0.8-6.8-5.1-18.4-6.2-21.2l-0.1-0.3c-0.7-1.8-1.5-3.4-2.3-5.1c-2.1-4.3-4.6-9.6-8.4-21.8
					c-1.2-4-3.7-14.6-4.4-18l-0.3-1.4c-0.3-1.5-0.6-2.9-0.9-4.2c-0.3-1.5-0.7-2.9-1-4.2l-0.2-0.5l0-0.4c-3.1-12.5-6-20.6-15-35.8
					c-1.1-1.8-2.2-3.6-3.4-5.4l-0.2-0.2c-11.4-16.4-28.2-29.4-50-38.7l-0.7-0.3c-2-0.8-3-3.1-2.1-5.2c0.8-2,3.1-3,5.2-2.1l0.7,0.3
					c23.1,9.8,41,23.7,53.3,41.2l0.1,0.2c1.4,2,2.7,4,3.9,6c9.5,16,12.7,25,15.9,38.1l0.2,0.8c0.3,1.4,0.7,2.8,1,4.2
					c0.3,1.3,0.6,2.8,1,4.2l0.3,1.4c0.9,4.2,3.2,14,4.3,17.4c3.6,11.6,5.9,16.5,7.9,20.7c0.9,1.9,1.8,3.7,2.6,5.8v0l0.1,0.3
					c0.7,1.8,5.6,14.5,6.6,22.8c0.8,4.4,1.2,9.3,1.3,14.7c0,0.2,0,0.4,0,0.6c0,0.5,0,0.9,0,1.4c0,0.5,0,1,0,1.6
					c0,0.7-0.1,1.5-0.1,2.2c0,0.4-0.1,0.7-0.1,1.1c0,0.1,0,0.1,0,0.2l0,0.1c-1.3,13-6.5,24.7-16.5,36.6
					c-21.7,25.9-57,38.1-82.7,43.7C400.4,542.5,380,543.7,368.4,543.7z"/>
			</g>
			<g>
				<path class="st6" d="M273.5,287.1c-0.8,0.5-1.7,1-2.6,1.5c-6.1,3.6-15.1,7.3-24,13.8c-0.4,0.3-0.9,0.6-1.3,0.9
					c-7.4,5.5-14.2,11.3-22.5,21c-2.3,2.7-5.8,3.9-9.1,4.1c-4.6,0.4-9.3-1.4-12.5-5.3c-2.1-2.6-4-5.3-5.8-8.2
					c-10.4-16.8-15.7-38.7-10.5-56.6c0.6-2.1,1.3-4,2.1-5.9c0.5-1.1,0.9-2.2,1.5-3.2c9.1-18.2,27.4-27.6,47.8-24.5
					c2.4,0.4,4.8,0.9,7.2,1.6c21.2,6.2,35.9,26.5,36.7,47.8C280.8,279.6,278,284.5,273.5,287.1z"/>
			</g>
			<g class="st2">
				<path d="M245.6,303.4c-7.4,5.5-14.2,11.3-22.5,21c-2.6,2.5-5.8,3.9-9.1,4.1c-7.1-3.7-13.2-7.8-18.3-13.5
					c-3.8-4.3-7-9.4-9.6-15.9c-6.7-16.7-2.9-42.4,2.5-52.7c0.1,0.5-0.7,3.3-1.3,6.1c-0.6,2.5-1.2,4.9-1.2,5.3
					c0,3.4,3.3,11.1,5.1,14.2C201.1,289.9,213.9,295.8,245.6,303.4z"/>
			</g>
			<g class="st4">
				<path class="st5" d="M197.9,238.8c20.5-6.9,30.4-5,47.6,0.9c17.2,6,29.4,23.2,31.4,27.5c0.6-0.9-1.3-9.9-3.8-14.5
					c-10.2-18.7-32.4-30.3-54.2-26.4c-2.5,0.4-4.9,1-7.2,1.8L197.9,238.8z"/>
			</g>
			<g>
				<path class="st3" d="M278.8,280.6c-0.4-1.2-0.5-2.5-0.8-3.5l-0.9-3.2c-0.3-1.1-0.5-2.2-0.8-3.3c-0.3-1.1-0.5-2.1-0.8-3.2
					c-1.1-4.2-2.4-8.4-4.3-12.4c-3.7-8-9.9-14.8-17.2-19.5c-3.7-2.3-7.7-4.2-11.9-5.4c-4.3-1.2-8.6-1.8-13-1.9
					c-4.4,0-8.7,0.7-12.8,1.9c-4.1,1.3-8,3.3-11.5,5.9c-0.8,0.7-1.8,1.3-2.5,2l-2.4,2.2c-0.8,0.8-1.4,1.6-2.2,2.4
					c-0.7,0.8-1.4,1.7-2,2.6c-1.3,1.7-2.3,3.7-3.4,5.6l-1.4,3c-0.2,0.5-0.5,1-0.7,1.5l-0.5,1.6c-0.3,1-0.8,2.1-1,3.1l-0.8,3.2
					l-0.5,3.3c-0.2,1.1-0.2,2.2-0.3,3.3c-0.3,4.4,0,8.9,0.6,13.4c1.4,8.9,4.4,17.6,8.8,25.6c1,2,2.3,3.9,3.5,5.8
					c0.6,0.9,1.3,1.8,2,2.7l2.2,2.6l0.5,0.7c0.1,0.1,0.2,0.3,0.3,0.4c0.3,0.3,0.5,0.5,0.9,0.8c0.6,0.6,1.4,1.2,2.2,1.8
					c1.6,1.2,3.4,2.6,5.1,4.4l0.2,0.2c0.6,0.6,0.6,1.5,0,2.1c-0.1,0.1-0.3,0.3-0.5,0.3c-1.5,0.6-2.9,0.7-4.3,0.6
					c-1.4-0.1-2.7-0.3-4-0.8c-1.3-0.5-2.6-1.1-3.8-2l-0.9-0.7l-0.9-0.8c-0.3-0.3-0.6-0.6-0.8-0.9l-0.6-0.8c-0.7-1-1.5-2-2.1-3.1
					c-0.7-1.1-1.3-2.1-2-3.1c-1.3-2.1-2.7-4.2-3.8-6.4c-4.7-8.7-8-18.2-9.6-28.1c-0.7-5-1-10-0.7-15.1c0.1-1.3,0.2-2.5,0.4-3.8
					l0.6-3.8l0.9-3.7c0.3-1.2,0.8-2.4,1.2-3.6l0.6-1.8c0.2-0.6,0.5-1.2,0.8-1.8c0.5-1.2,1-2.3,1.6-3.5c1.3-2.2,2.5-4.5,4-6.6
					c0.7-1.1,1.5-2.1,2.3-3.1c0.9-1,1.7-2,2.6-2.9l2.8-2.7c0.9-0.9,2-1.6,3-2.4c4.2-3,8.8-5.5,13.8-7c5-1.5,10.1-2.2,15.3-2.3
					c5.1,0.1,10.2,0.8,15.1,2.2c4.9,1.4,9.7,3.5,14,6.3c4.3,2.8,8.3,6.1,11.7,9.9c3.4,3.8,6.2,8.1,8.6,12.6c2.4,4.5,4.3,9.4,5,14.5
					c0.1,1.3,0.3,2.6,0.4,3.8c0,1.3,0,2.6-0.1,3.9c0,0.6-0.1,1.2-0.3,1.9c-0.1,0.6-0.3,1.4-0.5,2c-0.4,1.3-1,2.4-1.8,3.5
					c-0.4,0.7-1.3,0.8-2,0.4C279.1,281.2,278.9,280.9,278.8,280.6L278.8,280.6z"/>
			</g>
			<g>
				<path class="st14" d="M495.4,499.4c-42.4,39.4-120.6,41.4-135.2,40.1c-9.6-0.9-51.4-1.2-92-15.5l7.7-66.7
					c0,0,75.8-33.2,122.1-33.2c39.1,0,86.2,22.8,86.2,22.8L495.4,499.4z"/>
			</g>
			<g class="st4">
				<path class="st5" d="M495.4,499.4c-0.2,0.2-0.5,0.5-0.8,0.7l-5.9-27.8c-2.2-10.4-9.5-18.9-19.4-22.8c-17.2-6.7-45.3-16-70.2-16
					c-32.3,0-79.1,16.2-104.3,26c-10.9,4.2-18.6,14.1-19.9,25.8l-4.6,39.4c-0.7-0.2-1.4-0.5-2.1-0.7l7.7-66.7
					c0,0,75.8-33.2,122.1-33.2c39.1,0,86.2,22.8,86.2,22.8L495.4,499.4z"/>
			</g>
			<g class="st4">
				<path d="M495.4,499.4c-42.4,39.4-120.6,41.4-135.2,40.1c-9.6-0.9-51.4-1.2-92-15.5l2.3-20c39.4,13.1,79,13.4,88.3,14.3
					c14.3,1.3,89.6-0.6,132.6-37.7L495.4,499.4z"/>
			</g>
			<g>
				<path class="st3" d="M368.3,543.7c-3.5,0-6.4-0.1-8.5-0.3c-1.3-0.1-3.4-0.2-6-0.4c-15.5-0.9-51.7-2.9-86.9-15.3l-3-1l8.4-72.1
					l2.1-0.9c3.1-1.4,77.1-33.5,123.7-33.5c39.5,0,85.9,22.2,87.9,23.2l1.7,0.8l12.1,56.7l-1.6,1.5c-23.2,21.5-56.3,31.6-79.9,36.3
					C398.5,542.5,380,543.7,368.3,543.7z M272.5,521.2c33.2,11.1,67.1,13.1,81.8,13.9c2.7,0.2,4.8,0.3,6.3,0.4
					c13.3,1.2,88.8-0.5,130.6-37.5l-10.3-48.4c-8.8-4-49.2-21.6-82.7-21.6c-40.7,0-106,26.7-118.5,32L272.5,521.2z"/>
			</g>
			<g>
				<path class="st3" d="M276,461.2c-0.2,0-0.4,0-0.6-0.1c-2.3-0.4-56.5-9.5-92.2-53.5c-1.4-1.7-1.1-4.2,0.6-5.5
					c1.7-1.4,4.2-1.1,5.5,0.6c33.8,41.7,86.8,50.6,87.3,50.7c2.1,0.3,3.6,2.4,3.3,4.5C279.5,459.8,277.9,461.2,276,461.2z"/>
			</g>
			<g>
				<path class="st3" d="M484.2,450.8c-1.4,0-2.8-0.8-3.5-2.1c-1-1.9-0.3-4.3,1.6-5.3l0,0c0.2-0.1,20.7-11.3,26.2-27.5
					c0.7-2.1,2.9-3.2,5-2.5c2.1,0.7,3.2,2.9,2.5,5c-6.5,19.1-29,31.4-29.9,31.9C485.5,450.6,484.9,450.8,484.2,450.8z"/>
			</g>
			<g class="st7">
				<g>
					<path class="st3" d="M290,468.5c15.2-1.8,30.4-3,45.6-4c7.6-0.6,15.2-0.9,22.8-1.4l22.8-1c7.6-0.2,15.2-0.6,22.7-1
						c3.8-0.2,7.6-0.5,11.3-0.7c3.8-0.3,7.6-0.6,11.4-0.8c15.2-1.1,30.4-2,45.7-2.3c-15,2.8-30.1,4.9-45.2,6.9
						c-7.5,1-15.2,1.9-22.8,2.6c-7.6,0.6-15.3,1.1-22.9,1.4l-22.8,0.7c-7.6,0.1-15.2,0.4-22.9,0.4
						C320.6,469.3,305.3,469.2,290,468.5z"/>
				</g>
			</g>
			<g class="st7">
				<g>
					<path class="st3" d="M290.6,492.1c15.2-1.8,30.4-3,45.6-4c7.6-0.6,15.2-0.9,22.8-1.4l22.8-1c7.6-0.2,15.2-0.6,22.7-1
						c3.8-0.2,7.6-0.5,11.3-0.7c3.8-0.3,7.6-0.6,11.4-0.8c15.2-1.1,30.4-2,45.7-2.3c-15,2.8-30.1,4.9-45.2,6.9
						c-7.5,1-15.2,1.9-22.8,2.6c-7.6,0.6-15.3,1.1-22.9,1.4l-22.8,0.7c-7.6,0.1-15.2,0.4-22.9,0.4
						C321.1,492.8,305.9,492.7,290.6,492.1z"/>
				</g>
			</g>
			<g class="st7">
				<g>
					<path class="st3" d="M291.9,509.8c15.4,0.2,30.8,1,46.2,2c7.7,0.4,15.4,1.2,23,1.4c7.6,0.3,15.2,0.4,22.8,0.1
						c7.6-0.2,15.2-0.7,22.8-1.6c7.6-0.7,15.1-1.9,22.6-3.2c7.5-1.4,15-3,22.4-4.8c7.5-1.8,15-3.7,22.5-5.3
						c-7.2,2.8-14.4,5.4-21.7,8c-7.3,2.5-14.8,4.8-22.3,6.6c-7.5,1.9-15.2,3.2-22.9,4.3c-7.7,1-15.5,1.6-23.3,1.9
						c-7.8,0.2-15.6,0.1-23.3-0.5c-1.9-0.1-3.9-0.3-5.8-0.5l-5.8-0.6c-3.8-0.4-7.6-0.9-11.5-1.3
						C322.4,514.5,307.1,512.4,291.9,509.8z"/>
				</g>
			</g>
			<g>
				<path class="st5" d="M335,415c-0.4-1.1-0.8-2.2-1.3-3.3c-0.2-0.5-0.5-1-0.7-1.5l-0.9-1.4c-1.2-1.8-2.6-3.3-4.2-4.4
					c-1.6-1.1-3.5-1.7-5.5-2.2c-0.5-0.1-1-0.1-1.6-0.2c-0.5-0.1-1-0.2-1.6-0.2c-0.6,0-1.1,0-1.6-0.1c-0.5,0-1.1-0.1-1.6,0
					c-4.2,0.1-8.1,1.5-11.2,4.3c-3.1,2.8-5.5,7.1-6.3,11.7l0,0.1c-0.1,0.8-0.9,1.3-1.6,1.1c-0.6-0.1-1-0.5-1.1-1
					c-0.7-2.8-0.5-5.7,0.1-8.5c0.7-2.8,1.9-5.5,3.8-7.9c1.8-2.4,4.3-4.4,7.1-5.8c2.8-1.3,5.8-2.1,8.8-2.2c0.8-0.1,1.5,0,2.2,0
					c0.7,0,1.5,0,2.2,0.1c0.7,0,1.5,0.2,2.2,0.3c0.7,0.1,1.5,0.2,2.2,0.4c2.9,0.8,5.8,2.3,8.2,4.4c2.4,2.2,4,5,4.8,7.8
					c0.8,2.9,1,5.7,0.4,8.6c-0.2,0.8-0.9,1.2-1.7,1.1c-0.5-0.1-0.9-0.5-1-0.9L335,415z"/>
			</g>
			<g>
				<path class="st5" d="M440.1,409.7c-0.5-2.6-0.3-5.2,0.4-7.8c0.8-2.6,2.3-5.1,4.4-7.1c2.1-1.9,4.8-3.3,7.4-4
					c0.7-0.2,1.3-0.3,2-0.4c0.7-0.1,1.4-0.3,2-0.3l2-0.1c0.7,0,1.3-0.1,2,0c2.7,0.1,5.5,0.8,8,2c2.5,1.2,4.8,3,6.5,5.2
					c3.3,4.4,4.8,9.8,3.7,14.9c-0.1,0.6-0.8,1.1-1.4,0.9c-0.5-0.1-0.8-0.5-0.9-1l0-0.1c-0.7-4.2-2.8-8.2-5.7-10.9
					c-2.9-2.7-6.5-4-10.4-4.1c-1-0.1-2,0.1-3,0.1c-0.5,0-1,0.1-1.5,0.2c-0.5,0.1-1,0.1-1.5,0.2c-1.9,0.5-3.6,1.1-5.1,2.1
					c-1.5,1-2.8,2.4-3.9,4.1l-0.8,1.3c-0.2,0.5-0.5,0.9-0.7,1.4c-0.4,1-0.8,2.1-1.1,3.1l-0.1,0.2c-0.2,0.6-0.9,1-1.5,0.8
					C440.4,410.4,440.1,410.1,440.1,409.7z"/>
			</g>
			<g>
				<g>
					<path class="st10" d="M265.4,288.1c-14.3,5.3-27.5,15.9-35.2,23c-1.7,1.6-3.2,3-4.3,4.1c-1.8,1.8-4.7,2.1-6.8,0.6
						c-1.1-0.8-2.3-1.8-3.4-3c-9.2-9.8-13.4-25.9-9.5-39.2c4.9-16.8,20.3-25.1,37.1-20.2c6.1,1.8,11,5.2,14.8,9.8
						c4.5,5.5,7.3,12.6,8.5,20.5C266.7,285.2,266.9,287.6,265.4,288.1z"/>
				</g>
				<g>
					<path class="st13" d="M265.4,288.1c-14.3,5.3-27.5,15.9-35.2,23c-3.3-8.4-4.1-18-1.6-26.5c0.9-3.2,2.2-6,3.8-8.6
						c9.1-14.4,31.5-9.6,34.1,7.3c0,0.1,0,0.2,0,0.2C266.7,285.2,266.9,287.6,265.4,288.1z"/>
				</g>
				<g>
					<path class="st3" d="M222.1,320.4c-1.8,0-3.6-0.5-5.1-1.6c-1.4-1-2.7-2.1-4-3.5c-10.2-11-14.5-28.5-10.3-42.7
						c2.6-9,8.3-16.3,15.8-20.4c7.6-4.1,16.7-4.9,25.7-2.3c13.9,4.1,23.3,16.2,25.8,33.2c0.8,5.6-1.4,7.7-3.4,8.4l0,0
						c-16.9,6.2-32.4,20.4-38.3,26.3C226.7,319.5,224.4,320.4,222.1,320.4z M233.9,255.5c-4.3,0-8.3,1-11.9,2.9
						c-5.9,3.2-10.3,8.9-12.4,16.1c-3.5,11.8,0.1,26.5,8.7,35.8c1,1,1.9,1.9,2.9,2.6c0.7,0.5,1.6,0.4,2.2-0.2
						c6.1-6,21.9-20.6,39.7-27.5c0-0.3,0-0.6-0.1-1.1c-1.2-8.3-5.6-22.9-20.7-27.3C239.4,255.9,236.6,255.5,233.9,255.5z"/>
				</g>
			</g>
		</g>
	</g>
</g>
</svg>
