<?xml version="1.0" encoding="utf-8"?>
<!-- Generator: Adobe Illustrator 22.0.0, SVG Export Plug-In . SVG Version: 6.00 Build 0)  -->
<svg version="1.1" id="Layer_1" xmlns="http://www.w3.org/2000/svg" xmlns:xlink="http://www.w3.org/1999/xlink" x="0px" y="0px"
	 viewBox="0 0 2594.8 886.1" style="enable-background:new 0 0 2594.8 886.1;" xml:space="preserve">
<style type="text/css">
	.st0{fill:#282828;}
	.st1{fill:#5F5476;}
	.st2{opacity:0.35;}
	.st3{fill:#FFFFFF;}
	.st4{opacity:0.3;}
	.st5{fill:#000072;}
	.st6{fill:#686779;}
	.st7{fill:#575B5A;}
	.st8{fill:none;stroke:#000072;stroke-width:0;stroke-miterlimit:10;}
	.st9{opacity:0.4;}
	.st10{fill:#343C47;}
	.st11{fill:#6EE5CF;}
	.st12{fill:#10C6A3;}
	.st13{fill:#2F917E;}
	.st14{opacity:0.7;}
	.st15{font-family:'ArialRoundedMTBold';}
	.st16{font-size:159.4755px;}
	.st17{font-family:'KozGoPr6N-Regular-90ms-RKSJ-H';}
	.st18{font-size:149.1363px;}
</style>
<g id="Layer_1-2">
	<path class="st0" d="M48.1,685.7V353.2c-0.1-6.5,0.2-12.9,0.9-19.4c0.8-5,2.5-9.8,4.8-14.2c5.3-10.2,18-15.4,38.1-15.4
		c20.1,0,33.7,2.6,40.8,7.7c7,5.1,11.1,12.6,12.2,22.5c14.4-19.7,37.1-29.6,68-29.6c30.9,0,60.3,14.6,88,43.8
		c27.7,29.2,41.5,63.2,41.6,101.9c0,38.7-13.8,72.7-41.3,101.9c-27.5,29.2-56.8,43.8-88,43.8c-31.1,0-53.7-8.7-67.7-26.2v114.9
		c0.1,6.5-0.2,12.9-0.9,19.4c-0.6,4.2-2.3,9-5.1,14.5c-2.8,5.5-7.7,9.4-14.5,11.7c-6.9,2.3-16.2,3.4-28,3.4s-21.2-1.1-28.2-3.4
		c-7-2.3-12-6.1-14.8-11.4c-2.8-5.3-4.6-10.1-5.1-14.2C48.3,698.6,48,692.1,48.1,685.7z M160.8,417.5c-8.7,10.2-13.1,21.4-13.1,33.6
		c0,12.1,4.5,23.2,13.4,33.3c8.9,10.1,20.3,15.1,34.2,15.1c13.3,0.2,26.1-5.2,35.3-14.8c9.7-9.9,14.5-21.1,14.5-33.6
		c0-12.5-4.6-23.8-13.7-33.9c-9.1-10.1-21-15.1-35.6-15.1C181.2,402.1,169.6,407.3,160.8,417.5z"/>
	<path class="st0" d="M562.8,336.1c2.3-21.2,17.3-31.9,45-31.9c14.8,0,25.8,1.1,33,3.4c7.2,2.3,12.2,6.3,15.1,12
		c2.8,5.7,4.6,10.7,5.1,15.1c0.7,6.5,1,13.1,0.9,19.6v199.3c0.1,6.6-0.2,13.1-0.9,19.6c-0.9,5.2-2.5,10.3-4.8,15.1
		c-5.3,9.9-18.3,14.8-39,14.8c-20.7,0-34.5-2.6-41.6-7.7c-7-5.1-11.1-12.6-12.2-22.5c-14,20.1-37.5,30.2-70.3,30.2
		c-32.8,0-63.3-15-91.4-45c-28.1-30-42.1-64.8-42.1-104.5s14.1-74.4,42.4-104.2c28.3-29.8,59.3-44.7,93.1-44.7
		c12.1-0.2,24.1,2.2,35.3,6.8c10.6,4.6,18,8.8,22.2,12.8C556.3,328,559.7,331.9,562.8,336.1z M459.1,454.5
		c0,12.5,4.9,23.8,14.8,33.9c9.3,9.8,22.3,15.3,35.9,15.1c14,0,25.7-5.1,35-15.4c9.3-10.2,14-21.5,14-33.9
		c0-12.4-4.5-23.8-13.4-34.4c-8.9-10.6-20.9-15.9-35.9-15.9c-15,0-27.1,5.3-36.4,15.9C463.8,430.4,459.2,442,459.1,454.5z"/>
	<path class="st0" d="M862.8,304.2c37.9,0,69.5,14.5,94.8,43.6c25.3,29,37.9,64.4,37.9,106.2v100.2c0.1,6.6-0.2,13.1-0.9,19.6
		c-0.8,5.1-2.4,10-4.8,14.5c-5.3,10.3-20.1,15.4-44.4,15.4c-27,0-42.5-7-46.7-21.1c-2.3-6.5-3.4-16.1-3.4-29V453.4
		c0-15.6-4.5-27.7-13.4-36.4c-8.9-8.7-20.9-13.1-35.9-13.1c-15,0-27.1,4.6-36.4,13.7c-9.3,9.1-13.9,21.1-13.9,35.9v100.8
		c0.1,6.6-0.2,13.1-0.9,19.6c-0.6,4.4-2.4,9.2-5.4,14.5c-4.9,10.3-19.6,15.4-43.8,15.4c-23.9,0-38.5-5.1-43.8-15.4
		c-2.4-4.8-4-9.8-4.8-15.1c-0.7-6.5-1-13.1-0.9-19.6V352.1c-0.1-6.4,0.2-12.7,0.9-19.1c0.6-4.3,2.4-9.2,5.4-14.5
		c5.3-9.5,19.9-14.2,43.8-14.2c23.2,0,37.4,4.4,42.7,13.1c3.8,6.5,5.7,14.2,5.7,23.3c1.5-2.7,4.9-6.4,10.3-11.4
		c4.7-4.5,9.9-8.5,15.4-12C832.7,308.7,847.6,304.2,862.8,304.2z"/>
	<path class="st0" d="M1230.8,179.3c2.9-5.5,7.9-9.4,15.1-11.7c7.2-2.3,16.8-3.4,28.7-3.4c12,0,21.5,1.1,28.7,3.4s12.2,6.3,15.1,12
		c2.8,5.7,4.6,10.7,5.1,15.1c0.7,6.5,1,13.1,0.9,19.6v339.9c0.1,6.6-0.2,13.1-0.9,19.6c-0.6,4.4-2.4,9.2-5.4,14.5
		c-5.7,10.3-21.7,15.4-48.1,15.4c-26.4,0-41.1-9.3-44.1-27.9c-15.9,18.2-38.1,27.3-66.6,27.3c-34.2,0-65.3-14.9-93.4-44.7
		c-28.1-29.8-42.1-64.5-42.1-104.2c0-39.7,14.1-74.5,42.4-104.5c28.3-30,59.3-45,93.1-45c28.1,0,49.9,9.5,65.5,28.5V213.7
		c-0.1-6.6,0.2-13.1,0.9-19.6C1226.3,189.7,1228,184.8,1230.8,179.3z M1138.3,488.7c9.9,10.2,21.8,15.4,35.9,15.4
		c14,0,25.7-5.1,35-15.4c9.3-10.2,13.9-21.5,13.9-33.9c0-12.3-4.4-23.8-13.4-34.4c-8.9-10.6-21-15.9-36.1-15.9
		c-15.2,0-27.3,5.2-36.4,15.7c-9.1,10.4-13.7,21.9-13.7,34.4C1123.5,467.1,1128.5,478.5,1138.3,488.7z"/>
	<path class="st0" d="M1553.4,336.1c2.3-21.2,17.3-31.9,45-31.9c14.8,0,25.8,1.1,33,3.4c7.2,2.3,12.2,6.3,15.1,12
		c2.8,5.7,4.6,10.7,5.1,15.1c0.7,6.5,1,13.1,0.9,19.6v199.3c0.1,6.6-0.2,13.1-0.9,19.6c-0.8,5.2-2.5,10.3-4.8,15.1
		c-5.3,9.9-18.3,14.8-39,14.8s-34.5-2.6-41.6-7.7c-7-5.1-11.1-12.6-12.2-22.5c-14,20.1-37.5,30.2-70.3,30.2c-32.8,0-63.3-15-91.4-45
		c-28.1-30-42.1-64.8-42.1-104.5c0-39.7,14.2-74.4,42.4-104.2c28.3-29.8,59.3-44.7,93.1-44.7c12.1-0.2,24.1,2.2,35.3,6.8
		c10.6,4.6,18,8.8,22.2,12.8C1547,328,1550.4,331.9,1553.4,336.1z M1449.7,454.5c0,12.5,4.9,23.8,14.8,33.9
		c9.3,9.8,22.3,15.3,35.9,15.1c14,0,25.7-5.1,35-15.4c9.3-10.2,14-21.5,13.9-33.9c0-12.4-4.5-23.8-13.4-34.4
		c-8.9-10.6-20.9-15.9-35.9-15.9c-15,0-27.1,5.3-36.4,15.9C1454.4,430.4,1449.8,442,1449.7,454.5z"/>
	<g>
		<g>
			<g>
				<path class="st1" d="M2377.6,619c21.5,19,25.7,66.8-13,94.5c-24.9,17.9-47.8,17.1-66.9-2.3c-31-31.3-14.8-56.2,9.2-75.3
					C2330.9,616.9,2357.3,601.1,2377.6,619z"/>
			</g>
			<g class="st2">
				<path class="st3" d="M2307,648.6c24-19.1,50.4-34.9,70.7-16.9c8.6,7.6,14.5,19.9,15.9,33.7c1.8-18.7-4.6-36.5-15.9-46.4
					c-20.3-18-46.7-2.2-70.7,16.9c-16.5,13.1-29.3,28.9-25.6,47.7C2283.9,670.3,2294.3,658.7,2307,648.6z"/>
			</g>
			<g class="st4">
				<path class="st5" d="M2364.7,713.5c-25,17.9-47.8,17.1-67-2.3c-21-21.2-20.3-39.5-10.2-55c13.8,19.4,34.7,24.1,61.1,13.8
					c20.4-7.9,33-22.2,39.1-37.6C2399.2,655.3,2396.1,691.1,2364.7,713.5z"/>
			</g>
			<g>
				<path class="st5" d="M2330.3,732.5c-13.3,0-25.7-5.7-36.9-17c-13.2-13.4-19.5-27-18.7-40.5c0.9-14.9,10.2-29.2,28.5-43.8
					c15.3-12.2,51.2-40.8,78.5-16.7c12.2,10.8,19.1,29.2,18.2,48.2c-1.1,22.2-12.4,42-31.6,55.8
					C2355.1,727.9,2342.4,732.5,2330.3,732.5z M2357.3,617.2c-11.8,0-26.7,7.7-46.5,23.5c-15.4,12.3-23.3,23.8-23.9,35
					c-0.6,9.9,4.5,20.4,15.2,31.3c17.1,17.3,36.4,17.8,59.1,1.6c16.2-11.6,25.6-28.1,26.6-46.5c0.8-15.4-4.6-30.1-14.1-38.5h0
					C2368.9,619.4,2363.5,617.2,2357.3,617.2z"/>
			</g>
			<g class="st4">
				<ellipse class="st5" cx="2094.2" cy="830.2" rx="371.7" ry="38.9"/>
			</g>
			<g>
				<g>
					<path class="st3" d="M2308.9,693.5c0,3.4,0,6.7-0.1,10.1c-2.1,71-53.3,127-114.8,127h-200.2c-61.5,0-112.7-55.9-114.8-127
						c-0.1-3.4-0.1-6.7-0.1-10.1c1.2-123.7,88.4-269.3,88.4-269.3h253.1C2220.5,424.1,2307.8,569.8,2308.9,693.5z"/>
				</g>
				<g>
					<path class="st5" d="M2194,831.4h-200.2c-30.1,0-58.6-13.2-80.3-37.1c-21.8-24-34.3-56.2-35.4-90.7c-0.1-3.4-0.1-6.8-0.1-10.2
						c1.1-122.5,87.7-268.3,88.5-269.8l0.3-0.4H2221l0.3,0.4c0.9,1.5,87.4,147.3,88.5,269.8l0,0c0,3.4,0,6.8-0.1,10.1
						c-1,34.5-13.6,66.7-35.4,90.7C2252.6,818.2,2224.1,831.4,2194,831.4z M1967.9,425c-5.3,9-86.9,149.8-88,268.4
						c0,3.3,0,6.7,0.1,10.1c2.1,70.7,52.2,126.1,113.9,126.1H2194c61.7,0,111.8-55.4,113.9-126.1c0.1-3.3,0.1-6.7,0.1-10l0,0
						c-1.1-118.7-82.7-259.5-88-268.5H1967.9z"/>
				</g>
			</g>
			<g>
				<path class="st1" d="M2308.9,693.5c-28.9-17.3-96.9-48.7-215-51.8h-0.1c-118,3.2-186,34.5-214.9,51.8
					c1.2-123.7,88.4-269.3,88.4-269.3h253.1C2220.5,424.1,2307.8,569.8,2308.9,693.5z"/>
			</g>
			<g>
				<g>
					<polygon class="st6" points="2093.9,313.1 2093.9,313.1 2093.9,313.1 					"/>
				</g>
				<g>
					<polygon class="st5" points="2094.8,314.6 2090.1,312.2 2094.8,312.2 					"/>
				</g>
			</g>
			<g>
				<g>
					<polygon class="st6" points="2093.9,313.1 2093.9,313.1 2093.9,313.1 					"/>
				</g>
				<g>
					<polygon class="st5" points="2093,314.6 2093,312.2 2097.7,312.2 					"/>
				</g>
			</g>
			<g>
				<path class="st5" d="M2194,836.6h-200.2c-31.6,0-61.4-13.8-84.2-38.8c-22.6-24.9-35.6-58.3-36.7-94
					c-3.8-126,85.4-276.4,89.2-282.7l1.8-3h260l1.8,3c3.8,6.3,93,156.7,89.2,282.7c-1.1,35.7-14.1,69.1-36.7,94
					C2255.5,822.8,2225.6,836.6,2194,836.6z M1970.9,430.2c-12.5,21.8-89.1,160.2-85.7,273.2c2,67.9,49.8,121.1,108.7,121.1H2194
					c58.9,0,106.7-53.2,108.7-121.1c3.4-113-73.2-251.4-85.7-273.2H1970.9z"/>
			</g>
			<g>
				<g>
					<path class="st7" d="M1938.5,694.7c0,0-70.6-80.8-112.3-11.9"/>
				</g>
				<g>
					<path class="st8" d="M1938.5,694.7c0,0-70.6-80.8-112.3-11.9"/>
				</g>
			</g>
			<g>
				<g>
					<path class="st7" d="M2256.6,694.7c0,0,70.6-80.8,112.3-11.9"/>
				</g>
				<g>
					<path class="st8" d="M2256.6,694.7c0,0,70.6-80.8,112.3-11.9"/>
				</g>
			</g>
			<g>
				<path class="st1" d="M2439.9,733.1c0,4.4-0.3,8.7-0.8,12.8c-2.8,22-12.3,38.9-23.7,51.6c-19.7,22-48.2,34-77.7,34h-480.3
					c-29.5,0-58-12.1-77.7-34c-13.5-15.1-24.4-36-24.6-64.4c-0.4-65.6,48-65.9,72.4-44.4c7.9-10.4,16.1-23.7,21-24.7
					c7.4-1.6,18.5-4.1,25.7-5.7c4.5-1,9.2-0.2,13.1,2.3c16.8,10.6,62.7,41.7,70.9,69.3c8.1,27.4,28.3,49.5,55.6,57.9l3.6,1.1
					c52.1,16.1,107.9,16.1,160.1,0l5-1.6c28.2-8.7,51.2-30.2,60-58.4c6.5-21,33.7-45.6,53-60.9c11.8-9.4,27.4-12.3,41.8-8
					c5.3,1.6,10.6,3.1,14.5,3.9c4.5,1,11.8,13,19,22c18.2-13.5,46.4-15.6,60.5,8c3.7,6.1,6.4,14,7.7,23.8c0.2,1.7,0.4,3.4,0.5,5.1
					c0,0.4,0.1,0.7,0.1,1.1C2439.8,726.9,2439.9,729.9,2439.9,733.1z"/>
			</g>
			<g class="st2">
				<path class="st3" d="M2441.3,729.5c0,0.4-0.4-1.9-1.7-5.5c-3.4-9.4-12.8-27.6-37-30.3c-33.4-3.7-57.4,39.2-57.4,39.2l-1.2-3.5
					c3.7-8.4,9.3-20.7,14.1-29.3c13.6-24.3,55.1-36.5,73.1-6.1c3.2,11.1,6.3,22.1,8.2,28.9C2440.7,726.8,2441.3,729.3,2441.3,729.5z
					"/>
			</g>
			<g class="st2">
				<path class="st3" d="M1756,729.5c0,0.4,0.4-1.9,1.7-5.5c3.4-9.4,12.8-27.6,37-30.3c33.4-3.7,57.4,39.2,57.4,39.2l1.2-3.5
					c-3.7-8.4-9.3-20.7-14.1-29.3c-13.6-24.3-55.1-36.5-73.1-6.1c-3.2,11.1-6.3,22.1-8.2,28.9C1756.7,726.8,1756,729.3,1756,729.5z"
					/>
			</g>
			<g class="st4">
				<path class="st5" d="M2439.1,745.9c-2.8,22-12.3,38.9-23.7,51.6c-19.7,22-48.2,34-77.7,34h-481.1c-29.5,0-58-12.1-77.7-34
					c-11.4-12.7-21-29.6-23.7-51.6c3-1.6,4.7-2.4,4.7-2.4s14.7,46.9,51,50.4c38.8,3.7,55.6-35.9,55.6-35.9s4.4,41.3,61.7,46.5
					c2.6,0.2,11,0.6,22.7,0.9c-16.9-14.1-28.9-33.2-33.3-55.2c-6.3-31.6,3.2-69.2,3.4-107.9l92.8-36.1c0,38.6,5.6,69.8,11.8,92.5
					c6.2,22.7,25.1,40.3,49.2,46.7c8.8,2.4,17.7,6.5,24.1,13.6c6.4-7.1,15.3-11.3,24.1-13.6c24.1-6.4,43-24,49.2-46.7
					c6.3-22.8,11.8-53.9,11.8-92.5l92.5,40.1c0.2,38.7,10,72.3,3.7,103.9c-4.3,21.8-16.2,40.8-32.8,54.8c9.8-0.2,16.5-0.4,18.5-0.5
					c57.3-5.2,52.4-54.8,52.4-54.8s24.7,39.3,54,39.3c53.7,0,61.8-45.4,61.8-45.4S2436.1,744.3,2439.1,745.9z"/>
			</g>
			<g class="st2">
				<path class="st3" d="M2257.3,697.2c88-59.5,95.2,11.8,95.2,11.8c6.6-14.9,7.7-16.8,14.8-24c-4.2-8.9-25-24.5-25-24.5
					c-1.9-1.9-3.5-4.3-4.8-7.1c-0.4-0.8-31.6,6.4-32,5.5L2257.3,697.2z"/>
			</g>
			<g>
				<path class="st5" d="M2256.6,700.7c-1.4,0-2.8-0.5-4-1.5c-2.5-2.2-2.8-6-0.6-8.6c1.6-1.8,39.8-45,78.8-41.6
					c17.3,1.5,31.9,11.8,43.2,30.5c1.7,2.9,0.8,6.6-2,8.3c-2.9,1.7-6.6,0.8-8.3-2c-9.2-15.3-20.6-23.6-33.9-24.7
					c-33-2.8-68.3,37.1-68.6,37.5C2259.9,700,2258.3,700.7,2256.6,700.7z"/>
			</g>
			<g class="st2">
				<path class="st3" d="M1937,695.4c-88-59.5-94,7.2-94,7.2c-6.6-14.9-8.9-12.2-16.1-19.4c4.2-8.9,25-24.5,25-24.5
					c1.9-1.9,3.5-4.3,4.8-7.1c0.4-0.8,31.6,6.4,32,5.5L1937,695.4z"/>
			</g>
			<g>
				<path class="st5" d="M2155.5,837.6h-298.1c-31.7,0-61.6-13.1-82.2-36c-17.2-19.2-26-42.2-26.1-68.4c-0.2-37,14.2-52.3,26.4-58.6
					c15.2-7.9,35.4-5.5,51.6,6c2.7,1.9,3.4,5.7,1.4,8.5c-1.9,2.7-5.7,3.4-8.5,1.4c-12.5-8.9-27.7-10.9-38.9-5.1
					c-13.1,6.8-19.9,23.3-19.8,47.7c0.1,23.2,7.9,43.5,23,60.4c18.3,20.3,44.9,32,73.2,32h298.1c3.4,0,6.1,2.7,6.1,6.1
					C2161.6,834.9,2158.9,837.6,2155.5,837.6z"/>
			</g>
			<g>
				<path class="st5" d="M1854.2,739.1c-6-8.4-11.2-17.1-16.5-25.5l-4-6.3c-1.3-2.1-2.6-4.2-3.8-5.8c-2.4-3.5-5.4-6.6-8.5-9.8
					l-0.1-0.2c-2.3-2.4-2.2-6.3,0.2-8.6c2-2,5.1-2.2,7.4-0.8c4.9,3,9,7.2,12.1,12.2c1.6,2.6,2.6,5,3.7,7.3c1,2.4,1.9,4.8,2.8,7.2
					c1.8,4.8,3.4,9.7,4.8,14.6c1.4,4.9,2.6,9.9,3.5,15c0.1,0.5-0.2,0.9-0.7,1C1854.7,739.5,1854.4,739.3,1854.2,739.1z"/>
			</g>
			<g>
				<path class="st5" d="M1938.5,700.7c-1.7,0-3.4-0.7-4.6-2.1c-0.5-0.6-35.9-40.3-68.7-37.5c-13.3,1.2-24.7,9.5-33.9,24.7
					c-1.7,2.9-5.5,3.8-8.3,2c-2.9-1.7-3.8-5.5-2-8.3c11.4-18.8,25.9-29,43.2-30.5c39-3.4,77.2,39.8,78.8,41.6
					c2.2,2.5,1.9,6.4-0.6,8.6C1941.3,700.2,1939.9,700.7,1938.5,700.7z"/>
			</g>
			<g>
				<path class="st5" d="M2358.2,706.2c-1,0-2-0.2-3-0.8c-2.9-1.6-4-5.3-2.3-8.3c4.4-7.8,11.2-14.6,19.8-19.6
					c2.9-1.7,6.6-0.7,8.3,2.2c1.7,2.9,0.7,6.6-2.2,8.3c-6.6,3.8-12,9.1-15.3,15C2362.4,705,2360.3,706.2,2358.2,706.2z"/>
			</g>
			<g>
				<path class="st5" d="M2337.7,837.6h-298.1c-3.4,0-6.1-2.7-6.1-6.1c0-3.4,2.7-6.1,6.1-6.1h298.1c28.2,0,54.9-11.7,73.2-32
					c15.2-16.9,22.9-37.2,23-60.4c0.1-23.7-6.3-40-18.7-47.1c-10.1-5.9-24.1-5.1-36.4,2.1c-1.3,0.8-2.7,1.6-3.9,2.5
					c-2.7,2-6.5,1.4-8.5-1.3c-2-2.7-1.4-6.5,1.3-8.5c1.6-1.2,3.3-2.2,5-3.2c16.1-9.3,34.7-10.2,48.6-2.1c11.4,6.6,24.9,22,24.7,57.7
					c-0.1,26.3-8.9,49.3-26.1,68.4C2399.3,824.5,2369.4,837.6,2337.7,837.6z"/>
			</g>
			<g>
				<path class="st5" d="M2339.3,738.4c0.9-5.1,2.2-10.1,3.5-15c1.4-4.9,3-9.8,4.8-14.6c0.9-2.4,1.8-4.8,2.8-7.2
					c1-2.4,2.1-4.7,3.7-7.3c3.1-5,7.2-9.2,12.1-12.2c2.9-1.8,6.6-0.9,8.4,2c1.5,2.4,1.1,5.5-0.8,7.4l-0.2,0.2
					c-3.1,3.2-6.1,6.4-8.5,9.8c-1.2,1.6-2.4,3.8-3.8,5.8l-4,6.3c-5.3,8.5-10.6,17.1-16.5,25.6c-0.3,0.4-0.8,0.5-1.2,0.2
					C2339.4,739.1,2339.2,738.7,2339.3,738.4z"/>
			</g>
			<g class="st4">
				<path class="st5" d="M2302.3,548.3c-35.5,41.8-112.9,70.8-202.6,70.8c-90.4,0-172.7-30.7-207.8-73
					c10.6-13.9,23.6-22.2,23.6-22.2c82.9,41.6,146.1,38.7,172,34.7c3.3-0.5,5.9-1,8-1.5h0c1.6,0.2,3.4,0.5,5.5,0.7
					c28,3.1,99.2,5.2,184.1-37.5C2285.2,520.3,2292.9,532.1,2302.3,548.3z"/>
			</g>
			<g>
				<path class="st1" d="M2403.5,191.1c-11.7,11.6-25.3,18.5-36.7,6.6c-3.1-3.3-5.9-7.4-9.4-12.3c-5.4-7.6-12.5-17.3-24.9-28.9
					c-26-24.4-47.2-30.1-58.1-36.3c-5.4-3.1-8.3-6.2-8-11.9c1.3-28.5,21.3-49.1,66.4-56.1c23.5-3.6,47.6,2.2,64.5,13
					c1.5,1,3,2,4.4,3c0.4,0.3,0.9,0.6,1.3,1c0.4,0.3,0.8,0.7,1.2,1c0.4,0.3,0.8,0.7,1.2,1c0.1,0.1,0.2,0.2,0.3,0.2
					c0.6,0.5,1.2,1,1.7,1.6c0.1,0.1,0.2,0.2,0.3,0.3c0.4,0.4,0.7,0.7,1.1,1.1c3.6,3.6,6.4,7.5,8.4,11.5
					C2440.4,132.7,2423.7,171,2403.5,191.1z"/>
			</g>
			<g class="st9">
				<path class="st3" d="M2397.2,65.4c-68.4-26.3-111,34.8-122.9,54.9c-5.4-3.1-8.3-6.2-8-11.9c1.3-28.5,21.3-49.1,66.4-56.1
					C2356.2,48.7,2380.2,54.6,2397.2,65.4z"/>
			</g>
			<g class="st4">
				<path class="st5" d="M2399.9,189.3c-11.7,11.6-25.3,18.5-36.7,6.6c-3.1-3.3-5.9-7.4-9.4-12.3c8.3-0.2,16.5-3.4,22.9-9.8
					c21.3-21.1,39-59.8,21.4-107.3c0.4,0.3,0.9,0.6,1.3,1c0.4,0.3,0.8,0.7,1.2,1c0.4,0.3,0.8,0.7,1.2,1c0.1,0.1,0.2,0.2,0.3,0.2
					c0.6,0.5,1.2,1,1.7,1.6c0.1,0.1,0.2,0.2,0.3,0.3c0.4,0.4,0.7,0.7,1.1,1.1c3.6,3.6,6.4,7.5,8.4,11.5
					C2436.8,130.9,2420.1,169.2,2399.9,189.3z"/>
			</g>
			<g>
				<path class="st5" d="M2378.1,210.5c-3.3,0-6-2.6-6.1-5.9c-0.1-3.3,2.5-6.2,5.9-6.3c7.5-0.2,23-8.9,34.1-27.4
					c8.3-13.9,19.3-43-0.2-82.3c-10.8-21.8-38.3-35.6-68.5-34.1c-34.1,1.6-61.8,21.9-74.2,54.3c-1.2,3.1-4.7,4.7-7.8,3.5
					c-3.1-1.2-4.7-4.7-3.5-7.8c14.1-37,45.9-60.2,84.9-62.1c34.9-1.7,67,14.7,79.9,40.8c22.1,44.4,9.3,77.9-0.2,93.9
					c-11.3,18.8-29.8,32.9-44.1,33.3C2378.2,210.5,2378.1,210.5,2378.1,210.5z"/>
			</g>
			<g>
				<path class="st1" d="M1927.5,109c0.1,23-24,11.1-62.8,47.6c-20.4,19.2-21.1,25.7-29,34c-11.4,11.9-30.3,12.2-42,0.6
					c-20.2-20.1-36.9-58.4-13.7-105.1c11.1-22.4,48.4-39.2,84.5-33.6C1909.5,59.3,1927.3,80.4,1927.5,109z"/>
			</g>
			<g class="st4">
				<path class="st5" d="M1845.9,179.5c-3,4.2-5,7.5-8.5,11.1c-11.4,11.9-30.3,12.2-42,0.6c-20.2-20.1-36.9-58.4-13.7-105.1
					c3.1-6.3,8.3-12.2,15-17.2c-18.1,45.5-1.3,82.5,19,102.6C1823.9,179.6,1835.5,182.3,1845.9,179.5z"/>
			</g>
			<g class="st9">
				<path class="st3" d="M1798.7,65.4c68.4-26.3,111,34.8,122.9,54.9c5.4-3.1,8.3-6.2,8-11.9c-1.3-28.5-21.3-49.1-66.4-56.1
					C1839.7,48.7,1815.7,54.6,1798.7,65.4z"/>
			</g>
			<g>
				<path class="st5" d="M1819,210.5c-0.1,0-0.1,0-0.2,0c-14.3-0.5-32.9-14.5-44.1-33.3c-9.6-16-22.3-49.4-0.2-93.9
					c12.9-26.1,45.1-42.5,79.9-40.8c39.1,1.9,70.8,25.1,84.9,62.1c1.2,3.1-0.4,6.6-3.5,7.8c-3.1,1.2-6.6-0.4-7.8-3.5
					c-12.4-32.4-40.1-52.7-74.2-54.3c-30.1-1.5-57.6,12.2-68.5,34.1c-19.5,39.3-8.5,68.4-0.2,82.3c11.1,18.5,26.6,27.2,34.1,27.4
					c3.4,0.1,6,2.9,5.9,6.3C1825,208,1822.3,210.5,1819,210.5z"/>
			</g>
			<g>
				<g>
					<path class="st3" d="M2421.1,395.6c-5.3,34.1-15.8,72.1-52.6,106.8c-17.2,16.2-37.9,29.1-71,43.1
						c-30.7,13-107.4,32.3-198.7,32.2c-91.3,0.1-167.9-19.2-198.6-32.2c-33.1-14.1-53.8-26.9-71-43.1
						c-36.8-34.7-47.2-72.8-52.6-106.8c-7.8-50,14-172.7,55.9-225c16.1-20,32.5-38.6,52.2-55.1c41.6-34.8,98-59.7,196.9-66.5
						c5.7-0.4,11.5-0.6,17.2-0.6c5.8,0,11.5,0.2,17.2,0.6c99.9,6.9,156.4,32.2,198.2,67.6c19.1,16.2,35.2,34.5,50.9,54
						C2407.1,222.9,2428.9,345.6,2421.1,395.6z"/>
				</g>
				<g>
					<path class="st8" d="M2421.1,395.6c-5.3,34.1-15.8,72.1-52.6,106.8c-17.2,16.2-37.9,29.1-71,43.1
						c-30.7,13-107.4,32.3-198.7,32.2c-91.3,0.1-167.9-19.2-198.6-32.2c-33.1-14.1-53.8-26.9-71-43.1
						c-36.8-34.7-47.2-72.8-52.6-106.8c-7.8-50,14-172.7,55.9-225c16.1-20,32.5-38.6,52.2-55.1c41.6-34.8,98-59.7,196.9-66.5
						c5.7-0.4,11.5-0.6,17.2-0.6c5.8,0,11.5,0.2,17.2,0.6c99.9,6.9,156.4,32.2,198.2,67.6c19.1,16.2,35.2,34.5,50.9,54
						C2407.1,222.9,2428.9,345.6,2421.1,395.6z"/>
				</g>
			</g>
			<g class="st4">
				<path class="st5" d="M2421.1,395.6c-5.3,34.1-15.8,72.1-52.6,106.8c-17.2,16.2-37.9,29.1-71,43.1
					c-30.7,13-107.4,32.3-198.7,32.2c-91.3,0.1-167.9-19.2-198.6-32.2c-33.1-14.1-53.8-26.9-71-43.1
					c-36.8-34.7-47.2-72.8-52.6-106.8c-2.1-13.2-2.1-31.5-0.2-52.2c0.1,0.4,0.1,0.8,0.2,1.2c5.3,34.1,15.8,72.1,52.6,106.8
					c17.2,16.2,38,29.1,71,43.1c30.7,13.1,107.3,32.3,198.6,32.2c91.3,0.1,167.9-19.2,198.7-32.2c33.1-14,53.8-26.9,71-43.1
					c36.8-34.7,47.3-72.8,52.6-106.8c0.1-0.4,0.1-0.8,0.2-1.2C2423.1,364.1,2423.1,382.4,2421.1,395.6z"/>
			</g>
			<g>
				<path class="st5" d="M2099.6,583.8c-0.6,0-1.1,0-1.7,0c-97.5,0-173.5-21.4-200.2-32.7c-33-14-54.7-27.3-72.8-44.3
					c-38.4-36.2-49.1-76.1-54.4-110.3c-8.2-52.4,14.2-176.1,57.2-229.7c27.2-33.8,53-60.7,90.4-81.9c42.3-23.9,94-37.2,162.9-42
					c11.4-0.8,23.9-0.8,35.3,0c68.9,4.8,120.7,18.1,162.9,42c37.4,21.1,63.2,48,90.4,81.9c43.1,53.6,65.4,177.3,57.2,229.7
					c-5.4,34.2-16,74.1-54.4,110.3c-18.1,17-39.8,30.3-72.8,44.3C2273.2,562.5,2197.1,583.8,2099.6,583.8z M2098.8,571.7
					c95.9,0.1,170.3-20.7,196.3-31.7c31.6-13.4,52.3-26,69.2-42c35.7-33.7,45.7-71.2,50.8-103.3c7.7-49.1-14.2-169.9-54.7-220.2
					c-47.7-59.3-99-109.3-244.8-119.3c-10.9-0.8-22.8-0.8-33.6,0c-145.7,10.1-197.1,60-244.8,119.3
					c-40.5,50.4-62.4,171.1-54.7,220.2c5,32.2,15,69.6,50.8,103.3c17,16,37.7,28.6,69.2,42c25.9,11,99.9,31.7,195.4,31.7
					C2098.3,571.7,2098.5,571.7,2098.8,571.7z"/>
			</g>
			<g>
				<path class="st1" d="M1879.9,423.3c0,0-43.8-9.4-30-63.8c13.9-54.4,104.3-90.5,130.4-86.4c26.1,4.1,35.3,24.7,37.8,38.7
					c2.5,14,6.8,79.4-30.7,99.3C1949.8,431,1903,429,1879.9,423.3z"/>
			</g>
			<g>
				<path class="st1" d="M2211.1,430.1c0,0-61.9-7.9-51-79.4s27.4-76.2,63.9-74.7c36.6,1.5,92.8,34.9,112,59.7
					c19.2,24.8,22.1,69.3,13.1,86c-7.4,13.7-32,22.1-68,20S2224.8,434,2211.1,430.1z"/>
			</g>
			<g>
				<path class="st3" d="M2260.5,341.6c-5.9-0.4-11.8-0.4-17.3,0.2c-5.6,0.7-10.9,2-15.8,4.4c-4.9,2.3-9.2,5.4-12.9,9.2
					c-1.9,1.9-3.5,4-5.1,6.2c-0.8,1.1-1.4,2.2-2.1,3.4c-0.3,0.6-0.6,1.2-0.9,1.7c-0.3,0.5-0.6,1.2-0.7,1.6l-6.1-7
					c2.9-0.5,5.4-0.8,8.1-1c2.6-0.2,5.3-0.3,7.9-0.3c5.3,0,10.6,0.6,15.9,1.6c5.2,1.1,10.4,2.8,15.2,5.4c2.4,1.3,4.7,2.8,6.7,4.6
					c2.1,1.8,3.9,3.8,5.4,6c0.6,0.8,0.4,2-0.4,2.5c-0.7,0.5-1.6,0.4-2.2-0.1l-0.1,0c-1.9-1.5-3.8-2.9-5.8-4.1
					c-2.1-1.1-4.2-2.1-6.4-2.9c-2.2-0.8-4.5-1.4-6.8-1.9c-2.3-0.5-4.7-0.8-7-1c-4.7-0.5-9.5-0.4-14.3-0.3c-2.4,0.1-4.8,0.3-7.2,0.6
					c-2.3,0.3-4.8,0.7-6.9,1.1l0,0c-2.9,0.6-5.7-1.3-6.3-4.1c-0.2-1-0.1-2,0.2-2.9c0.4-1.1,0.7-1.8,1.1-2.6c0.4-0.8,0.7-1.5,1.1-2.3
					c0.8-1.5,1.7-2.9,2.6-4.3c1.8-2.8,4-5.3,6.4-7.7c4.8-4.7,10.5-8.5,16.8-10.8c6.3-2.3,12.9-3.2,19.3-2.9
					c6.4,0.3,12.6,1.6,18.4,3.9c0.9,0.4,1.4,1.4,1,2.4C2262,341.2,2261.3,341.6,2260.5,341.6L2260.5,341.6z"/>
			</g>
			<g>
				<g>
					<path class="st3" d="M2089,429.4c7.1,20.2,41.3,38.3,50.6-4.8"/>
				</g>
				<g>
					<path class="st8" d="M2089,429.4c7.1,20.2,41.3,38.3,50.6-4.8"/>
				</g>
			</g>
			<g>
				<g>
					<path class="st3" d="M2089,426.4c0.2,21.6-37.9,37.7-43.8-4.4"/>
				</g>
				<g>
					<path class="st8" d="M2089,426.4c0.2,21.6-37.9,37.7-43.8-4.4"/>
				</g>
			</g>
			<g>
				<path class="st5" d="M2041.6,423.8c0.9,2.8,1.8,5.6,3,8.2c1.2,2.6,2.5,5,4.1,7.1c1.6,2,3.4,3.7,5.4,4.8c2,1.1,4,1.6,6.3,1.6
					c4.4-0.1,9.3-2.3,13.3-5.6c4-3.3,7.3-7.8,9-12.4l5.8-15.8l5.7,15.8c1.6,4.6,5,9,9,12.3c4,3.3,8.8,5.6,13.3,5.7
					c4.4,0.2,8.5-2.1,11.9-6.2c1.6-2,3.1-4.4,4.3-7.1c1.3-2.6,2.3-5.4,3.3-8.2l0.1-0.2c0.6-1.7,2.4-2.5,4.1-1.9
					c1.4,0.5,2.3,2,2.1,3.4c-0.4,3.2-1,6.5-2,9.8c-1,3.2-2.3,6.5-4.2,9.6c-1.9,3.1-4.5,6-7.8,8.2c-3.3,2.2-7.4,3.6-11.5,3.7
					c-8.2,0.3-15.4-3-21.1-7.5c-5.7-4.5-10.3-10.4-12.9-17.6h11.5c-2.6,7.2-7.3,13.1-12.9,17.6c-2.9,2.3-6,4.2-9.6,5.6
					c-3.5,1.4-7.4,2.2-11.5,2c-4.1-0.1-8.2-1.5-11.5-3.6c-3.4-2.2-6.1-5.1-8-8.2c-2-3.1-3.4-6.3-4.5-9.6c-1.1-3.2-1.7-6.5-2.3-9.8
					c-0.4-2.2,1.1-4.3,3.3-4.7c2-0.3,3.9,0.9,4.5,2.8L2041.6,423.8z"/>
			</g>
			<g>
				<polygon class="st5" points="2089.2,394.2 2094.4,434.4 2082.2,434.5 2085.5,394.4 				"/>
			</g>
			<g>
				<g>
					<path class="st10" d="M2130.1,386.3c0.1,14-18.7,25.5-42.1,25.7c-23.4,0.2-42.4-10.9-42.5-24.9c-0.1-14,18.8-13.2,42.2-13.4
						C2111,373.5,2130,372.3,2130.1,386.3z"/>
				</g>
				<g>
					<path class="st8" d="M2130.1,386.3c0.1,14-18.7,25.5-42.1,25.7c-23.4,0.2-42.4-10.9-42.5-24.9c-0.1-14,18.8-13.2,42.2-13.4
						C2111,373.5,2130,372.3,2130.1,386.3z"/>
				</g>
			</g>
			<g class="st4">
				<g>
					<path class="st3" d="M2105,383.9c0,3.7-6.9,6.7-15.6,6.8s-15.6-2.8-15.7-6.5s7-3.5,15.6-3.6
						C2097.9,380.6,2104.9,380.3,2105,383.9z"/>
				</g>
				<g>
					<path class="st8" d="M2105,383.9c0,3.7-6.9,6.7-15.6,6.8s-15.6-2.8-15.7-6.5s7-3.5,15.6-3.6
						C2097.9,380.6,2104.9,380.3,2105,383.9z"/>
				</g>
			</g>
			<g>
				<path class="st11" d="M2218.9,521.1c-13.8,8.8-33.5,17.9-53.3,26c-48.9,19.9-104.5,20.3-153.7,1.2c-20-7.8-39.8-16.5-53.7-25.1
					c-9.9-6.2-37-50.7-37.4-103.9c0,0,60.5-12.4,96.2-49.1s70.1-34.1,70.1-34.1s34.4-3.1,70.7,33c36.3,36.1,97,47.6,97,47.6
					C2255.1,469.8,2228.8,514.8,2218.9,521.1z"/>
			</g>
			<g>
				<path class="st12" d="M2088.7,541.5c-24.2,0.2-47.7-4.1-70-12.7c-21.9-8.5-38.7-16.3-49.9-23.2c-6.2-5.8-22.9-34.7-27.3-70.6
					c22.3-6.8,61.7-21.9,89.2-50.1c26-26.7,50.1-28.2,54.7-28.2c0.2,0,0.3,0,0.4,0l2,0.2l0.9-0.2c0.1,0,0.2,0,0.3,0
					c4.6,0,28.7,1.1,55.1,27.4c28,27.8,67.6,42.3,90,48.7c-3.8,36-20.1,65.2-26.2,71.1c-11.1,7-27.8,15.1-49.6,23.9
					C2136.3,536.7,2112.9,541.4,2088.7,541.5z"/>
			</g>
			<g>
				<path class="st5" d="M2255.7,421.9l-1.9-10.7c1.2-0.2,122.7-22.6,160.4-90.2l9.5,5.3C2383.4,398.4,2260.9,421,2255.7,421.9z"/>
			</g>
			<g>
				<path class="st5" d="M2284.5,534c-35,0-64.8-7.2-66.9-7.7l2.6-10.5c0.8,0.2,82,19.7,131.3-6l5,9.6
					C2335,530.6,2308.5,534,2284.5,534z"/>
			</g>
			<g>
				<path class="st5" d="M1919.5,424.5c-3.3-0.8-82.4-20-145-97.3l8.4-6.8c60.2,74.3,138.3,93.4,139.1,93.6L1919.5,424.5z"/>
			</g>
			<g>
				<path class="st5" d="M1912.4,530.4c-18.7,0-42.5-2.3-69.8-10.2l3-10.4c62.8,18,107,5.3,107.5,5.1l3.1,10.4
					C1955.1,525.6,1938.9,530.4,1912.4,530.4z"/>
			</g>
			<g>
				<path class="st13" d="M1985.5,439.3c15.1-9.1,31-16.9,47.4-23.6c8.2-3.4,16.6-6.3,25.2-8.9c8.6-2.5,17.4-4.5,26.8-5
					c9.5-0.3,18.5,1.5,27.2,3.8c8.7,2.3,17.1,5.2,25.3,8.5c4.1,1.6,8.2,3.4,12.2,5.1c4,1.9,8,3.7,12,5.7c7.9,4,15.7,8.1,23.2,12.8
					c0.2,0.1,0.3,0.4,0.1,0.7c-0.1,0.2-0.4,0.3-0.6,0.2c-16.5-6.1-32.9-12.2-49.5-17.5c-2.1-0.7-4.1-1.3-6.2-1.9
					c-2.1-0.6-4.1-1.3-6.2-1.9l-6.2-1.7c-2.1-0.6-4.2-1-6.3-1.5c-1-0.2-2.1-0.5-3.1-0.7l-3.1-0.6c-2.1-0.4-4.2-0.8-6.2-1
					c-4.2-0.6-8.2-0.9-12.3-0.8c-8.1,0.3-16.6,2.1-24.9,4.2c-8.3,2.1-16.6,4.7-24.9,7.4c-16.5,5.5-33,11.6-49.5,17.6l0,0
					c-0.2,0.1-0.5,0-0.6-0.3C1985.3,439.6,1985.4,439.4,1985.5,439.3z"/>
			</g>
			<g>
				<path class="st13" d="M1997.4,487.4l44.4,8.6c7.4,1.3,14.7,2.7,22.1,3.7c7.3,1,14.7,1.9,21.9,2c7.1,0.1,14.4-0.9,21.7-2
					c7.3-1,14.6-2.6,22-4c14.7-3,29.3-6.5,44.2-9.7c0.3-0.1,0.5,0.1,0.6,0.4c0.1,0.2-0.1,0.4-0.3,0.5c-13.8,6.4-28.1,11.6-42.7,15.9
					c-3.6,1.1-7.3,2.1-11.1,3l-5.6,1.3l-5.6,1.2c-7.6,1.4-15.3,2.5-23.3,2.5c-8-0.1-15.6-1.2-23.2-2.6c-7.5-1.5-15-3.1-22.3-5.1
					c-14.7-4-29.1-8.7-43.1-14.7c-0.2-0.1-0.4-0.4-0.3-0.6C1997,487.4,1997.2,487.3,1997.4,487.4z"/>
			</g>
			<g>
				<path class="st13" d="M1984.3,461.8c16.9-1.3,33.7-1.8,50.6-2.2c16.8-0.4,33.7-0.4,50.5-0.5c16.8-0.2,33.6-0.3,50.4-0.3
					c16.8,0.1,33.7,0.3,50.6,1.4c0.3,0,0.5,0.2,0.4,0.5c0,0.2-0.2,0.4-0.4,0.4c-16.8,2.4-33.6,3.9-50.4,5c-16.8,1.1-33.7,1.9-50.6,2
					c-16.9,0.1-33.8-0.5-50.6-1.3c-16.8-0.9-33.7-2.1-50.5-4.1c-0.3,0-0.4-0.3-0.4-0.5C1983.9,462,1984.1,461.8,1984.3,461.8z"/>
			</g>
			<g class="st14">
				<g>
					<path class="st3" d="M1921.4,432.2c2.2,24.7,9.6,46.8,17.5,63.1c-9.3-15.8-17.9-38.3-18.1-63.1
						C1920.8,432.3,1921,432.3,1921.4,432.2z"/>
				</g>
				<g>
					<path class="st5" d="M1938.1,495.8c-6.7-11.4-18-34.9-18.2-63.5l0-0.8l0.8-0.1c0,0,0.2,0,0.5-0.1l1-0.2l0.1,1
						c1.9,21.2,8.1,43.5,17.4,62.8L1938.1,495.8z"/>
				</g>
			</g>
			<g class="st14">
				<g>
					<path class="st3" d="M2254.8,429.7c0.2,24.8-8.1,47.4-17.1,63.3c7.7-16.4,14.8-38.7,16.5-63.4
						C2254.6,429.7,2254.8,429.7,2254.8,429.7z"/>
				</g>
				<g>
					<path class="st5" d="M2238.5,493.5l-1.6-0.8c9.1-19.5,14.9-41.9,16.5-63.1l0.1-1l1,0.2c0.3,0.1,0.5,0.1,0.5,0.1l0.8,0.1l0,0.8
						C2255.9,458.3,2245,481.9,2238.5,493.5z"/>
				</g>
			</g>
			<g class="st4">
				<path class="st5" d="M2254.7,416.6c0.4,53.3-26,98.2-35.8,104.5c-13.8,8.8-33.5,17.9-53.3,25.9c-48.9,19.9-104.5,20.3-153.7,1.2
					c-20-7.8-39.8-16.5-53.7-25.1c-9.9-6.2-37-50.7-37.4-104c0,0,1.4-0.3,3.8-0.9c8,36.4,25.7,63.7,33.3,68.4
					c13.9,8.6,33.7,17.4,53.7,25.1c49.2,19.1,104.8,18.7,153.7-1.2c19.9-8.1,39.5-17.1,53.3-26c7.5-4.8,24.8-32.3,32.2-68.9
					C2253.3,416.3,2254.7,416.6,2254.7,416.6z"/>
			</g>
			<g>
				<path class="st5" d="M2087.2,568.3c-26.4,0-52.8-4.8-77.5-14.4c-23.7-9.2-42.1-17.8-54.7-25.6c-11.9-7.3-39.9-53.3-40.3-109.1
					l0-5l4.9-1c0.6-0.1,59.1-12.5,93.1-47.4c35.4-36.3,69.7-36.2,74.4-35.9c4.7-0.3,39.1-1,75,34.8c34.5,34.3,93.2,45.8,93.8,45.9
					l4.9,0.9l0,5c0.4,55.8-26.8,102.1-38.6,109.7l0,0c-12.5,8-30.8,16.9-54.3,26.5C2142.3,563.1,2114.7,568.3,2087.2,568.3z
					 M1926.9,424c2,50.5,27.9,90,34.4,94c12,7.4,29.7,15.7,52.7,24.6c47.6,18.5,102,18,149.2-1.2c22.9-9.3,40.5-17.9,52.3-25.4
					c8.1-5.2,31.8-46.4,33-94.5c-15.6-3.6-63.7-16.8-95.1-48.1c-33.9-33.7-65.5-31.3-65.8-31.3l-0.5,0l-0.5,0
					c-1.3-0.1-32.3-1.7-65.3,32.3C1990.3,406.1,1942.4,420.1,1926.9,424z"/>
			</g>
			<g>
				<path class="st1" d="M2011.8,606.5c0,38.6,4.7,69.8,10,92.5c5.3,22.7,21.2,40.3,41.6,46.7c14.2,4.5,28.6,15.5,28.6,41.5
					c0,38.3-49.7,43.6-49.7,43.6h-24.2c-42.9,0-79.9-33.7-87.7-80.4c-5.3-31.6-9.7-69.5-9.5-108.3"/>
			</g>
			<g>
				<g class="st2">
					<path class="st3" d="M2012.8,638.7c1.5,25.5,5,46.7,8.8,63.3c5,21.7,20.3,38.5,39.8,44.7c13.6,4.3,27.4,14.8,27.4,39.7
						c0,14.1-7,23.5-15.7,29.7c4.2-5.5,7-12.5,7-21.4c0-24.9-13.8-35.4-27.4-39.7c-19.5-6.2-34.7-23-39.8-44.7
						c-1.2-5.2-2.4-11-3.5-17.1C2006.1,665.3,2008.5,648.7,2012.8,638.7z"/>
				</g>
			</g>
			<g class="st4">
				<path class="st5" d="M2092,787.2c0,38.3-49.7,43.6-49.7,43.6h-24.2c-42.9,0-79.9-33.8-87.7-80.4c-5.3-31.6-9.7-69.5-9.5-108.3
					l1-0.4c1.6,26.6,4.8,51.9,8.6,74.1c7.8,46.6,44.7,80.4,87.7,80.4h24.2c0,0,35.4-3.8,46.4-28C2090.8,773.5,2092,779.7,2092,787.2
					z"/>
			</g>
			<g>
				<path class="st5" d="M2013.8,606.5c3.3,11.8,4.4,23.5,5.7,35.2c1.3,11.7,2.4,23.3,4.1,34.9c0.9,5.8,1.9,11.6,3.2,17.3
					c0.3,1.4,0.6,2.9,1,4.2c0.4,1.3,0.7,2.6,1.1,3.9c0.8,2.6,1.8,5.1,2.9,7.6c4.5,9.8,11.7,18.4,20.6,24.3c1.2,0.7,2.3,1.4,3.4,2
					c1.2,0.6,2.3,1.3,3.6,1.8c1.2,0.5,2.4,1.1,3.7,1.5l4.2,1.5c6.2,2.2,12.3,5.7,17.3,10.6c5,4.9,8.7,11.1,10.7,17.6
					c2.1,6.5,2.7,13.1,2.6,19.6c0,3.4-0.6,6.8-1.4,10.2c-0.9,3.4-2.2,6.6-3.9,9.7c-1.7,3-3.8,5.8-6.1,8.4c-2.3,2.5-4.9,4.7-7.6,6.7
					c-5.4,3.9-11.3,6.7-17.3,8.9c-3,1.1-6.1,2-9.1,2.8c-1.5,0.4-3.1,0.7-4.7,1c-1.6,0.3-3.1,0.6-4.9,0.8l-0.3,0h-0.4h-16.4l-8.2,0
					c-2.9-0.2-5.9-0.2-8.8-0.5c-11.7-1.2-23.1-4.9-33.3-10.5c-20.6-11.3-36.3-30.2-44.7-51.7l-1.6-4c-0.5-1.3-0.9-2.8-1.3-4.1
					c-0.8-2.8-1.7-5.5-2.2-8.4c-1.3-5.7-2.1-11.1-2.9-16.5c-1.7-10.9-3.1-21.8-4.3-32.8c-0.6-5.5-1.1-11-1.6-16.5
					c-0.5-5.5-1.2-11-1.6-16.5c-0.4-5.5-0.4-11,0-16.6c0.5-5.5,1.4-11.1,3.6-16.6c0.4-1.1,1.7-1.7,2.8-1.2c0.6,0.2,1,0.7,1.2,1.2
					l0,0c2.2,5.4,3.2,10.8,4,16.2c0.7,5.4,1.1,10.8,1.4,16.2c0.2,5.4,0.3,10.8,0.7,16.2c0.4,5.4,0.9,10.8,1.5,16.2
					c1.2,10.8,2.6,21.5,4.2,32.2c0.8,5.3,1.7,10.8,2.8,15.7c0.4,2.5,1.3,5,2,7.5c0.4,1.2,0.7,2.5,1.2,3.7l1.4,3.6
					c7.5,19.1,21.4,35.8,39.3,45.5c8.9,4.9,18.7,8,28.8,9.1c2.5,0.2,5,0.3,7.6,0.4l8.2,0h16.4l-0.6,0c1.1-0.1,2.6-0.4,3.9-0.6
					c1.4-0.3,2.7-0.6,4.1-0.9c2.7-0.7,5.3-1.5,7.9-2.4c5.2-1.9,10.1-4.3,14.3-7.4c4.3-3,7.8-6.8,10.2-11.1c1.2-2.2,2.1-4.5,2.7-6.8
					c0.5-2.4,1-4.9,1-7.5c0.1-5.3-0.5-10.8-2.1-15.6c-1.6-4.9-4.1-9.2-7.7-12.6c-3.5-3.5-8-6.1-12.9-7.8l-4.2-1.5
					c-1.6-0.5-3.1-1.2-4.6-1.9c-1.5-0.6-2.9-1.5-4.4-2.2c-1.4-0.8-2.8-1.7-4.2-2.5c-11-7.2-19.6-17.6-25-29.4
					c-1.4-2.9-2.5-6-3.5-9.1c-0.5-1.5-0.9-3.1-1.3-4.7c-0.4-1.5-0.7-3-1-4.5c-1.3-5.9-2.5-11.9-3.6-17.8c-2.2-11.9-4-23.9-4.6-36
					c-0.6-12.1-0.3-24.2,2.9-36.2c0.3-1.1,1.5-1.8,2.6-1.5C2013.1,605.2,2013.6,605.8,2013.8,606.5L2013.8,606.5z"/>
			</g>
			<g>
				<path class="st1" d="M2185.8,606.5c0,38.6-4.7,69.8-10,92.5c-5.3,22.7-21.2,40.3-41.6,46.7c-14.2,4.5-28.6,15.5-28.6,41.5
					c0,38.3,49.7,43.6,49.7,43.6h24.2c42.9,0,79.9-33.7,87.7-80.4c5.3-31.6,9.7-69.5,9.5-108.3"/>
			</g>
			<g>
				<g class="st2">
					<path class="st3" d="M2185.2,638.7c-1.5,25.5-5,46.7-8.8,63.3c-5,21.7-20.3,38.5-39.8,44.7c-13.6,4.3-27.4,14.8-27.4,39.7
						c0,14.1,7,23.5,15.7,29.7c-4.2-5.5-7-12.5-7-21.4c0-24.9,13.8-35.4,27.4-39.7c19.5-6.2,34.7-23,39.8-44.7
						c1.2-5.2,2.4-11,3.5-17.1C2191.9,665.3,2189.5,648.7,2185.2,638.7z"/>
				</g>
			</g>
			<g class="st4">
				<path class="st5" d="M2276.7,642.2c0.1,38.7-4.2,76.7-9.5,108.3c-7.8,46.6-44.7,80.4-87.7,80.4h-24.2c0,0-49.7-5.3-49.7-43.6
					c0-7.7,1.3-14.1,3.4-19.4c11.2,23.9,46.2,27.6,46.2,27.6h24.2c42.9,0,79.9-33.7,87.7-80.4c3.7-22,6.9-47,8.5-73.3L2276.7,642.2z
					"/>
			</g>
			<g>
				<path class="st5" d="M2187.9,606.5c3.2,12,3.5,24.1,2.9,36.2c-0.6,12.1-2.3,24.1-4.6,36c-1.1,5.9-2.3,11.9-3.6,17.8
					c-0.3,1.5-0.6,2.9-1,4.5c-0.4,1.6-0.8,3.1-1.3,4.7c-1,3.1-2.1,6.1-3.5,9.1c-5.4,11.8-14,22.2-25,29.4c-1.4,0.8-2.8,1.7-4.2,2.5
					c-1.5,0.7-2.9,1.6-4.4,2.2c-1.5,0.7-3,1.3-4.6,1.9l-4.2,1.5c-4.9,1.8-9.4,4.4-12.9,7.8c-3.5,3.5-6.1,7.8-7.7,12.6
					c-1.5,4.8-2.1,10.3-2.1,15.6c0,2.6,0.5,5,1,7.5c0.7,2.4,1.6,4.7,2.7,6.8c2.4,4.3,6,8,10.2,11.1c4.2,3.1,9.2,5.5,14.3,7.4
					c2.6,0.9,5.2,1.7,7.9,2.4c1.3,0.3,2.7,0.6,4.1,0.9c1.3,0.3,2.8,0.5,3.9,0.6l-0.6,0h16.4l8.2,0c2.5-0.2,5.1-0.2,7.6-0.4
					c10.1-1.1,19.9-4.2,28.8-9.1c17.9-9.8,31.8-26.4,39.3-45.5l1.4-3.6c0.5-1.2,0.8-2.5,1.2-3.7c0.7-2.5,1.6-4.9,2-7.5
					c1.1-4.9,2-10.4,2.8-15.7c1.7-10.7,3.1-21.5,4.2-32.2c0.6-5.4,1.1-10.8,1.5-16.2c0.4-5.4,0.5-10.8,0.7-16.2
					c0.2-5.4,0.7-10.8,1.4-16.2c0.8-5.4,1.8-10.8,4-16.2l0,0c0.4-1.1,1.7-1.7,2.8-1.2c0.6,0.2,1,0.7,1.2,1.2
					c2.2,5.5,3.1,11,3.6,16.6c0.4,5.5,0.4,11.1,0,16.6c-0.4,5.5-1.1,11-1.6,16.5c-0.5,5.5-1,11-1.6,16.5c-1.2,11-2.6,21.9-4.3,32.8
					c-0.8,5.5-1.7,10.8-2.9,16.5c-0.5,2.8-1.4,5.6-2.2,8.4c-0.4,1.4-0.8,2.8-1.3,4.1l-1.6,4c-8.4,21.5-24.1,40.4-44.7,51.7
					c-10.2,5.6-21.6,9.3-33.3,10.5c-2.9,0.3-5.9,0.3-8.8,0.5l-8.2,0h-16.4h-0.4l-0.3,0c-1.9-0.2-3.3-0.5-4.9-0.8
					c-1.6-0.3-3.1-0.6-4.7-1c-3.1-0.8-6.1-1.7-9.1-2.8c-6-2.2-11.9-5-17.3-8.9c-2.7-2-5.3-4.1-7.6-6.7c-2.3-2.5-4.4-5.3-6.1-8.4
					c-1.7-3.1-3-6.3-3.9-9.7c-0.8-3.4-1.4-6.8-1.4-10.2c-0.1-6.6,0.6-13.1,2.6-19.6c2.1-6.5,5.7-12.7,10.7-17.6
					c5-4.9,11.1-8.4,17.3-10.6l4.2-1.5c1.3-0.4,2.5-1,3.7-1.5c1.2-0.5,2.4-1.2,3.6-1.8c1.2-0.6,2.3-1.4,3.4-2
					c9-5.9,16.1-14.5,20.6-24.3c1.1-2.5,2.1-5,2.9-7.6c0.4-1.3,0.7-2.6,1.1-3.9c0.3-1.4,0.6-2.8,1-4.2c1.3-5.7,2.3-11.5,3.2-17.3
					c1.7-11.6,2.8-23.2,4.1-34.9c1.3-11.7,2.4-23.3,5.7-35.2l0,0c0.3-1.1,1.5-1.8,2.6-1.5C2187.1,605.2,2187.7,605.8,2187.9,606.5z"
					/>
			</g>
			<g>
				<g>
					<path class="st3" d="M1807.5,761.4c-10.3,2.9-18.9,15-22.9-0.4c-3-11.8,2.9-23.9,14.5-27.5c11.6-3.6,24,2.9,27.5,14.5
						C1830.9,762.5,1819.1,758.1,1807.5,761.4z"/>
				</g>
				<g>
					<circle class="st3" cx="1816.2" cy="718.4" r="8.2"/>
				</g>
				<g>
					<circle class="st3" cx="1793.1" cy="714.4" r="8.2"/>
				</g>
				<g>
					<circle class="st3" cx="1777.3" cy="729.4" r="7.6"/>
				</g>
			</g>
			<g>
				<path class="st3" d="M1916,338c5.8-2.3,12-3.6,18.4-3.9c6.4-0.3,13,0.6,19.3,2.9c6.3,2.3,12,6.1,16.8,10.8
					c2.4,2.4,4.5,4.9,6.4,7.7c0.9,1.4,1.8,2.8,2.6,4.3c0.4,0.7,0.8,1.5,1.1,2.3c0.4,0.8,0.7,1.5,1.1,2.6c1,2.8-0.4,5.8-3.1,6.8
					c-1,0.4-2,0.4-2.9,0.2l-0.1,0c-2.1-0.4-4.6-0.8-6.9-1.1c-2.4-0.3-4.8-0.5-7.2-0.6c-4.8-0.2-9.6-0.3-14.3,0.3
					c-2.4,0.3-4.7,0.5-7,1c-2.3,0.5-4.6,1.1-6.8,1.9c-2.2,0.8-4.3,1.8-6.4,2.9c-2,1.2-4,2.5-5.8,4.1l-0.1,0
					c-0.8,0.6-1.9,0.5-2.6-0.2c-0.5-0.6-0.5-1.6-0.1-2.2c1.6-2.2,3.4-4.2,5.4-6c2.1-1.8,4.3-3.3,6.7-4.6c4.8-2.6,10-4.3,15.2-5.4
					c5.3-1,10.6-1.6,15.9-1.6c2.7,0,5.3,0.1,7.9,0.3c2.7,0.2,5.2,0.5,8.1,1l-6.1,7c-0.1-0.3-0.4-1-0.7-1.6c-0.3-0.6-0.6-1.2-0.9-1.7
					c-0.6-1.2-1.3-2.3-2.1-3.4c-1.5-2.2-3.2-4.3-5.1-6.2c-3.7-3.8-8-7-12.9-9.2c-4.8-2.3-10.2-3.7-15.8-4.4
					c-5.6-0.7-11.4-0.6-17.3-0.2l0,0c-1,0.1-1.9-0.7-1.9-1.7C1914.8,339.1,1915.3,338.3,1916,338z"/>
			</g>
			<g>
				<g>
					<path class="st3" d="M2389,761.4c10.3,2.9,18.9,15,22.9-0.4c3-11.8-2.9-23.9-14.5-27.5c-11.6-3.6-24,2.9-27.5,14.5
						C2365.5,762.5,2377.3,758.1,2389,761.4z"/>
				</g>
				<g>
					<circle class="st3" cx="2380.3" cy="718.4" r="8.2"/>
				</g>
				<g>
					<circle class="st3" cx="2403.3" cy="714.4" r="8.2"/>
				</g>
				<g>
					<circle class="st3" cx="2419.1" cy="729.4" r="7.6"/>
				</g>
			</g>
		</g>
	</g>
	<text transform="matrix(1 0 0 1 48.0679 221.1802)" class="st15 st16">CHINESE</text>
	<text transform="matrix(1 0 0 1 1089.3428 813.2129)" class="st17 st18">大 熊 猫</text>
</g>
</svg>
