<svg xmlns="http://www.w3.org/2000/svg" viewBox="0 0 1288.92 1809.13"><defs><style>.cls-1{fill:#282828;}.cls-2{opacity:0.55;}.cls-3{fill:#fff;}.cls-4{fill:#161616;}.cls-5{fill:#1a1a5a;}.cls-6{opacity:0.3;}.cls-7{fill:#262f6a;}.cls-8{fill:#824a1d;}.cls-9{fill:#83b11b;}</style></defs><g id="Layer_2" data-name="Layer 2"><g id="Layer_1-2" data-name="Layer 1"><path class="cls-1" d="M1012.15,1383.22h0c-2-13.27-4.46-26.54-7.21-39.71a814.58,814.58,0,0,0-56.67-170.73,907.36,907.36,0,0,0-68.85-124,81.35,81.35,0,0,0-1.61-16.44,47.58,47.58,0,0,0-1-4.77l52.67-.57c2.91,2,5.81,4,8.71,6,45.94,31.63,86.84,63.51,122.88,94,46.61,39.45,85.13,76.57,116.08,108C1358.84,1419.31,1271.74,1526.94,1012.15,1383.22Z"></path><path class="cls-1" d="M132.55,1504.18c0,14.93,4.3,29.86,13.58,41.63,36.91,47.13,113.07,13,151.75-66.78a691.16,691.16,0,0,1,8.19-95.76v0c2.7-17.68,6.07-35.31,10.11-52.78.73-3.11,1.45-6.22,2.18-9.28s1.5-6.22,2.33-9.28c.88-3.52,1.77-7,2.7-10.47.72-2.7,1.45-5.39,2.23-8,.88-3.06,1.76-6.17,2.64-9.23,1.82-6.11,3.68-12.23,5.65-18.3s3.94-12.18,6.07-18.25c1-3,2.12-6.06,3.21-9.07,2.13-6.07,4.41-12.08,6.74-18,3.58-9.39,7.42-18.77,11.36-28,1-2.33,2-4.67,3.06-7,3.16-7.36,6.48-14.72,9.95-22,2-4.25,4-8.45,6.07-12.65,2.28-4.72,4.66-9.44,7.05-14.1,1.45-2.85,2.95-5.71,4.4-8.5,1.92-3.69,3.89-7.32,5.86-10.94,1.14-2.13,2.28-4.26,3.48-6.33,4.71-8.55,9.54-17,14.51-25.3,1.61-2.64,3.22-5.34,4.83-8,2-3.27,3.94-6.48,6-9.7,1.87-3,3.73-6,5.65-8.92,2.18-3.47,4.41-6.89,6.69-10.31a86.32,86.32,0,0,1,1.5-16.08l-73.62.78c-28.72,29.35-55.68,59.21-80.31,89.64a869.67,869.67,0,0,0-71.7,101.83C163.08,1311.47,132.29,1403.65,132.55,1504.18Z"></path><g class="cls-2"><path class="cls-3" d="M440.34,1032.69a80.06,80.06,0,0,0-1.45,14.21l-49-3.77c-28.73,29.35-121.58,160.86-142.32,195.65-51.64,86.53-82.43,178.71-82.17,279.24,0,14.93,4.3,29.86,13.58,41.63a64.27,64.27,0,0,0,6.89,7.47c-15.24-.94-29.08-7.78-39.71-21.31-9.28-11.77-13.53-26.7-13.58-41.63-.26-100.53,30.53-192.71,82.17-279.24a869.67,869.67,0,0,1,71.7-101.83c24.63-30.43,51.59-60.29,80.31-89.64Z"></path></g><path class="cls-4" d="M1012.15,1383.22h0c-2-13.27-4.46-26.54-7.21-39.71L1031,1303c98,69.16,132.57,20.16,146.1-68.08C1358.84,1419.31,1271.74,1526.94,1012.15,1383.22Z"></path><path class="cls-1" d="M1206.35,1465.25c-50.15,0-119.75-23.09-201.3-68.19a15.54,15.54,0,0,1-8.31-11.48c-17.16-111.66-62.22-225.16-130.33-328.24a15.56,15.56,0,0,1-2.58-8.57,68.67,68.67,0,0,0-2.13-17.27A15.54,15.54,0,0,1,876.58,1012l52.67-.57a16.21,16.21,0,0,1,8.9,2.68c87.67,59.5,169.45,128.16,250,209.91,88.4,89.66,121.31,169.38,88,213.24C1262,1456,1238.05,1465.25,1206.35,1465.25Zm-180.08-92c126.86,68.93,204.38,72.62,225.15,45.25,18.35-24.19-1-86.94-85.41-172.61-77.89-79-156.86-145.56-241.31-203.26l-29.92.32c0,.34,0,.68.05,1C962.48,1147.4,1007.82,1261,1026.27,1373.22Z"></path><path class="cls-1" d="M189.7,1582.83c-22.23,0-41.82-9.55-55.82-27.43-10.81-13.72-16.82-31.9-16.89-51.17h0c-.42-161.68,75.4-314.72,238.62-481.62a15.56,15.56,0,0,1,11-4.68l73.62-.78a15.55,15.55,0,0,1,15.44,18.46,71.16,71.16,0,0,0-1.23,13.17,15.55,15.55,0,0,1-2.57,8.57c-68,102.92-113.06,216.27-130.32,327.84,0,.16,0,.32-.07.48a676.47,676.47,0,0,0-8,93.6,15.56,15.56,0,0,1-1.55,6.56c-26.21,54.07-70.8,92-113.6,96.54A80.56,80.56,0,0,1,189.7,1582.83Zm-41.6-78.69c0,12.34,3.68,23.72,10.24,32,9.21,11.75,21.55,16.87,36.64,15.25,31.13-3.33,66-33.78,87.41-76.17a708.37,708.37,0,0,1,8.25-94l.06-.46C308.13,1267.74,353,1153,420.47,1048.46l-47.11.5c-154,158.88-225.66,303.65-225.26,455.18Z"></path><path class="cls-1" d="M979.54,1793.58h-235c0-113.59-40-172.28-81.29-176.22a46.82,46.82,0,0,0-11.77.36h-.05c-40.29,6.38-78.39,65-78.39,175.86H353.55c-71.44-131.79-89.53-273.38-68.38-410.31v0h.05c2.54-16.59,5.71-33.13,9.39-49.56,22.45-100.48,65.53-197.43,123.34-284.89a83.8,83.8,0,0,1,2.64-21.21l493.05,5.13a85.48,85.48,0,0,1,1.51,16.08c46.45,70.3,83.41,146.72,107.78,226.2l1.25,4.15,1.66,5.49q6.67,22.79,12,45.83c4,17.47,7.42,35.1,10.11,52.78v0a688.1,688.1,0,0,1,8.19,95.76C1057.82,1585.32,1034.44,1692.32,979.54,1793.58Z"></path><g class="cls-2"><path class="cls-3" d="M384.66,1787.1H573.07c-.05,2.12-.05,4.3-.05,6.48H353.55c-71.44-131.79-89.53-273.38-68.38-410.31v0h.05c2.54-16.59,5.71-33.13,9.39-49.56,22.45-100.48,65.53-197.43,123.34-284.89a83.8,83.8,0,0,1,2.64-21.21l29.71.31a82.37,82.37,0,0,0-1.25,14.42c-57.8,87.46-100.89,184.41-123.34,284.89-3.68,16.43-6.84,33-9.38,49.56h-.05v0C295.12,1513.72,313.22,1655.31,384.66,1787.1Z"></path></g><g class="cls-2"><path class="cls-3" d="M983,1787.1c-1.09,2.18-2.23,4.3-3.42,6.48h-235c0-112.14-38.93-170.78-79.68-176a52.23,52.23,0,0,1,17.67-6.32h.06a47.3,47.3,0,0,1,11.77-.37c41.32,4,81.29,62.63,81.29,176.23Z"></path></g><path class="cls-3" d="M1037.81,1330.44c-.31,2.13-.52,3.22-.52,3.22,0,311.48-742.68,311.48-742.68,0,20.79-93.17,59.36-183.33,111-265.66,4-6.48,8.19-12.86,12.39-19.23a84.1,84.1,0,0,1,1.24-14.57c.36-2.28.83-4.46,1.4-6.64h1.3l491.75,5.13a85.48,85.48,0,0,1,1.51,16.08c2.28,3.42,4.51,6.84,6.68,10.31,1.92,3,3.79,5.91,5.65,8.92,2.08,3.22,4,6.43,6,9.7,1.61,2.64,3.21,5.34,4.82,8,5,8.35,9.8,16.75,14.52,25.3,1.19,2.07,2.33,4.2,3.47,6.33,2,3.62,3.94,7.25,5.86,10.94,1.45,2.79,3,5.65,4.41,8.5,2.38,4.66,4.77,9.38,7,14.1,2.07,4.2,4.09,8.4,6.06,12.65,3.48,7.26,6.79,14.62,10,22,1,2.34,2,4.62,3.06,7,3.94,9.28,7.77,18.66,11.35,28,2.33,6,4.56,12,6.74,18,1.09,3,2.18,6.07,3.21,9.07q3.12,9.11,6.07,18.25c2,6.07,3.84,12.19,5.65,18.3.88,3.06,1.76,6.17,2.65,9.23.72,2.7,1.5,5.34,2.23,8,.93,3.47,1.81,6.95,2.69,10.47.83,3.06,1.56,6.17,2.33,9.28S1037.09,1327.33,1037.81,1330.44Z"></path><path class="cls-5" d="M666,1569.59c-97.67,0-188.74-20.84-256.43-58.7-76.69-42.89-117.23-104.17-117.23-177.23l.06-.51c20.42-91.54,57.85-181.17,111.24-266.38,3.93-6.3,8-12.5,12-18.7a86.83,86.83,0,0,1,1.28-14.27,69.16,69.16,0,0,1,1.44-6.82l.45-1.74h3.09l493.67,5.16.36,1.86a88.68,88.68,0,0,1,1.54,15.8c2.16,3.25,4.27,6.5,6.34,9.79q2.85,4.41,5.65,8.93c2.07,3.2,4,6.43,6,9.72l4.82,8c5,8.35,9.88,16.88,14.57,25.38,1.18,2.06,2.33,4.2,3.48,6.35l.24.43c1.89,3.49,3.79,7,5.63,10.54l1.38,2.63c1,2,2,3.92,3,5.89,2.39,4.67,4.79,9.41,7.07,14.14q3.12,6.3,6.08,12.69c3.32,6.92,6.68,14.35,10,22l3,6.92c4.41,10.38,8.14,19.58,11.41,28.16q3.49,9,6.75,18.08c1.09,3,2.19,6.09,3.23,9.11,2.08,6.08,4.1,12.16,6.08,18.29s3.84,12.22,5.66,18.36l3.75,13.21q.58,2,1.14,4.11c.94,3.48,1.82,7,2.71,10.51.57,2.11,1.11,4.29,1.64,6.48l2.92,13c-.33,2.19-.54,3.31-.54,3.31C1039.61,1495.76,845.92,1569.59,666,1569.59Zm-369-235.68c.21,158.74,191.38,231,369,231s369-72.38,369-231.3c0-.42.21-1.37.47-3.12l-2.76-11.64c-.53-2.15-1-4.29-1.62-6.41-.9-3.56-1.77-7-2.7-10.48-.37-1.36-.75-2.71-1.13-4.06s-.74-2.64-1.1-4l-2.63-9.2c-1.81-6.07-3.67-12.17-5.63-18.22s-4-12.16-6.06-18.22c-1-3-2.12-6-3.2-9-2.17-6-4.39-12-6.72-18-3.26-8.55-7-17.69-11.33-28l-3-6.91c-3.29-7.66-6.63-15-9.93-21.92-2-4.26-4-8.44-6.05-12.62-2.28-4.73-4.66-9.43-7-14.08-1-2-2-3.91-3-5.84l-1.38-2.65c-1.83-3.52-3.71-7-5.6-10.46l-.24-.44c-1.13-2.11-2.26-4.22-3.44-6.28-4.68-8.48-9.56-17-14.5-25.26l-4.81-8c-2-3.25-3.92-6.45-6-9.64-1.88-3-3.74-6-5.65-8.92-2.19-3.48-4.41-6.89-6.67-10.29l-.39-.58v-.7A84.47,84.47,0,0,0,911.7,1035l-489.3-5.11c-.37,1.57-.67,3.11-.92,4.68a82.25,82.25,0,0,0-1.22,14.21v.69l-.38.58c-4.19,6.36-8.33,12.72-12.36,19.19C354.46,1153.92,317.25,1243,296.93,1333.91Z"></path><path class="cls-1" d="M960.22,1809.13H775.31A47.45,47.45,0,0,1,728,1765c-5.83-87-38.45-129.53-66.29-132.19a31.4,31.4,0,0,0-7.83.24l-.45.06c-27.82,4.74-58.29,47.24-64,131.84a47.47,47.47,0,0,1-47.27,44.15H372.88a47.22,47.22,0,0,1-42.4-26.13c-62.31-123.82-82.74-259-60.72-401.85.07-.49.16-1,.27-1.45,17.75-114.34,63.52-230.31,132.47-335.75a98.16,98.16,0,0,1,3-20.32A15.65,15.65,0,0,1,420.75,1012l493.05,5.13a15.55,15.55,0,0,1,15.12,12.65,101.38,101.38,0,0,1,1.67,14.15c69.17,105.77,115,222.17,132.7,336.91,0,.16,0,.32.07.48a709.12,709.12,0,0,1,8.31,97.47c1.72,107.38-21.5,209.73-69.05,304.18A47.22,47.22,0,0,1,960.22,1809.13ZM658.73,1601.6q3,0,5.92.27c38.86,3.7,86.86,48.11,94.43,161.09A16.25,16.25,0,0,0,775.31,1778H960.22a16.3,16.3,0,0,0,14.62-9c45.26-89.93,67.37-187.4,65.72-289.72a676.49,676.49,0,0,0-8-93.62c0-.17,0-.34-.07-.51-17.26-111.55-62.31-224.9-130.31-327.81a15.56,15.56,0,0,1-2.58-8.57v-.67l-465.89-4.85c-.13,1.82-.2,3.66-.2,5.52a15.56,15.56,0,0,1-2.58,8.57c-68.1,103.07-113.17,216.58-130.32,328.24-.07.39-.14.78-.23,1.15-20.8,136-1.32,264.61,57.9,382.29a16.27,16.27,0,0,0,14.61,9H542.23a16.28,16.28,0,0,0,16.23-15.12c7.32-109,51.55-154.38,90.52-160.54l.53-.08A61.31,61.31,0,0,1,658.73,1601.6Z"></path><path class="cls-1" d="M666,1582.83c-99.9,0-193.26-21.45-262.89-60.39-81.13-45.37-124-110.66-124-188.8a15.56,15.56,0,1,1,31.11,0c0,83.64,58.77,134.07,108.08,161.65,65.07,36.39,153,56.43,247.71,56.43s182.64-20,247.71-56.43c49.3-27.58,108.08-78,108.08-161.65a15.56,15.56,0,1,1,31.11,0C1052.85,1504.85,852.29,1582.83,666,1582.83Z"></path><g class="cls-6"><path class="cls-5" d="M1061,1127a432.27,432.27,0,0,1-81.3,36.55c-10.37,3.47-20.89,6.58-31.47,9.28-210.9,55-457.12-27.32-542.66-104.78l13.63-33.8,2.7-6.64,455.87,4.77,35.88.36,24.47.26C984.05,1064.58,1025,1096.46,1061,1127Z"></path></g><path class="cls-3" d="M1273.35,623.63c1.19,265.76-244.46,470-588.87,474-168.54-2-313.4-51.84-417.3-133.45-45.42-35.61-83-77.35-111.26-123.75A408.72,408.72,0,0,1,95.57,623.63c.36-80.15,33.49-156.42,88.76-214.43,33.8-35.46,66.42-78.6,100.43-122.87,2.85-3.74,5.7-7.47,8.6-11.2a522.87,522.87,0,0,1,80.73-83.53,481.59,481.59,0,0,1,113.49-69.94,490.89,490.89,0,0,1,394.59.37A480.32,480.32,0,0,1,994.94,191.6a524.76,524.76,0,0,1,80.62,83.53c3,3.83,5.91,7.72,8.86,11.56,33.91,44.12,66.47,87.1,100.17,122.51C1239.85,467.21,1273,543.48,1273.35,623.63Z"></path><path class="cls-5" d="M684.51,1099.92C522,1098,373.3,1050.45,265.75,966c-45.82-35.93-83.43-77.78-111.81-124.37-40.63-66.57-61-139.92-60.69-218,.36-79.16,32.11-155.88,89.4-216,31.39-32.92,61.43-72.08,93.24-113.53l7-9.16c3-4,5.8-7.59,8.61-11.21a526.2,526.2,0,0,1,81.08-83.88,484.21,484.21,0,0,1,114-70.28,492.81,492.81,0,0,1,396.47.37,482.64,482.64,0,0,1,113.3,69.91,527.18,527.18,0,0,1,81,83.89l15.31,20c31.93,41.59,62.09,80.87,93.57,113.94,57.29,60.14,89,136.86,89.39,216h0c.59,130-58.26,249.65-165.68,337C1001.78,1048.51,850.68,1098,684.51,1099.92Zm0-1017.19a487.15,487.15,0,0,0-196,41.06,479.33,479.33,0,0,0-112.95,69.6,520.83,520.83,0,0,0-80.36,83.15c-2.82,3.62-5.58,7.23-8.34,10.84l-7.3,9.51c-31.88,41.56-62,80.81-93.55,113.91-56.47,59.28-87.77,134.87-88.12,212.84-.36,77.21,19.83,149.73,60,215.55,28.08,46.12,65.33,87.55,110.71,123.14,106.76,83.85,254.46,131.07,415.9,133,341-4,587.73-202.31,586.52-471.65h0c-.35-78-31.65-153.56-88.12-212.84-31.65-33.26-61.88-72.63-93.89-114.32l-15.3-19.94a522.67,522.67,0,0,0-80.27-83.15,478.07,478.07,0,0,0-112.21-69.24A487,487,0,0,0,684.48,82.73Z"></path><g class="cls-6"><path class="cls-7" d="M566.43,678.74a63.57,63.57,0,0,0,14.13,4.35Z"></path><path class="cls-5" d="M580.14,685.37a65.94,65.94,0,0,1-14.64-4.51l1.61-4.34,14.14,4.36Z"></path></g><g class="cls-6"><path class="cls-5" d="M1184.59,409.21c-6-6.3-11.86-12.74-17.79-19.46a300.35,300.35,0,0,1,22,111.05c1.2,265.77-244.5,470-588.83,474-91-1-175.11-16.08-249.59-42.55,6.25-5.51,11.95-29.47,13.3-58.49,1.06-21.51-.56-40.42-3.8-51.26,61.13-45.24,123.8-81,187.34-106.65,32,36.8,89.09,43,155.55-12.52,36.06,51,116.39,66.24,153.14-12.47A145,145,0,0,0,867.47,651c4.33-29,3.95-53.11-18.07-51.38-10.44.83-19.55,7.23-25.2,16.05-37.65,58.85-80.79,57.84-131,12.8-40.74,40-78.7,61-112.68,54.65v0a63.57,63.57,0,0,1-14.13-4.35s-.09,0-.14,0c-16.64-7.32-32.21-22.06-46.54-45.33,0,21.74,4.27,41.72,12.1,58.54A840.84,840.84,0,0,0,406.24,757c-4.86-8.21-14.69-19.15-27.71-30.92L351,745.57c1.48.93,2.87,1.9,4.26,2.88a26.11,26.11,0,0,0-2.82-.1c-1.91,0-3.71,0-5.52.1l-38.93,27.48c10.7,3.62,26.46,6,44.12,6.12,5.89.09,11.54-.14,17-.56a1089.68,1089.68,0,0,0-106.83,84.59,3.28,3.28,0,0,0-.7.65c-13.53-10.06-35.83-18.91-61.87-23.54-6-1.07-11.92-1.86-17.62-2.32a165.38,165.38,0,0,0-26.05-.46c.84,1.39,1.67,2.73,2.55,4.12,1.63,2.6,3.29,5.19,4.92,7.74s3.38,5.15,5.14,7.6,3.48,5.1,5.29,7.6c3.52,5,7.27,9.88,11.12,14.79,1.9,2.41,3.8,4.87,5.79,7.23s3.94,4.82,6,7.23,4,4.68,6.12,7c1.53,1.76,3.11,3.52,4.68,5.23,2.83,3.06,5.66,6.12,8.62,9.13,1.76,1.86,3.57,3.71,5.38,5.52q6.39,6.47,13.07,12.65c2.5,2.37,5,4.64,7.51,6.91,2.78,2.46,5.56,4.87,8.43,7.32,2.69,2.32,5.43,4.59,8.21,6.86s5.56,4.54,8.43,6.77C371,1045.78,516,1095.65,684.48,1097.6c344.43-4,590.08-208.2,588.87-474C1273,543.49,1239.84,467.2,1184.59,409.21ZM277.21,901.08a57.2,57.2,0,0,0-1.44-9.6c1.71-1.57,3.43-3.1,5.1-4.63q30-26.83,60.48-50.43a242.39,242.39,0,0,0-4.4,36.06c-1.25,26.14,1.48,48.57,6.17,57.15A615.48,615.48,0,0,1,277.21,901.08Z"></path></g><g class="cls-6"><path class="cls-7" d="M132.54,796.33A497,497,0,0,0,182,840.87a162.89,162.89,0,0,0-26-.47A416.26,416.26,0,0,1,132.54,796.33Z"></path><path class="cls-5" d="M189.63,843.92l-7.85-.75a161.69,161.69,0,0,0-25.66-.46l-1.39.09-.74-1.19a420.85,420.85,0,0,1-23.56-44.32l-5.59-12.22,9.36,9.65A496.2,496.2,0,0,0,183.43,839Zm-49.17-36.37c5.15,10.36,10.76,20.55,16.77,30.45a161.57,161.57,0,0,1,17.47,0C162.8,828.35,151.34,818.16,140.46,807.55Z"></path></g><path class="cls-1" d="M684.67,1113.16c-169.51-2-323.53-52.49-434-142.29S79.42,757.65,80,623.57c.38-82.56,33.42-162.5,93.06-225.1C204,366.05,233.82,327.16,265.42,286l7-9.14c3-4,5.82-7.62,8.66-11.27a539,539,0,0,1,83.1-86,497.53,497.53,0,0,1,117.14-72.19,506,506,0,0,1,407.13.38,496.39,496.39,0,0,1,116.4,71.82,540.8,540.8,0,0,1,83,86l15.39,20.06c31.68,41.27,61.62,80.25,92.59,112.79,59.63,62.59,92.67,142.53,93,225.09h0c.61,134.07-60,257.4-170.57,347.28S853.82,1111.2,684.67,1113.16ZM684.49,96a474,474,0,0,0-190.65,39.94A466.28,466.28,0,0,0,384,203.59a507.37,507.37,0,0,0-78.33,81c-2.81,3.61-5.55,7.19-8.28,10.77l-.3.39-7,9.12c-32.12,41.86-62.46,81.39-94.5,115-54.13,56.82-84.13,129.19-84.47,203.78-1.17,261.72,240,454.48,573.54,458.34,333.12-3.86,574.3-196.62,573.13-458.34h0c-.34-74.59-30.34-147-84.47-203.78-32.11-33.74-62.53-73.36-94.73-115.3l-15.36-20a510,510,0,0,0-78.23-81,464.84,464.84,0,0,0-109.1-67.31A473.68,473.68,0,0,0,684.49,96Z"></path><path class="cls-1" d="M1084.43,286.69c-3-3.84-5.91-7.72-8.87-11.56a523.82,523.82,0,0,0-80.62-83.52A480.3,480.3,0,0,0,882.18,122l.05,0C932.57-136.89,1362.89,140.49,1084.43,286.69Z"></path><path class="cls-4" d="M1124.7,66.65c18.2,50.95.41,109.46-86.62,155.15-3-3.83-5.91-7.72-8.87-11.56C1005.16,179,967.05,175.37,937.6,151c-17.87-14.78-36.26-16-55.62-27.81-4.34,10.42,2.79-14.23.25-1.16l-.05,0a480.3,480.3,0,0,1,112.76,69.58,524.26,524.26,0,0,1,80.62,83.52c3,3.84,5.91,7.72,8.87,11.56C1212.52,219.43,1190.59,124.45,1124.7,66.65Z"></path><g class="cls-2"><path class="cls-3" d="M1176.92,156.77c-42.36-104-233.05-173-280.74-28.31-4.62-2.23-9.28-4.36-14-6.43l.05,0C919.4-69.07,1163.49,32,1176.92,156.77Z"></path></g><path class="cls-1" d="M1084.44,302.25a15.55,15.55,0,0,1-12.34-6.07l-8.86-11.56a510,510,0,0,0-78.23-81,464.84,464.84,0,0,0-109.1-67.31A15.58,15.58,0,0,1,867.17,118C881.65,45.33,927.58,2.46,993.31.28,1077.64-2.45,1169,61.37,1189,137c9.74,36.85,10,107.1-97.35,163.48A15.46,15.46,0,0,1,1084.44,302.25ZM900.17,113.14a495.94,495.94,0,0,1,104.69,66.48,540.8,540.8,0,0,1,83,86l.75,1c58.17-33.82,82.45-75.71,70.31-121.69-16-60.64-96.09-115.84-164.6-113.55C960.2,32.5,917.12,47.94,900.17,113.14Z"></path><path class="cls-1" d="M284.57,286.5c2.95-3.83,5.91-7.72,8.87-11.56a523.82,523.82,0,0,1,80.62-83.52,480.3,480.3,0,0,1,112.76-69.58l-.05,0C436.43-137.08,6.11,140.3,284.57,286.5Z"></path><path class="cls-4" d="M244.29,66.46c-18.2,51-.4,109.46,86.63,155.15,3-3.83,5.91-7.72,8.86-11.56,24.06-31.21,62.17-34.87,91.62-59.29C449.26,136,467.66,134.77,487,123c4.34,10.43-2.79-14.23-.25-1.16l.05,0a480.1,480.1,0,0,0-112.76,69.58,524.32,524.32,0,0,0-80.63,83.52c-2.95,3.84-5.9,7.73-8.86,11.56C156.47,219.25,178.4,124.26,244.29,66.46Z"></path><g class="cls-2"><path class="cls-3" d="M192.08,156.58c42.36-104,233-173,280.74-28.31,4.62-2.23,9.28-4.36,14-6.43l-.05,0C449.59-69.26,205.51,31.79,192.08,156.58Z"></path></g><path class="cls-1" d="M284.56,302.06a15.43,15.43,0,0,1-7.22-1.79C170,243.89,170.25,173.64,180,136.79,200,61.17,291.48-2.71,375.69.09c65.86,2.18,111.84,45.22,126.22,118.12a15.32,15.32,0,0,1,.17,6.47,15.59,15.59,0,0,1-9,11.4A465.08,465.08,0,0,0,384,203.4a509.49,509.49,0,0,0-78.22,81L296.89,296A15.55,15.55,0,0,1,284.56,302.06Zm86-270.95c-67.64,0-144.78,54.19-160.48,113.62-12.15,46,12.14,87.87,70.31,121.69l.74-1a540.77,540.77,0,0,1,83-86A495.83,495.83,0,0,1,468.83,113c-17-65.2-60-80.64-94.17-81.77C373.3,31.13,371.92,31.11,370.54,31.11Z"></path><path class="cls-1" d="M777.92,538.28c0,29.89-37.92,54.13-84.7,54.13s-84.69-24.24-84.69-54.13,37.92-29.69,84.69-29.69S777.92,508.38,777.92,538.28Z"></path><path class="cls-1" d="M241.19,550.5C261,691.81,415.81,691.81,460.05,598.23c18.92-59.7,47.17-102.81,85-129,5.61-3.88,10.91-8.35,14.61-14.08,47.18-73.26-60.57-211.5-247.44-65.35C261,432.92,241.19,494.41,241.19,550.5Z"></path><path class="cls-1" d="M1127.74,550.5C1108,691.81,953.12,691.81,908.88,598.23c-18.92-59.7-47.17-102.81-85-129-5.61-3.88-10.91-8.35-14.61-14.08-47.18-73.26,60.57-211.5,247.44-65.35C1108,432.92,1127.74,494.41,1127.74,550.5Z"></path><path class="cls-3" d="M900.73,489.17c.55-15.16,7.44-30.41,19.46-41.72a68.72,68.72,0,0,1,92-.81c12.33,11.05,19.7,27.24,18.17,42.53-9.7-11.75-19.87-19.6-30.74-24.64a78.08,78.08,0,0,0-33.38-7.36A75.69,75.69,0,0,0,933,465.09C922,470.37,911.83,478.72,900.73,489.17Z"></path><path class="cls-3" d="M341.11,489.17c.56-15.16,7.44-30.41,19.47-41.72a68.72,68.72,0,0,1,92-.81c12.33,11.05,19.69,27.24,18.17,42.53-9.71-11.75-19.88-19.6-30.74-24.64a78.16,78.16,0,0,0-33.39-7.36,75.73,75.73,0,0,0-33.27,7.92C362.42,470.37,352.22,478.72,341.11,489.17Z"></path><path class="cls-3" d="M729.08,534.2c0,7.87-16.05,14.26-35.86,14.26s-35.86-6.39-35.86-14.26,16.06-6.05,35.86-6.05S729.08,526.32,729.08,534.2Z"></path><path class="cls-5" d="M693.22,550.77c-21.76,0-38.17-7.12-38.17-16.57a6.55,6.55,0,0,1,2-4.85c4-4,13.55-3.83,26.71-3.61,6,.09,12.93.09,19,0,13.15-.22,22.67-.37,26.71,3.61a6.59,6.59,0,0,1,2,4.85C731.4,543.65,715,550.77,693.22,550.77Zm-17.14-20.48c-7.54,0-13.79.39-15.8,2.37a2,2,0,0,0-.6,1.54c0,5.64,13.78,11.94,33.54,11.94s33.55-6.3,33.55-11.94a2,2,0,0,0-.6-1.54c-2.66-2.62-12.72-2.46-23.39-2.29-6.09.1-13,.1-19.11,0C681.07,530.33,678.51,530.29,676.08,530.29Z"></path><path class="cls-4" d="M979.54,1793.58H789.09c-6.13,0-7.42-8.66-1.55-10.43,190.75-57.55,253.1-240.39,238.3-498.54q6.67,22.79,12,45.83c4,17.47,7.42,35.1,10.11,52.78v0a688.1,688.1,0,0,1,8.19,95.76C1057.82,1585.32,1034.44,1692.32,979.54,1793.58Z"></path><path class="cls-8" d="M222.49,860.59A14,14,0,0,1,213,836.34c3.73-3.44,7.42-6.77,11.11-10.11l.38-.34c97-86.87,198.94-149.79,303.08-187A14,14,0,0,1,537,665.15c-100.72,36-199.57,97.11-293.8,181.51l-.33.3c-3.64,3.28-7.27,6.56-10.95,9.95A13.94,13.94,0,0,1,222.49,860.59Z"></path><path class="cls-9" d="M319.75,668.36c25.82,19.74,45.28,40,50.73,52,1.83,1.6,2.86,3.36,2.83,5.18-.07,9.35-26.43,16.63-58.92,16.37s-58.66-8.08-58.59-17.37,26.43-16.63,58.91-16.37l2.87.06c-6-4-12.08-8.37-18.31-13.1-34.09-26.1-57.16-53.26-51.48-60.68S285.67,642.27,319.75,668.36Z"></path><path class="cls-9" d="M162,803c-44.82-7.92-83.65-.21-86.72,17.2-3,16.85,28.63,36.58,71.26,45A494.63,494.63,0,0,0,93.07,902.8c-63.88,51.29-104.3,107-90.3,124.46s77.15-10,141-61.29c2.63-2.11,5.15-4.23,7.69-6.35-6.62,31.94-4.42,56.51,7.31,61,16.52,6.32,45.58-29.48,64.92-80,14.65-38.24,19.49-73.9,13.81-91.72a.14.14,0,0,1,0-.06C240.61,831.47,206.77,810.93,162,803Z"></path><path class="cls-9" d="M309.83,893.2c7.37.35,14.63-26.36,16.2-59.64s-3.12-60.56-10.49-60.91S300.91,799,299.33,832.29,302.46,892.85,309.83,893.2Z"></path><g class="cls-6"><path class="cls-7" d="M156,840.4c.83,1.4,1.66,2.75,2.54,4.15-.88-1.35-1.76-2.75-2.59-4.15Z"></path><path class="cls-5" d="M156.57,845.81c-.9-1.37-1.8-2.8-2.64-4.23l-2.08-3.5h5.39l.73,1.14c.81,1.38,1.63,2.71,2.5,4.09Z"></path></g><path class="cls-1" d="M777.05,705.78c-1,0-2.06,0-3.09,0-35.16-1.06-66.06-20.63-84.5-52.38-33.29,33.18-71.18,49.15-106.19,44.17-35.45-5-64.94-30.66-83-72.17a14,14,0,1,1,25.61-11.17c14.28,32.76,35.5,52,61.35,55.68,30.44,4.33,65.15-14,95.29-50.29a14,14,0,0,1,23.87,4.14c12,32.94,37.6,53.16,68.45,54.09,31.57,1,59.93-18.73,74.12-51.38a14,14,0,0,1,25.63,11.14C856.15,679.88,819,705.78,777.05,705.78Z"></path><path class="cls-1" d="M691.94,646.56a14,14,0,0,1-14-14V582a14,14,0,1,1,27.94,0v50.59A14,14,0,0,1,691.94,646.56Z"></path></g></g></svg>