<svg xmlns="http://www.w3.org/2000/svg" viewBox="0 0 122.33 122.33"><defs><style>.cls-1{isolation:isolate;}.cls-2{fill:#dbba14;}.cls-3{fill:#ffe255;}.cls-4{fill:#c6a000;}.cls-5{fill:#f7d134;}.cls-6{fill:#ad8c04;opacity:0.2;}.cls-11,.cls-6{mix-blend-mode:multiply;}.cls-17,.cls-7{fill:#fff;}.cls-8{fill:#1a1a5a;}.cls-9{opacity:0.3;}.cls-10{fill:#262f6a;}.cls-11{fill:#bcbcbc;}.cls-12{fill:#282828;}.cls-13{fill:#161616;}.cls-14{opacity:0.55;}.cls-15{fill:#824a1d;}.cls-16{fill:#83b11b;}.cls-17{opacity:0.47;}</style></defs><g class="cls-1"><g id="Layer_2" data-name="Layer 2"><g id="OBJECTS"><circle class="cls-2" cx="61.17" cy="61.17" r="61.17"></circle><circle class="cls-3" cx="61.17" cy="61.17" r="59.15"></circle><circle class="cls-4" cx="61.17" cy="61.17" r="57.27"></circle><path class="cls-5" d="M45.18,6.17q1.56-.45,3.15-.81l1.45,7-1.09.9L47.3,13ZM35.75,17.92l1.41-.09L38,16.68,34.86,10.3c-1,.5-1.92,1-2.86,1.58Zm5.62-2.84,1.41.08,1-1L41.43,7.39c-1,.37-2,.78-3,1.22Zm27.2-3.52,1.21-7c-1.07-.16-2.15-.28-3.24-.39L66,11.24l1.2.75Zm6.16,1.32,2.08-6.8c-1-.3-2.1-.57-3.16-.8l-1.41,7,1.09.89ZM53.45,11.6,54.8,12l1.2-.76-.57-7.09q-1.63.17-3.24.42ZM30.53,21.45l1.39-.27.68-1.24L28.69,14c-.9.62-1.77,1.26-2.63,1.93ZM11.65,53.19,12.47,52l-.35-1.38L5.2,49c-.23,1.06-.44,2.13-.6,3.21ZM13,47l1-1-.18-1.4L7.16,42.09c-.36,1-.69,2.06-1,3.11ZM11,59.46l.67-1.25-.52-1.32-7.06-.76C4,57.2,4,58.29,3.94,59.38Zm7-23.94,1.19-.77.18-1.4L13.6,29.26c-.61.9-1.18,1.83-1.73,2.76Zm3.55-5.2,1.28-.61.36-1.38L18,23.57c-.72.81-1.41,1.65-2.07,2.51Zm-6.42,10.8,1.08-.91V38.8L10,35.48c-.49,1-1,2-1.38,3ZM80.67,15l2.92-6.5c-1-.43-2-.82-3-1.19L78.28,14l1,1ZM108.4,44.3l-.17,1.41,1,1,6.86-1.89c-.31-1-.64-2.08-1-3.1ZM25.79,25.6l1.35-.44.52-1.32L23,18.45c-.81.72-1.61,1.46-2.38,2.23ZM96.54,96.73l-1.35.44-.52,1.32,4.62,5.4c.82-.73,1.61-1.47,2.38-2.24Zm9.38-58.22v1.42l1.09.9,6.57-2.73q-.66-1.5-1.41-2.94Zm5.36,20.63,7.1-.12c0-1.1-.11-2.18-.21-3.26l-7.06.82-.51,1.32ZM89.47,19.76,90.16,21l1.39.27L96,15.71c-.86-.66-1.73-1.31-2.63-1.92Zm-5.42-3.22.84,1.14,1.42.09L90,11.7c-.93-.55-1.89-1.07-2.86-1.56ZM98.88,28.1l.36,1.37,1.28.6,5.67-4.27c-.67-.86-1.36-1.69-2.08-2.51Zm-4.45-4.47L95,24.94l1.35.44,5.1-4.95c-.78-.77-1.57-1.5-2.39-2.22Zm8.29,9.45.19,1.41,1.2.76,6.17-3.54c-.56-.93-1.14-1.85-1.75-2.75Zm7.42,17.27-.34,1.38.83,1.14,7-1c-.17-1.08-.38-2.14-.62-3.2ZM86.58,104.41l-1.41.09-.83,1.15L87.47,112c1-.5,1.92-1,2.86-1.58Zm5.22-3.53-1.39.27-.68,1.24,3.91,5.94c.9-.62,1.77-1.26,2.63-1.93ZM100.72,92l-1.28.61L99.09,94l5.25,4.77q1.08-1.23,2.07-2.52ZM81,107.25l-1.41-.08-1,1,2.32,6.74c1-.37,2-.78,3-1.22Zm-12.08,3.48-1.35-.43-1.2.76.57,7.09q1.63-.16,3.24-.42ZM75,109.37l-1.39-.26-1.09.9L74,117q1.59-.36,3.15-.81Zm29.24-22.56-1.19.77L102.9,89l5.83,4.09c.61-.9,1.18-1.83,1.73-2.76ZM62.29,11l.32-7.09c-.48,0-1,0-1.44,0s-1.21,0-1.82,0L59.72,11l1.29.59Zm49,51.85-.67,1.25.52,1.32,7.06.77c.1-1.08.16-2.17.19-3.26Zm-.61,6.27-.82,1.15.35,1.38,6.92,1.65c.23-1.06.44-2.13.61-3.21Zm-3.54,12.07-1.08.91v1.41l6.29,3.32c.49-1,1-1.95,1.38-2.95Zm2.15-5.92-1,1,.18,1.4,6.66,2.51c.36-1,.69-2.06,1-3.11ZM27.9,98.7l-.53-1.31L26,97l-5.1,5c.78.77,1.57,1.5,2.39,2.22Zm-8.29-9.45-.19-1.41-1.2-.76-6.17,3.54c.56.93,1.14,1.85,1.75,2.75ZM63,118.39l-.37-7.09-1.29-.59-1.28.6-.32,7.09c.48,0,1,0,1.45,0S62.37,118.41,63,118.39ZM23.45,94.23l-.36-1.36-1.28-.61-5.67,4.27c.67.86,1.37,1.69,2.08,2.51ZM11.22,65.75l.51-1.32-.68-1.24L4,63.31c0,1.1.11,2.18.21,3.26ZM13.93,78l.17-1.41-1-1L6.27,77.48c.31,1,.64,2.08,1,3.1Zm-1.74-6,.34-1.38-.83-1.14-7,1c.17,1.08.39,2.14.62,3.2Zm4.22,11.84V82.4l-1.1-.9L8.75,84.23c.43,1,.9,2,1.4,2.94Zm39.9,27.27-1.2-.75-1.35.43-1.21,7c1.07.16,2.15.28,3.24.39Zm-6.22-1-1.09-.9-1.4.26-2.08,6.81c1,.29,2.1.56,3.16.8ZM38.28,105.8l-.84-1.15L36,104.57l-3.7,6.06c.93.55,1.89,1.07,2.86,1.56Zm5.77,2.51-1-1-1.41.08-2.92,6.5c1,.43,2,.82,3,1.19Zm-11.19-5.74-.69-1.23-1.39-.27-4.43,5.55c.86.66,1.73,1.31,2.63,1.92Z"></path><circle class="cls-3" cx="61.17" cy="61.17" r="50.49"></circle><circle class="cls-3" cx="61.17" cy="61.17" r="40.82"></circle><circle class="cls-6" cx="61.17" cy="61.17" r="38.37"></circle><g id="Layer_2-2" data-name="Layer 2"><g id="OBJECTS-2" data-name="OBJECTS"><path class="cls-7" d="M92,65.81C92.1,79.62,79.33,90.24,61.43,90.4c-8.76-.1-16.28-2.69-21.68-6.93A24.32,24.32,0,0,1,34,77.08a21.25,21.25,0,0,1-3.1-11.27,16.32,16.32,0,0,1,4.58-11.14c1.84-2,3.58-4.18,5.22-6.39l.45-.58a26.23,26.23,0,0,1,4.19-4.3,24.38,24.38,0,0,1,5.9-3.64,25.5,25.5,0,0,1,20.51,0,25.19,25.19,0,0,1,5.86,3.64,27.06,27.06,0,0,1,4.19,4.3l.46.6a81.15,81.15,0,0,0,5.2,6.37A16.32,16.32,0,0,1,92,65.81Z"></path><path class="cls-8" d="M61.44,90.56c-8.45-.09-16.18-2.57-21.77-7a24.19,24.19,0,0,1-5.81-6.42,21.21,21.21,0,0,1-3.15-11.33,16.38,16.38,0,0,1,4.64-11.23,74.14,74.14,0,0,0,4.85-5.9l.36-.47.45-.59a26.33,26.33,0,0,1,4.22-4.35,24.89,24.89,0,0,1,5.92-3.66,25.46,25.46,0,0,1,26.5,3.66,27.15,27.15,0,0,1,4.21,4.36l.8,1a76.4,76.4,0,0,0,4.86,5.92,16.45,16.45,0,0,1,4.64,11.26h0a22.26,22.26,0,0,1-8.61,17.51C77.92,87.89,70.07,90.46,61.44,90.56Zm0-52.86a25.16,25.16,0,0,0-10.19,2.13,24.64,24.64,0,0,0-5.87,3.62,26.69,26.69,0,0,0-4.18,4.32l-.43.57-.38.49a76.4,76.4,0,0,1-4.86,5.92A16.11,16.11,0,0,0,31,65.81,20.91,20.91,0,0,0,34.07,77a24,24,0,0,0,5.79,6.39c5.55,4.36,13.22,6.82,21.62,6.91C79.2,90.11,92,79.8,92,65.8h0a16.2,16.2,0,0,0-4.58-11.06A72.59,72.59,0,0,1,82.5,48.8l-.8-1a27.5,27.5,0,0,0-4.17-4.32,25.13,25.13,0,0,0-16.1-5.78Z"></path><g class="cls-9"><path class="cls-10" d="M55.3,68.68a3.44,3.44,0,0,0,.73.22Z"></path><path class="cls-8" d="M56,69a3.93,3.93,0,0,1-.76-.23l.08-.23.74.23Z"></path></g><g class="cls-9"><path class="cls-11" d="M87.43,54.67c-.32-.33-.62-.66-.93-1a15.82,15.82,0,0,1,1.14,5.73C87.7,73.21,74.94,83.82,57,84a40.47,40.47,0,0,1-13-2.21,6.15,6.15,0,0,0,.69-3,9.55,9.55,0,0,0-.2-2.67,44.46,44.46,0,0,1,9.74-5.54c1.66,1.91,4.63,2.24,8.08-.65,1.88,2.65,6,3.44,8-.65a7.55,7.55,0,0,0,.6-2.07c.23-1.5.21-2.76-.94-2.67a1.72,1.72,0,0,0-1.3.84c-2,3.06-4.2,3-6.81.66-2.12,2.08-4.09,3.18-5.86,2.84h0a3.44,3.44,0,0,1-.73-.22h0a5.72,5.72,0,0,1-2.45-2.37,7.09,7.09,0,0,0,.63,3A43.41,43.41,0,0,0,47,72.7a7.9,7.9,0,0,0-1.44-1.61l-1.43,1,.22.15h-.45l-2,1.43a8.08,8.08,0,0,0,2.3.31H45a53.78,53.78,0,0,0-5.55,4.42h0a7.69,7.69,0,0,0-3.22-1.23l-.91-.12a7.61,7.61,0,0,0-1.35,0,2.39,2.39,0,0,0,.13.21c.08.14.17.27.25.4l.27.4.28.39c.18.26.37.52.57.77l.3.38c.1.13.21.25.32.37s.2.25.31.37l.25.27.44.48.28.28c.23.23.45.45.68.66l.39.36.44.38.43.36.44.35c5.39,4.24,12.92,6.83,21.68,6.93,17.9-.2,30.67-10.82,30.61-24.63A16.37,16.37,0,0,0,87.43,54.67ZM40.27,80.23c0-.17-.05-.34-.08-.5l.27-.24c1-.93,2.09-1.8,3.14-2.62a11.65,11.65,0,0,0-.23,1.87,7.11,7.11,0,0,0,.32,3A31.68,31.68,0,0,1,40.27,80.23Z"></path></g><g class="cls-9"><path class="cls-10" d="M32.75,74.79a26.94,26.94,0,0,0,2.57,2.31,7.61,7.61,0,0,0-1.35,0A19.64,19.64,0,0,1,32.75,74.79Z"></path><path class="cls-8" d="M35.72,77.26h-.41a7.5,7.5,0,0,0-1.34,0h-.11V77.2a23,23,0,0,1-1.22-2.3l-.29-.64.48.5a28.09,28.09,0,0,0,2.56,2.31ZM33.16,75.4c.27.54.56,1.07.87,1.58h.91C34.32,76.45,33.73,75.92,33.16,75.4Z"></path></g><path class="cls-12" d="M61.44,91.25c-8.81-.1-16.81-2.73-22.55-7.39a22.87,22.87,0,0,1-8.87-18,17.05,17.05,0,0,1,4.84-11.7,74.58,74.58,0,0,0,4.8-5.85l.37-.47.45-.59a27.27,27.27,0,0,1,4.32-4.47A25.24,25.24,0,0,1,50.86,39,26.3,26.3,0,0,1,72,39a25.56,25.56,0,0,1,6,3.74,27.69,27.69,0,0,1,4.32,4.47l.8,1a72.67,72.67,0,0,0,4.81,5.86,17.13,17.13,0,0,1,4.92,11.76h0a22.93,22.93,0,0,1-8.87,18C78.24,88.52,70.23,91.15,61.44,91.25Zm0-52.85A24.35,24.35,0,0,0,45.86,44a26.14,26.14,0,0,0-4.07,4.21l-.43.56h0l-.36.48q-2.31,3.12-4.91,6a15.38,15.38,0,0,0-4.45,10.58C31.57,79.4,44.11,89.4,61.44,89.64,78.76,89.4,91.29,79.4,91.23,65.81h0a15.56,15.56,0,0,0-4.37-10.59,74,74,0,0,1-4.92-6l-.8-1A27,27,0,0,0,77.07,44a23.7,23.7,0,0,0-5.67-3.5A24.68,24.68,0,0,0,61.43,38.4Z"></path><path class="cls-12" d="M82.22,48.3l-.46-.6a27.06,27.06,0,0,0-4.19-4.3,25.11,25.11,0,0,0-5.86-3.62h0C74.33,26.29,96.69,40.7,82.22,48.3Z"></path><path class="cls-13" d="M84.31,36.86c1,2.65,0,5.69-4.5,8.07l-.46-.6c-1.25-1.63-3.23-1.82-4.76-3.08-.93-.77-1.89-.85-2.89-1.45-.23.54.14-.74,0-.06h0a25,25,0,0,1,5.87,3.66,27.06,27.06,0,0,1,4.19,4.3l.46.6C88.86,44.8,87.74,39.87,84.31,36.86Z"></path><g class="cls-14"><path class="cls-7" d="M87,41.55c-2.17-5.41-12.12-9-14.59-1.47l-.73-.34h0C73.64,29.81,86.33,35.06,87,41.55Z"></path></g><path class="cls-12" d="M82.22,49.11a.79.79,0,0,1-.64-.32l-.46-.6A27,27,0,0,0,77.05,44a23.7,23.7,0,0,0-5.67-3.5.85.85,0,0,1-.46-.95c.75-3.77,3.14-6,6.55-6.12,4.39-.14,9.15,3.18,10.18,7.11.51,1.91.53,5.57-5,8.5A1.11,1.11,0,0,1,82.22,49.11Zm-9.58-9.83a25.58,25.58,0,0,1,5.44,3.46,27.69,27.69,0,0,1,4.32,4.47h0c3-1.76,4.28-3.94,3.65-6.33-.83-3.15-5-6-8.55-5.9C75.76,35.09,73.52,35.89,72.64,39.28Z"></path><path class="cls-12" d="M40.65,48.29l.46-.6A27,27,0,0,1,45.3,43.4a24.57,24.57,0,0,1,5.86-3.67h0C48.54,26.28,26.18,40.69,40.65,48.29Z"></path><path class="cls-13" d="M38.56,36.85c-1,2.65,0,5.69,4.5,8.07l.46-.6c1.25-1.63,3.23-1.82,4.76-3.08.93-.77,1.89-.84,2.89-1.45.23.54-.14-.74,0-.06h0A24.63,24.63,0,0,0,45.3,43.4a26.48,26.48,0,0,0-4.19,4.34l-.46.6C34,44.79,35.13,39.86,38.56,36.85Z"></path><g class="cls-14"><path class="cls-7" d="M35.86,41.54c2.2-5.4,12.11-9,14.59-1.47l.73-.34h0C49.23,29.8,36.54,35.05,35.86,41.54Z"></path></g><path class="cls-12" d="M40.65,49.1a.79.79,0,0,1-.38-.09c-5.58-2.93-5.56-6.61-5.06-8.5,1-3.93,5.8-7.25,10.18-7.11,3.42.12,5.81,2.36,6.56,6.14a1,1,0,0,1,0,.34.84.84,0,0,1-.46.59A23.58,23.58,0,0,0,45.86,44a26.14,26.14,0,0,0-4.07,4.21l-.46.6A.82.82,0,0,1,40.65,49.1ZM45.12,35c-3.52,0-7.53,2.81-8.34,5.9-.63,2.39.63,4.57,3.65,6.33h0a27.21,27.21,0,0,1,4.31-4.47,25.4,25.4,0,0,1,5.45-3.46c-.89-3.39-3.12-4.19-4.9-4.25Z"></path><path class="cls-12" d="M66.29,61.4c0,1.55-2,2.81-4.4,2.81s-4.4-1.26-4.4-2.81,2-1.55,4.4-1.55S66.29,59.82,66.29,61.4Z"></path><path class="cls-12" d="M38.39,62c1,7.34,9.08,7.34,11.38,2.48a12.2,12.2,0,0,1,4.42-6.7,3.1,3.1,0,0,0,.76-.73c2.45-3.81-3.15-11-12.86-3.4A10.71,10.71,0,0,0,38.39,62Z"></path><path class="cls-12" d="M84.47,62c-1,7.34-9.07,7.34-11.37,2.48a12.39,12.39,0,0,0-4.42-6.7,2.64,2.64,0,0,1-.76-.73c-2.45-3.81,3.15-11,12.86-3.4A10.81,10.81,0,0,1,84.47,62Z"></path><path class="cls-7" d="M72.67,58.82a3.18,3.18,0,0,1,1-2.17,3.59,3.59,0,0,1,4.79,0,2.76,2.76,0,0,1,.94,2.21,4.43,4.43,0,0,0-1.54-1.32,4.18,4.18,0,0,0-1.73-.38,3.8,3.8,0,0,0-1.73.41A7.14,7.14,0,0,0,72.67,58.82Z"></path><path class="cls-7" d="M43.59,58.82a3.09,3.09,0,0,1,1-2.17,3.58,3.58,0,0,1,4.78,0,2.73,2.73,0,0,1,1,2.21,4.72,4.72,0,0,0-1.6-1.28A3.9,3.9,0,0,0,47,57.2a3.8,3.8,0,0,0-1.73.41A7.07,7.07,0,0,0,43.59,58.82Z"></path><path class="cls-7" d="M63.75,61.16c0,.41-.83.74-1.86.74S60,61.57,60,61.16s.84-.31,1.87-.31S63.75,60.75,63.75,61.16Z"></path><path class="cls-8" d="M61.86,62c-1.13,0-2-.37-2-.86a.33.33,0,0,1,.11-.25c.21-.21.7-.2,1.39-.19h1c.68,0,1.18,0,1.39.19a.36.36,0,0,1,.1.25C63.86,61.65,63,62,61.86,62ZM61,61a1.44,1.44,0,0,0-.82.12.06.06,0,0,0,0,.08c0,.3.72.62,1.75.62s1.74-.32,1.74-.62a.11.11,0,0,0,0-.08A2.81,2.81,0,0,0,62.42,61H61Z"></path><path class="cls-15" d="M37.42,78.13a.7.7,0,0,1-.53-.24.72.72,0,0,1,0-1l.58-.53h0A48.07,48.07,0,0,1,53.28,66.6a.72.72,0,0,1,.89.51.74.74,0,0,1-.4.86A46.77,46.77,0,0,0,38.5,77.4h0l-.57.51A.72.72,0,0,1,37.42,78.13Z"></path><path class="cls-16" d="M42.48,68.14a9.53,9.53,0,0,1,2.63,2.7.36.36,0,0,1,.15.27c0,.48-1.37.86-3.06.85s-3.05-.42-3.05-.9,1.38-.87,3.07-.86h.15l-1-.68c-1.77-1.36-3-2.77-2.67-3.16S40.71,66.78,42.48,68.14Z"></path><path class="cls-16" d="M34.28,75.13c-2.33-.41-4.35,0-4.51.9s1.49,1.9,3.7,2.37a23.77,23.77,0,0,0-2.77,2C27.38,83,25.28,85.88,26,86.79s4-.52,7.33-3.19l.4-.33c-.34,1.66-.23,2.94.38,3.17.86.33,2.37-1.53,3.38-4.15a8.7,8.7,0,0,0,.71-4.77h0C38.37,76.61,36.61,75.55,34.28,75.13Z"></path><path class="cls-16" d="M42,79.82c.39,0,.76-1.37.84-3.1s-.16-3.15-.54-3.16-.76,1.37-.84,3.1S41.58,79.8,42,79.82Z"></path><g class="cls-9"><path class="cls-10" d="M34,77.08a2.39,2.39,0,0,0,.13.21L34,77.08Z"></path><path class="cls-8" d="M34,77.4l-.14-.26L33.75,77H34V77a2.39,2.39,0,0,0,.13.21Z"></path></g><path class="cls-12" d="M66.24,70.08h-.16a5.27,5.27,0,0,1-4.39-2.68,6.75,6.75,0,0,1-5.52,2.29,5.71,5.71,0,0,1-4.31-3.79.74.74,0,0,1,.34-1h0a.72.72,0,0,1,1,.33l0,0a4.29,4.29,0,0,0,3.19,2.89c1.58.23,3.38-.72,4.95-2.61a.72.72,0,0,1,1-.09.84.84,0,0,1,.22.31,3.93,3.93,0,0,0,3.56,2.81A4.15,4.15,0,0,0,70,65.92a.73.73,0,0,1,.91-.49.74.74,0,0,1,.48.92l-.06.15A5.58,5.58,0,0,1,66.24,70.08Z"></path><path class="cls-12" d="M61.86,67a.72.72,0,0,1-.72-.72h0V63.65a.73.73,0,1,1,1.45,0v2.63A.74.74,0,0,1,61.86,67Z"></path></g></g><polygon class="cls-17" points="83.4 45.71 87.69 34.44 92.82 45.35 88.87 33.96 99.81 39.01 89.46 32.83 101.1 29.67 89.19 31.59 96.07 21.68 88.19 30.8 87.09 18.8 86.91 30.85 78.36 22.36 85.97 31.71 73.96 30.7 85.8 32.97 75.95 39.92 86.47 34.05 83.4 45.71"></polygon></g></g></g></svg>